<svg xmlns="http://www.w3.org/2000/svg" viewBox="0 0 54.27 79.17"><defs><style>.cls-1{fill:#05f;}</style></defs><title>brenda</title><g id="Layer_2" data-name="Layer 2"><g id="Layer_1-2" data-name="Layer 1"><path class="cls-1" d="M37.87,41.19a13.62,13.62,0,0,0-6.18,1.67,1,1,0,0,0,.9,1.78,11.64,11.64,0,0,1,5.22-1.45A9,9,0,0,1,42.36,45a.94.94,0,0,0,.55.17,1,1,0,0,0,.56-1.83A10.82,10.82,0,0,0,37.87,41.19Z"/><circle class="cls-1" cx="36.86" cy="47.57" r="1.5"/><path class="cls-1" d="M22,44.64a1,1,0,1,0,.9-1.78,13.54,13.54,0,0,0-6.17-1.67,10.75,10.75,0,0,0-5.6,2.11A1,1,0,1,0,12.22,45a9,9,0,0,1,4.54-1.77A11.68,11.68,0,0,1,22,44.64Z"/><circle class="cls-1" cx="17.71" cy="47.57" r="1.5"/><path class="cls-1" d="M27.29,60.91a8.69,8.69,0,0,0,2.4-.32,1,1,0,0,0,.68-1.24,1,1,0,0,0-1.23-.68,6.45,6.45,0,0,1-3.4,0c0-.14.09-.3.13-.4L26,58c.24-.85.52-1.7.82-2.57A23.76,23.76,0,0,0,28,50.3,1,1,0,0,0,26,50a21.84,21.84,0,0,1-1.14,4.72c-.3.89-.59,1.77-.85,2.67a1.68,1.68,0,0,1-.08.24,3,3,0,0,0-.2,1.84C24.09,60.45,25.62,60.91,27.29,60.91Z"/><path class="cls-1" d="M33,64.54c-4.08,1.66-11.18-.09-11.25-.11a1,1,0,0,0-1.22.73,1,1,0,0,0,.73,1.21,33,33,0,0,0,7.16.88,14.4,14.4,0,0,0,5.34-.86A1,1,0,0,0,33,64.54Z"/><path class="cls-1" d="M50.22,17.3a20.7,20.7,0,0,0-5.4-5.24c0-2.84-2-7.43-4.37-8.91C36.63.81,30-.91,25.29.52c-2.27.69-3.87,3.42-5,5.41l-.19.31-.4,0a17.73,17.73,0,0,0-5.8,1.91,1,1,0,0,0-.58.32C6.57,12.34.8,20.85,0,34.32c-.16,2.79.11,6.81,2.29,10.11A11.36,11.36,0,0,0,3.63,46a60.77,60.77,0,0,0,.64,7.75,7.68,7.68,0,0,0,3.66,5.45,23.24,23.24,0,0,0,2.74,8.08c2.27,3.85,9.32,11.83,16.6,11.91h.15c8.27,0,14.12-8,15.73-10.51A24.91,24.91,0,0,0,46.88,57.3h0A10.47,10.47,0,0,0,50,53.6c.62-1.67,1.09-8,1.15-8.69,0,0,0-.08,0-.13.18-.21.37-.42.55-.65,2.61-3.53,2.62-8.21,2.62-12.34v-.73A23.28,23.28,0,0,0,50.22,17.3ZM25.87,2.44c4-1.22,10,.27,13.54,2.41,1.43.88,2.83,3.73,3.27,5.93a28.06,28.06,0,0,0-3.91-1.7,45.7,45.7,0,0,0-16.27-3C23.41,4.56,24.61,2.82,25.87,2.44ZM2,34.44c.74-12.94,6-20,11.21-23.51a18.89,18.89,0,0,0,5.12,10.35,21.47,21.47,0,0,0-4.48,3.08,24.13,24.13,0,0,0-4.32,5C6.34,34.3,6.64,39.47,7,44.94c0,.22,0,.76,0,1.36a15,15,0,0,1-3-3C2.12,40.49,1.89,36.92,2,34.44Zm4.21,19a52.13,52.13,0,0,1-.54-5.57L6,48l1.1.92c0,.75.1,1.51.14,2.28.1,1.67.2,3.36.36,5A6.06,6.06,0,0,1,6.24,53.41ZM41.47,67.57c-1.48,2.27-6.86,9.7-14.17,9.6-6.38-.07-12.9-7.53-14.9-10.92a21.19,21.19,0,0,1-2.49-7.43,1,1,0,0,0-.11-.73c-.33-2.29-.48-4.64-.61-7-.06-.91-.11-1.82-.17-2.71,0-.26,0-1,0-1.73s0-1.58,0-1.86c-.3-5.13-.58-10,2.28-14.32a22.4,22.4,0,0,1,4-4.63c1.38-1.2,4-3,4.87-3.1,1.36,1,8.13,5.95,11.17,7.39a43.84,43.84,0,0,1,9.26,5.95c1.42,1.17,3.2,2.64,4,4.52a12.76,12.76,0,0,1,.54,5c0,.69,0,1.39,0,2.07C45.24,54.44,45.49,61.37,41.47,67.57ZM48.1,52.91a5.17,5.17,0,0,1-1,1.5c.07-2.12,0-4.2-.06-6.21l.33-.24c.36-.29.71-.55,1-.8l.58-.43A41,41,0,0,1,48.1,52.91Zm4.17-21.12c0,3.82,0,8.15-2.23,11.14a12.73,12.73,0,0,1-2.85,2.63l-.2.14h0a14.32,14.32,0,0,0-.69-5.82c-.95-2.35-2.94-4-4.54-5.32a46,46,0,0,0-9.67-6.21c-3.07-1.44-9.87-6.47-10.84-7.18,0,0,0,0,0,0a16.74,16.74,0,0,1-6.1-11.3,15.1,15.1,0,0,1,4.82-1.58c.26,0,.53-.06.8-.08l.19,0A23.33,23.33,0,0,1,23.33,8,45.62,45.62,0,0,1,38.11,11a20.33,20.33,0,0,1,10.49,7.5,21.59,21.59,0,0,1,3.67,12.6Z"/></g></g></svg>