<svg xmlns="http://www.w3.org/2000/svg" viewBox="0 0 52.48 78.7"><defs><style>.cls-1{fill:#05f;}</style></defs><title>jerry</title><g id="Layer_2" data-name="Layer 2"><g id="Layer_1-2" data-name="Layer 1"><circle class="cls-1" cx="20.46" cy="44.19" r="1.69"/><circle class="cls-1" cx="37.74" cy="44.19" r="1.69"/><path class="cls-1" d="M24.32,39.35a1,1,0,0,0,.38-2c-5.42-1-11,1.46-11.27,1.57a1,1,0,0,0,.42,1.91,1,1,0,0,0,.41-.09C14.31,40.75,19.55,38.42,24.32,39.35Z"/><path class="cls-1" d="M35.94,60.92a22.35,22.35,0,0,1-13.65-.15,1,1,0,0,0-.72,1.86,23.6,23.6,0,0,0,7.91,1.31,22.31,22.31,0,0,0,7.1-1.12,1,1,0,0,0-.64-1.9Z"/><path class="cls-1" d="M21,55.38a1,1,0,0,0-1.41-.1c-1.76,1.52-4.4,5.45-1.86,9.46a1,1,0,0,0,.85.46.94.94,0,0,0,.53-.16,1,1,0,0,0,.31-1.37c-2.25-3.55,1.33-6.75,1.48-6.88A1,1,0,0,0,21,55.38Z"/><path class="cls-1" d="M38.75,55.28a1,1,0,1,0-1.31,1.51c.15.13,3.73,3.33,1.48,6.88A1,1,0,0,0,39.23,65a.94.94,0,0,0,.53.16,1,1,0,0,0,.85-.46C43.15,60.73,40.5,56.8,38.75,55.28Z"/><path class="cls-1" d="M51.53,21.52c-1.57-4.22-6.63-6.3-9-7.06a10.6,10.6,0,0,0-.08-6.22c-2.15-6-9.63-7.62-11.87-8a21.16,21.16,0,0,0-9.13.55A14.67,14.67,0,0,0,11.84,9C1.57,12.62-.57,27,.12,30.16a80.14,80.14,0,0,0,3.42,9.35,31.19,31.19,0,0,0-.62,6.31C3,52,4,55.59,5.82,56.92a3.06,3.06,0,0,0,1.7.56,29.22,29.22,0,0,0,1,6.23c2.37,7.64,12.19,14.93,20.22,15h.18c6,0,8.59-2.3,11.17-5.07C44.35,69,45.34,63,46.1,57.45c1-.27,3.06-1.22,3.73-4.45.76-3.69.67-12,.66-12.45l-.26-3.65,1.58-4.26C51.88,32.4,53.46,26.68,51.53,21.52ZM22.05,2.73a19,19,0,0,1,8.25-.49c4.06.64,8.89,2.72,10.31,6.67a9.28,9.28,0,0,1-.22,5.94c-.31,1-.69,2-1,2.84-.15.37-.28.7-.4,1,0,0,0,.1,0,.14l-.27-.1A49.72,49.72,0,0,0,24.9,16.67v-.05c0-.13,0-.24,0-.36s-.05-.41-.08-.6-.05-.25-.07-.38-.07-.34-.11-.5-.07-.24-.1-.36-.09-.31-.14-.45l-.12-.32-.18-.41a2.44,2.44,0,0,0-.14-.28,3.44,3.44,0,0,0-.22-.38l-.14-.24L23.26,12l-.14-.17a5,5,0,0,0-.47-.45,4.51,4.51,0,0,0-3.76-.83c-3,.51-4.5,2.74-5.68,5A7,7,0,0,1,13,14.3a8.19,8.19,0,0,1,.22-3.05,9.53,9.53,0,0,1,.35-1.09A12.59,12.59,0,0,1,22.05,2.73Zm-11,8.79a.5.5,0,0,0,0,.12,2.51,2.51,0,0,0,0,.27c0,.2,0,.41-.07.61s0,.2,0,.3,0,.41,0,.61v.26a7.9,7.9,0,0,0,.07.85,8.43,8.43,0,0,0,.48,2,9.66,9.66,0,0,0,1,1.88,1,1,0,0,0,.88.35,1,1,0,0,0,.78-.54l.37-.73c1.18-2.36,2.29-4.58,4.79-5a2.56,2.56,0,0,1,2.16.42,2.91,2.91,0,0,1,.31.3l.09.12.19.26.09.17.15.28.09.2a3.42,3.42,0,0,1,.13.34c0,.07,0,.14.07.21l.12.41.05.2c.05.21.09.44.13.67,0,0,0,.07,0,.11s.05.36.07.56a21.92,21.92,0,0,0-4.41.74C9.73,20,7.45,33.63,7.35,34.29L7,39.68c0,.7-.12,1.41-.18,2.12a2.64,2.64,0,0,0,0,.28c-.39-.94-.83-2-1.26-3.06h0a78.71,78.71,0,0,1-3.43-9.28C1.58,27.45,3.33,15.54,11.07,11.52ZM7,55.29c-.73-.52-2-2.44-2.06-9.49A24.54,24.54,0,0,1,5,43.13c.37.9.7,1.68,1,2.29,0,.09.07.17.1.25l.08.18.07.17.06.13.07.17,0,.12,0,.1,0,0v0c0,.14,0,.28,0,.41v.16A46.19,46.19,0,0,0,7,52.63c.08.63.17,1.26.24,1.88,0,.32.08.63.11.94A1,1,0,0,1,7,55.29Zm31.65,17c-2.43,2.62-4.56,4.48-9.86,4.43-7.28,0-16.19-6.66-18.33-13.58a29.8,29.8,0,0,1-1-6.23l-.05-.64h0c-.06-.66-.12-1.32-.2-2S9.06,53,9,52.36a45.3,45.3,0,0,1-.5-5.2h0V47c0-.11,0-.22,0-.33v-.28h0c0-1.47.15-3,.28-4.44.07-.71.13-1.43.18-2.15l.38-5.3c0-.12,2.17-13,9.7-15.11a21.45,21.45,0,0,1,5-.72,48.17,48.17,0,0,1,14,1.95,3.5,3.5,0,0,1,.89.53h0c2.85,2.18,5.88,8.49,6.2,11.15a68.77,68.77,0,0,1,.36,11.83c-.15,3.35-.51,7-1.08,11.08l-.16,1.22h0C43.44,62.1,42.64,67.94,38.63,72.27Zm9.24-19.68a4,4,0,0,1-1.45,2.55c.54-4,.88-7.47,1-10.74l.16-.45.88-2.36C48.5,43.91,48.45,49.82,47.87,52.59Zm2-20.57-2.37,6.4c0-2.2-.2-4.3-.45-6.34-.36-3-3.32-9.26-6.45-12.07a.56.56,0,0,1,0-.12c0-.16.11-.34.18-.53s0-.13.08-.2c.09-.23.18-.47.29-.73s.3-.79.46-1.2l.14-.39c.05-.15.11-.3.17-.46,2,.65,6.4,2.46,7.66,5.84C51.35,26.75,49.9,32,49.91,32Z"/><path class="cls-1" d="M43.86,39.92c-.24-.13-5.79-3.39-10.61-1.48-4.63,1.83-4,8.05-3.71,11A27.09,27.09,0,0,0,30,52.33l.14.62c.17.8.34,1.56.43,2.31l-4.26-.39a1,1,0,1,0-.18,2l5.41.5h.1a1.06,1.06,0,0,0,.67-.26,1,1,0,0,0,.33-.74,17.78,17.78,0,0,0-.55-3.84l-.13-.61a26.13,26.13,0,0,1-.39-2.64c-.4-4-.38-7.86,2.45-9,3.9-1.55,8.81,1.31,8.85,1.34a1,1,0,1,0,1-1.72Z"/></g></g></svg>