<svg xmlns="http://www.w3.org/2000/svg" xmlns:xlink="http://www.w3.org/1999/xlink" viewBox="0 0 254.49 406.28"><defs><style>.cls-1,.cls-82,.cls-84,.cls-86,.cls-87{fill:none;}.cls-2{fill:#05f;}.cls-3,.cls-4{fill:#fff;}.cls-4,.cls-5,.cls-84,.cls-85{stroke:#000;}.cls-4,.cls-5,.cls-84,.cls-85,.cls-86,.cls-87{stroke-miterlimit:10;}.cls-4,.cls-5,.cls-82,.cls-84,.cls-85{stroke-width:0.19px;}.cls-5{fill:url(#New_Pattern_4);}.cls-6{font-size:11.21px;letter-spacing:-0.03em;}.cls-10,.cls-115,.cls-47,.cls-6,.cls-69,.cls-83,.cls-90{font-family:NimbusSan-Bol, Nimbus Sans;font-weight:700;}.cls-7{letter-spacing:-0.03em;}.cls-8{letter-spacing:-0.02em;}.cls-9{letter-spacing:-0.02em;}.cls-10{font-size:7.47px;}.cls-11{letter-spacing:-0.01em;}.cls-12{letter-spacing:-0.01em;}.cls-13{letter-spacing:0em;}.cls-14{letter-spacing:0em;}.cls-15{letter-spacing:-0.01em;}.cls-16{letter-spacing:0em;}.cls-17{letter-spacing:-0.01em;}.cls-18{letter-spacing:0em;}.cls-19{letter-spacing:-0.01em;}.cls-20{letter-spacing:-0.07em;}.cls-115,.cls-21{font-size:2.24px;}.cls-21,.cls-55{fill:#4d4d4d;}.cls-21,.cls-55,.cls-70{font-family:NimbusSan-Reg, Nimbus Sans;}.cls-22{letter-spacing:-0.01em;}.cls-23{letter-spacing:0em;}.cls-24{letter-spacing:-0.01em;}.cls-25{letter-spacing:-0.02em;}.cls-26{letter-spacing:-0.01em;}.cls-27{letter-spacing:0em;}.cls-28{letter-spacing:0.02em;}.cls-29{letter-spacing:0.01em;}.cls-30{letter-spacing:0.03em;}.cls-31{letter-spacing:0.02em;}.cls-32{letter-spacing:0em;}.cls-33{letter-spacing:-0.01em;}.cls-34{letter-spacing:-0.03em;}.cls-35{letter-spacing:0.01em;}.cls-36{letter-spacing:0em;}.cls-37{letter-spacing:0em;}.cls-38{letter-spacing:0.01em;}.cls-39{letter-spacing:0em;}.cls-40{letter-spacing:0.01em;}.cls-41{letter-spacing:0em;}.cls-42{letter-spacing:-0.01em;}.cls-43{letter-spacing:0.03em;}.cls-44{letter-spacing:-0.01em;}.cls-45{letter-spacing:0.01em;}.cls-46{letter-spacing:0.02em;}.cls-47,.cls-55{font-size:2.62px;}.cls-115,.cls-47{fill:#1474ff;}.cls-48{letter-spacing:-0.01em;}.cls-49{letter-spacing:0em;}.cls-50{letter-spacing:-0.07em;}.cls-51{letter-spacing:0.01em;}.cls-52{letter-spacing:-0.07em;}.cls-53{letter-spacing:0em;}.cls-54{letter-spacing:-0.07em;}.cls-56{letter-spacing:0em;}.cls-57{letter-spacing:-0.01em;}.cls-58{letter-spacing:-0.01em;}.cls-59{letter-spacing:-0.01em;}.cls-60{letter-spacing:0em;}.cls-61{letter-spacing:0em;}.cls-62{letter-spacing:0em;}.cls-63{letter-spacing:-0.01em;}.cls-64{letter-spacing:-0.01em;}.cls-65{letter-spacing:0em;}.cls-66{letter-spacing:0.01em;}.cls-67{letter-spacing:0.01em;}.cls-68{letter-spacing:-0.01em;}.cls-69{fill:#1a1e25;letter-spacing:-0.01em;}.cls-70{font-size:2.99px;fill:#666;letter-spacing:0.01em;}.cls-71{letter-spacing:0.01em;}.cls-72{letter-spacing:-0.01em;}.cls-73{letter-spacing:0.01em;}.cls-74{letter-spacing:0.02em;}.cls-75{letter-spacing:0.01em;}.cls-76{letter-spacing:0.02em;}.cls-77{letter-spacing:0.01em;}.cls-78{letter-spacing:0.01em;}.cls-79{letter-spacing:0.01em;}.cls-80{letter-spacing:0.02em;}.cls-81{letter-spacing:0em;}.cls-82,.cls-87{stroke:#05f;}.cls-82,.cls-86,.cls-87{stroke-linecap:round;}.cls-82{stroke-linejoin:round;}.cls-83{font-size:11.96px;letter-spacing:-0.02em;}.cls-85{fill:url(#New_Pattern_4-3);}.cls-86{stroke:#e6e6e6;}.cls-86,.cls-87{stroke-width:0.37px;}.cls-88{fill:#39b54a;}.cls-89{fill:#c0392b;}.cls-90{font-size:6.73px;}.cls-91{letter-spacing:0em;}.cls-92{letter-spacing:0.01em;}.cls-93{letter-spacing:-0.02em;}.cls-94{letter-spacing:0em;}.cls-95{letter-spacing:-0.01em;}.cls-96{letter-spacing:-0.03em;}.cls-97{letter-spacing:-0.01em;}.cls-98{letter-spacing:0.01em;}.cls-99{letter-spacing:0.03em;}.cls-100{letter-spacing:0.01em;}.cls-101{letter-spacing:-0.01em;}.cls-102{letter-spacing:0em;}.cls-103{letter-spacing:0em;}.cls-104{letter-spacing:-0.04em;}.cls-105,.cls-106{font-family:NimbusSan-RegIta, Nimbus Sans;font-style:italic;}.cls-105,.cls-107{letter-spacing:0em;}.cls-106{letter-spacing:0em;}.cls-108{letter-spacing:0em;}.cls-109{letter-spacing:0.01em;}.cls-110{letter-spacing:-0.01em;}.cls-111{letter-spacing:0em;}.cls-112{letter-spacing:0em;}.cls-113{letter-spacing:0em;}.cls-114{letter-spacing:0em;}.cls-116{letter-spacing:0.01em;}.cls-117{letter-spacing:-0.03em;}.cls-118{letter-spacing:-0.06em;}.cls-119{letter-spacing:-0.01em;}.cls-120{letter-spacing:-0.07em;}.cls-121{letter-spacing:0em;}.cls-122{letter-spacing:0em;}.cls-123{letter-spacing:0em;}.cls-124{letter-spacing:0em;}.cls-125{letter-spacing:-0.06em;}.cls-126{letter-spacing:0em;}.cls-127{letter-spacing:0.01em;}.cls-128{letter-spacing:-0.06em;}.cls-129{letter-spacing:-0.02em;}.cls-130{letter-spacing:0em;}.cls-131{letter-spacing:0.01em;}.cls-132{letter-spacing:0.02em;}.cls-133{letter-spacing:0em;}.cls-134{letter-spacing:0em;}</style><pattern id="New_Pattern_4" data-name="New Pattern 4" width="12" height="12" patternTransform="translate(-3.05 37.59) scale(0.19)" patternUnits="userSpaceOnUse" viewBox="0 0 12 12"><rect class="cls-1" width="12" height="12"/><circle class="cls-2" cx="12" cy="9" r="0.5"/><circle class="cls-2" cx="6" cy="12" r="0.5"/><circle class="cls-2" cy="9" r="0.5"/><circle class="cls-2" cx="12" cy="3" r="0.5"/><circle class="cls-2" cx="6" cy="6" r="0.5"/><circle class="cls-2" cy="3" r="0.5"/><circle class="cls-2" cx="6" r="0.5"/></pattern><pattern id="New_Pattern_4-3" data-name="New Pattern 4" width="12" height="12" patternTransform="translate(-7.06 37.28) scale(0.23)" patternUnits="userSpaceOnUse" viewBox="0 0 12 12"><rect class="cls-1" width="12" height="12"/><circle class="cls-2" cx="12" cy="9" r="0.5"/><circle class="cls-2" cx="6" cy="12" r="0.5"/><circle class="cls-2" cy="9" r="0.5"/><circle class="cls-2" cx="12" cy="3" r="0.5"/><circle class="cls-2" cx="6" cy="6" r="0.5"/><circle class="cls-2" cy="3" r="0.5"/><circle class="cls-2" cx="6" r="0.5"/></pattern></defs><title>wireframe-body-marketing</title><g id="Layer_2" data-name="Layer 2"><g id="Layer_1-2" data-name="Layer 1"><rect class="cls-3" width="254.49" height="406.28"/><rect class="cls-4" x="42.51" y="321.55" width="86.7" height="51.01"/><rect class="cls-4" x="30.69" y="362.09" width="33.66" height="19.81"/><rect class="cls-5" x="30.69" y="362.09" width="33.66" height="19.81"/><text class="cls-6" transform="translate(96.35 272.99)">P<tspan class="cls-7" x="6.56" y="0">r</tspan><tspan x="10.53" y="0">of</tspan><tspan class="cls-8" x="20.1" y="0">e</tspan><tspan class="cls-9" x="26.17" y="0">s</tspan><tspan x="31.6" y="0">sional</tspan></text><text class="cls-10" transform="translate(162.27 333.08)"><tspan class="cls-11">P</tspan><tspan class="cls-12" x="4.48" y="0">r</tspan><tspan class="cls-11" x="7.24" y="0">odu</tspan><tspan class="cls-13" x="19.98" y="0">c</tspan><tspan class="cls-11" x="23.98" y="0">t </tspan><tspan class="cls-14" x="28.51" y="0">S</tspan><tspan class="cls-11" x="33.26" y="0">h</tspan><tspan class="cls-15" x="37.38" y="0">o</tspan><tspan x="41.7" y="0">t</tspan><tspan class="cls-11" x="44.15" y="0">s </tspan><tspan class="cls-16"><tspan x="0" y="8.97">t</tspan><tspan class="cls-11" x="2.47" y="8.97">h</tspan><tspan class="cls-17" x="6.6" y="8.97">a</tspan><tspan class="cls-11" x="10.69" y="8.97">t </tspan><tspan class="cls-18" x="15.22" y="8.97">P</tspan><tspan class="cls-19" x="19.75" y="8.97">O</tspan><tspan class="cls-20" x="25.3" y="8.97">P</tspan><tspan class="cls-11" x="29.32" y="8.97">. </tspan></tspan></text><text class="cls-21" transform="translate(162.35 351.91)">Is <tspan class="cls-22" x="2.33" y="0">y</tspan><tspan x="3.37" y="0">our pho</tspan><tspan class="cls-23" x="10.96" y="0">t</tspan><tspan x="11.56" y="0">o c</tspan><tspan class="cls-24" x="14.65" y="0">r</tspan><tspan x="15.42" y="0">oo</tspan><tspan class="cls-25" x="17.88" y="0">k</tspan><tspan x="18.98" y="0">ed or </tspan><tspan class="cls-26" x="24.79" y="0">w</tspan><tspan class="cls-27" x="26.29" y="0">ashed ou</tspan><tspan class="cls-28" x="35.32" y="0">t</tspan><tspan x="35.98" y="0">? Is </tspan><tspan class="cls-29" x="40.08" y="0">t</tspan><tspan x="40.71" y="0">he whi</tspan><tspan class="cls-23" x="47.01" y="0">t</tspan><tspan x="47.61" y="0">e balance </tspan><tspan x="0" y="4.67">o</tspan><tspan class="cls-30" x="1.23" y="4.67">f</tspan><tspan class="cls-31" x="1.9" y="4.67">f</tspan><tspan x="2.54" y="4.67">? Mi</tspan><tspan class="cls-32" x="6.63" y="4.67">s</tspan><tspan x="7.73" y="4.67">aligned in </tspan><tspan class="cls-29" x="17.86" y="4.67">t</tspan><tspan x="18.49" y="4.67">he f</tspan><tspan class="cls-33" x="22.15" y="4.67">r</tspan><tspan x="22.92" y="4.67">am</tspan><tspan class="cls-34" x="25.83" y="4.67">e</tspan><tspan x="26.95" y="4.67">? </tspan><tspan class="cls-32" x="28.73" y="4.67">N</tspan><tspan x="30.27" y="4.67">o p</tspan><tspan class="cls-24" x="33.43" y="4.67">r</tspan><tspan x="34.19" y="4.67">oblem! Rei</tspan><tspan class="cls-26" x="44.48" y="4.67">n</tspan><tspan class="cls-35" x="45.67" y="4.67">v</tspan><tspan x="46.67" y="4.67">igo</tspan><tspan class="cls-33" x="49.65" y="4.67">r</tspan><tspan class="cls-36" x="50.41" y="4.67">a</tspan><tspan class="cls-37" x="51.58" y="4.67">t</tspan><tspan x="52.18" y="4.67">e </tspan><tspan class="cls-38" x="54.04" y="4.67">t</tspan><tspan x="54.67" y="4.67">he </tspan><tspan class="cls-39" x="0" y="9.34">color</tspan><tspan class="cls-40" x="4.95" y="9.34">s</tspan><tspan x="6.07" y="9.34">, </tspan><tspan class="cls-29" x="7.27" y="9.34">t</tspan><tspan x="7.9" y="9.34">hen s</tspan><tspan class="cls-29" x="13.27" y="9.34">t</tspan><tspan class="cls-26" x="13.9" y="9.34">r</tspan><tspan x="14.67" y="9.34">ai</tspan><tspan class="cls-41" x="16.34" y="9.34">g</tspan><tspan x="17.58" y="9.34">h</tspan><tspan class="cls-37" x="18.79" y="9.34">t</tspan><tspan x="19.39" y="9.34">en and c</tspan><tspan class="cls-24" x="27.96" y="9.34">r</tspan><tspan x="28.72" y="9.34">op </tspan><tspan class="cls-42" x="31.89" y="9.34">f</tspan><tspan x="32.46" y="9.34">or a pe</tspan><tspan class="cls-43" x="39.44" y="9.34">r</tspan><tspan class="cls-44" x="40.28" y="9.34">f</tspan><tspan x="40.86" y="9.34">ect</tspan><tspan class="cls-45" x="43.84" y="9.34">l</tspan><tspan x="44.36" y="9.34">y f</tspan><tspan class="cls-26" x="46.7" y="9.34">r</tspan><tspan x="47.47" y="9.34">amed </tspan><tspan class="cls-42" x="53.5" y="9.34">r</tspan><tspan x="54.26" y="9.34">esul</tspan><tspan class="cls-46" x="58.25" y="9.34">t</tspan><tspan x="58.9" y="9.34">.</tspan></text><text class="cls-47" transform="translate(162.27 373.38)">Im<tspan class="cls-48" x="2.96" y="0">a</tspan><tspan class="cls-49" x="4.39" y="0">g</tspan><tspan x="5.94" y="0">e </tspan><tspan class="cls-50" x="8.2" y="0">T</tspan><tspan x="9.51" y="0">ou</tspan><tspan class="cls-51" x="12.52" y="0">c</tspan><tspan x="13.94" y="0">h </tspan><tspan class="cls-49" x="16.19" y="0">U</tspan><tspan x="17.97" y="0">p </tspan><tspan class="cls-52" x="20.29" y="0">T</tspan><tspan class="cls-53" x="21.6" y="0">utorials </tspan><tspan class="cls-54" x="31.41" y="0">»</tspan></text><text class="cls-55" transform="translate(61.41 221.33)">&quot;Dis<tspan class="cls-56" x="4.54" y="0">c</tspan><tspan class="cls-57" x="5.93" y="0">o</tspan><tspan class="cls-58" x="7.35" y="0">v</tspan><tspan x="8.48" y="0">e</tspan><tspan class="cls-59" x="9.87" y="0">r</tspan><tspan x="10.76" y="0">ed Clippi</tspan><tspan class="cls-60" x="20.9" y="0">n</tspan><tspan x="22.29" y="0">g M</tspan><tspan class="cls-57" x="26.61" y="0">a</tspan><tspan x="27.96" y="0">gic </tspan><tspan class="cls-61" x="32.15" y="0">t</tspan><tspan class="cls-53" x="32.85" y="0">oni</tspan><tspan class="cls-62" x="36.29" y="0">g</tspan><tspan x="37.73" y="0">ht and I&apos;m blown a</tspan><tspan class="cls-58" x="58.47" y="0">w</tspan><tspan class="cls-63" x="60.22" y="0">a</tspan><tspan x="61.55" y="0">y </tspan><tspan class="cls-64" x="63.59" y="0">b</tspan><tspan x="65.02" y="0">y h</tspan><tspan class="cls-65" x="68.47" y="0">o</tspan><tspan x="69.9" y="0">w use</tspan><tspan class="cls-49" x="76.51" y="0">f</tspan><tspan x="77.22" y="0">ul it i</tspan><tspan class="cls-66" x="82.68" y="0">s</tspan><tspan x="83.99" y="0">. It has </tspan><tspan class="cls-49" x="92.39" y="0">s</tspan><tspan class="cls-58" x="93.67" y="0">av</tspan><tspan x="96.16" y="0">ed me </tspan><tspan class="cls-65" x="104" y="0">S</tspan><tspan x="105.68" y="0">O much </tspan><tspan class="cls-67" x="115.44" y="0">t</tspan><tspan x="116.17" y="0">ime al</tspan><tspan class="cls-68" x="122.91" y="0">r</tspan><tspan class="cls-60" x="123.8" y="0">e</tspan><tspan x="125.18" y="0">a</tspan><tspan class="cls-51" x="126.54" y="0">dy</tspan><tspan x="129.3" y="0">!&quot;</tspan><tspan class="cls-69"><tspan x="60.57" y="6.17">- Jean H</tspan></tspan></text><text class="cls-70" transform="translate(87.38 282.85)">P<tspan class="cls-14" x="1.8" y="0">r</tspan><tspan x="2.85" y="0">odu</tspan><tspan class="cls-71" x="7.88" y="0">c</tspan><tspan x="9.49" y="0">e E</tspan><tspan class="cls-72" x="13.86" y="0">x</tspan><tspan class="cls-71" x="15.26" y="0">c</tspan><tspan x="16.87" y="0">e</tspan><tspan class="cls-73" x="18.48" y="0">p</tspan><tspan class="cls-74" x="20.19" y="0">t</tspan><tspan x="21.06" y="0">ional Im</tspan><tspan class="cls-14" x="31.43" y="0">a</tspan><tspan class="cls-75" x="33" y="0">ges </tspan><tspan class="cls-76" x="38.69" y="0">w</tspan><tspan class="cls-77" x="40.75" y="0">i</tspan><tspan class="cls-74" x="41.46" y="0">t</tspan><tspan x="42.33" y="0">h </tspan><tspan class="cls-40" x="44.89" y="0">U</tspan><tspan x="46.96" y="0">nma</tspan><tspan class="cls-78" x="52.54" y="0">t</tspan><tspan class="cls-79" x="53.37" y="0">c</tspan><tspan x="54.99" y="0">hed </tspan><tspan class="cls-80" x="60.88" y="0">C</tspan><tspan x="62.97" y="0">onsis</tspan><tspan class="cls-78" x="69.96" y="0">t</tspan><tspan x="70.79" y="0">en</tspan><tspan class="cls-81" x="74.04" y="0">c</tspan><tspan class="cls-77" x="75.63" y="0" xml:space="preserve">y  </tspan></text><path class="cls-82" d="M45,354a6.36,6.36,0,0,0-6.09,6.35"/><polygon class="cls-2" points="44.05 353.08 43.91 353.28 44.86 354 44.07 354.9 44.25 355.06 45.22 353.96 44.05 353.08"/><text class="cls-83" transform="translate(101.48 22.61)">Effortless</text><rect class="cls-84" x="20.93" y="46.97" width="210.73" height="79.68"/><line class="cls-84" x1="126.29" y1="46.9" x2="126.29" y2="126.43"/><rect class="cls-85" x="44.03" y="60.19" width="53.14" height="53.14"/><polygon class="cls-4" points="65.81 74.45 55.87 91.68 75.75 91.68 65.81 74.45"/><circle class="cls-4" cx="76.78" cy="91.63" r="8.17"/><polygon class="cls-4" points="175.14 71.99 162.81 93.33 187.46 93.33 175.14 71.99"/><circle class="cls-4" cx="188.74" cy="93.28" r="10.13"/><line class="cls-86" x1="20.91" y1="135.81" x2="82" y2="135.81"/><line class="cls-86" x1="91.28" y1="135.81" x2="153.84" y2="135.81"/><line class="cls-86" x1="161.91" y1="135.81" x2="225.15" y2="135.81"/><line class="cls-87" x1="20.91" y1="135.81" x2="65.74" y2="135.81"/><path class="cls-88" d="M65.71,83.25a117.45,117.45,0,0,0,7.81,9.84c.71.81,1.9-.38,1.19-1.19a113.14,113.14,0,0,1-7.55-9.5c-.62-.87-2.08,0-1.45.85Z"/><path class="cls-89" d="M82.48,70.44a12.16,12.16,0,0,1,2.86,6c.19,1.07,1.81.62,1.62-.44a13.82,13.82,0,0,0-3.29-6.75c-.72-.82-1.91.38-1.19,1.19Z"/><text class="cls-90" transform="translate(21.08 144.95)">Ma<tspan class="cls-91" x="9.13" y="0">r</tspan><tspan x="11.68" y="0">k</tspan></text><text class="cls-21" transform="translate(21.08 152.22)"><tspan class="cls-92">S</tspan><tspan x="1.46" y="0">imp</tspan><tspan class="cls-45" x="4.96" y="0">l</tspan><tspan x="5.48" y="0">y mark </tspan><tspan class="cls-29" x="12.73" y="0">t</tspan><tspan x="13.36" y="0">he o</tspan><tspan class="cls-23" x="17.66" y="0">b</tspan><tspan x="18.92" y="0">ject </tspan><tspan class="cls-22" x="23.11" y="0">y</tspan><tspan x="24.15" y="0">ou </tspan><tspan class="cls-26" x="27.26" y="0">w</tspan><tspan x="28.76" y="0">ant </tspan><tspan class="cls-37" x="32.42" y="0">t</tspan><tspan x="33.02" y="0">o </tspan><tspan class="cls-93" x="34.93" y="0">k</tspan><tspan x="36.03" y="0">eep </tspan><tspan class="cls-92" x="40.33" y="0">w</tspan><tspan x="41.86" y="0">i</tspan><tspan class="cls-29" x="42.36" y="0">t</tspan><tspan x="42.99" y="0">h some </tspan><tspan class="cls-94" x="50.79" y="0">g</tspan><tspan class="cls-95" x="52.03" y="0">r</tspan><tspan x="52.79" y="0">een </tspan><tspan x="0" y="4.67">and </tspan><tspan class="cls-29" x="4.32" y="4.67">t</tspan><tspan x="4.95" y="4.67">he bac</tspan><tspan class="cls-96" x="11.64" y="4.67">k</tspan><tspan class="cls-41" x="12.72" y="4.67">g</tspan><tspan class="cls-24" x="13.95" y="4.67">r</tspan><tspan x="14.71" y="4.67">ound </tspan><tspan class="cls-22" x="20.3" y="4.67">y</tspan><tspan x="21.34" y="4.67">ou </tspan><tspan class="cls-26" x="24.46" y="4.67">w</tspan><tspan x="25.96" y="4.67">ant </tspan><tspan class="cls-37" x="29.62" y="4.67">t</tspan><tspan x="30.22" y="4.67">o </tspan><tspan class="cls-95" x="32.12" y="4.67">r</tspan><tspan x="32.89" y="4.67">em</tspan><tspan class="cls-97" x="35.81" y="4.67">o</tspan><tspan class="cls-26" x="37.02" y="4.67">v</tspan><tspan x="38" y="4.67">e </tspan><tspan class="cls-35" x="39.86" y="4.67">w</tspan><tspan x="41.38" y="4.67">i</tspan><tspan class="cls-38" x="41.89" y="4.67">t</tspan><tspan x="42.52" y="4.67">h some </tspan><tspan class="cls-42" x="50.32" y="4.67">r</tspan><tspan x="51.08" y="4.67">e</tspan><tspan class="cls-98" x="52.27" y="4.67">d</tspan><tspan x="53.55" y="4.67">. </tspan><tspan x="0" y="9.34">Our sma</tspan><tspan class="cls-99" x="8.33" y="9.34">r</tspan><tspan x="9.17" y="9.34">t algori</tspan><tspan class="cls-29" x="15.88" y="9.34">t</tspan><tspan x="16.51" y="9.34">hm </tspan><tspan class="cls-100" x="20.13" y="9.34">t</tspan><tspan x="20.76" y="9.34">a</tspan><tspan class="cls-25" x="21.93" y="9.34">k</tspan><tspan x="23.03" y="9.34">es ca</tspan><tspan class="cls-42" x="28.34" y="9.34">r</tspan><tspan x="29.1" y="9.34">e of </tspan><tspan class="cls-29" x="33.46" y="9.34">t</tspan><tspan x="34.09" y="9.34">he de</tspan><tspan class="cls-100" x="39.6" y="9.34">t</tspan><tspan x="40.23" y="9.34">ails and le</tspan><tspan class="cls-41" x="50.18" y="9.34">t</tspan><tspan x="50.8" y="9.34">s </tspan><tspan class="cls-101" x="52.56" y="9.34">y</tspan><tspan x="53.6" y="9.34">ou </tspan><tspan class="cls-42" x="0" y="14.01">r</tspan><tspan x="0.76" y="14.01">em</tspan><tspan class="cls-24" x="3.69" y="14.01">o</tspan><tspan class="cls-26" x="4.9" y="14.01">v</tspan><tspan x="5.88" y="14.01">e </tspan><tspan class="cls-22" x="7.73" y="14.01">y</tspan><tspan x="8.78" y="14.01">our bac</tspan><tspan class="cls-96" x="16.3" y="14.01">k</tspan><tspan class="cls-41" x="17.38" y="14.01">g</tspan><tspan class="cls-97" x="18.61" y="14.01">r</tspan><tspan x="19.37" y="14.01">ound </tspan><tspan class="cls-92" x="24.96" y="14.01">w</tspan><tspan x="26.48" y="14.01">i</tspan><tspan class="cls-29" x="26.99" y="14.01">t</tspan><tspan x="27.62" y="14.01">h </tspan><tspan class="cls-23" x="29.5" y="14.01">e</tspan><tspan class="cls-27" x="30.68" y="14.01">as</tspan><tspan class="cls-102" x="32.94" y="14.01">e!</tspan></text><text class="cls-21" transform="translate(91.22 152.41)">Use l<tspan class="cls-45" x="4.98" y="0">i</tspan><tspan class="cls-33" x="5.5" y="0">v</tspan><tspan x="6.47" y="0">e p</tspan><tspan class="cls-95" x="9.59" y="0">r</tspan><tspan class="cls-44" x="10.35" y="0">e</tspan><tspan class="cls-35" x="11.53" y="0">v</tspan><tspan x="12.53" y="0">iew </tspan><tspan class="cls-23" x="16.4" y="0">t</tspan><tspan x="17.01" y="0">o e</tspan><tspan class="cls-30" x="20.1" y="0">f</tspan><tspan class="cls-103" x="20.76" y="0">f</tspan><tspan x="21.36" y="0">icient</tspan><tspan class="cls-45" x="26.57" y="0">l</tspan><tspan x="27.09" y="0">y </tspan><tspan class="cls-23" x="28.83" y="0">t</tspan><tspan x="29.43" y="0">ouch up </tspan><tspan class="cls-29" x="38.09" y="0">t</tspan><tspan x="38.72" y="0">he clip bounda</tspan><tspan class="cls-30" x="53.27" y="0">r</tspan><tspan class="cls-104" x="54.12" y="0">y</tspan><tspan x="55.11" y="0">. </tspan><tspan class="cls-98" x="0" y="4.67">T</tspan><tspan x="1.21" y="4.67">he ins</tspan><tspan class="cls-100" x="7.08" y="4.67">t</tspan><tspan x="7.71" y="4.67">ant </tspan><tspan class="cls-44" x="11.37" y="4.67">f</tspan><tspan x="11.95" y="4.67">eedback le</tspan><tspan class="cls-41" x="22.72" y="4.67">t</tspan><tspan x="23.33" y="4.67">s </tspan><tspan class="cls-22" x="25.1" y="4.67">y</tspan><tspan x="26.14" y="4.67">ou get it just ri</tspan><tspan class="cls-41" x="40.14" y="4.67">g</tspan><tspan x="41.38" y="4.67">ht </tspan><tspan class="cls-105" x="43.87" y="4.67">f</tspan><tspan class="cls-106" x="44.45" y="4.67">ast</tspan><tspan x="47.19" y="4.67">.</tspan></text><text class="cls-21" transform="translate(161.62 152.22)"><tspan class="cls-23">A</tspan><tspan x="1.37" y="0">djust </tspan><tspan class="cls-29" x="6.75" y="0">t</tspan><tspan x="7.38" y="0">he color</tspan><tspan class="cls-40" x="15.39" y="0">s</tspan><tspan x="16.51" y="0">, add d</tspan><tspan class="cls-24" x="23.35" y="0">r</tspan><tspan x="24.11" y="0">op shadow</tspan><tspan class="cls-40" x="34.76" y="0">s</tspan><tspan x="35.87" y="0">, and c</tspan><tspan class="cls-97" x="42.58" y="0">r</tspan><tspan x="43.34" y="0">op </tspan><tspan class="cls-38" x="46.51" y="0">t</tspan><tspan x="47.14" y="0">he im</tspan><tspan class="cls-97" x="52.45" y="0">a</tspan><tspan class="cls-107" x="53.6" y="0">ge </tspan><tspan class="cls-23" x="0" y="4.67">t</tspan><tspan x="0.6" y="4.67">o c</tspan><tspan class="cls-42" x="3.69" y="4.67">r</tspan><tspan class="cls-23" x="4.46" y="4.67">e</tspan><tspan class="cls-108" x="5.63" y="4.67">a</tspan><tspan class="cls-23" x="6.8" y="4.67">t</tspan><tspan x="7.4" y="4.67">e a </tspan><tspan class="cls-29" x="11.1" y="4.67">t</tspan><tspan x="11.73" y="4.67">ru</tspan><tspan class="cls-45" x="13.72" y="4.67">l</tspan><tspan x="14.24" y="4.67">y p</tspan><tspan class="cls-24" x="17.25" y="4.67">r</tspan><tspan x="18.01" y="4.67">o</tspan><tspan class="cls-44" x="19.24" y="4.67">f</tspan><tspan x="19.82" y="4.67">e</tspan><tspan class="cls-109" x="21.01" y="4.67">s</tspan><tspan x="22.12" y="4.67">sional </tspan><tspan class="cls-95" x="28.5" y="4.67">r</tspan><tspan x="29.27" y="4.67">esul</tspan><tspan class="cls-29" x="33.26" y="4.67">t</tspan><tspan x="33.89" y="4.67">!</tspan></text><text class="cls-90" transform="translate(91.18 144.95)">P<tspan class="cls-91" x="4.1" y="0">r</tspan><tspan class="cls-110" x="6.65" y="0">e</tspan><tspan class="cls-111" x="10.39" y="0">v</tspan><tspan x="13.63" y="0">i</tspan><tspan class="cls-112" x="15.42" y="0">e</tspan><tspan x="19.2" y="0">w </tspan></text><text class="cls-90" transform="translate(161.81 144.95)">J<tspan class="cls-113" x="3.49" y="0">a</tspan><tspan class="cls-114" x="7.25" y="0">zz it </tspan><tspan class="cls-111" x="21.62" y="0">U</tspan><tspan x="26.2" y="0">p</tspan></text><text class="cls-115" transform="translate(21.12 175.32)">Ba<tspan class="cls-116" x="2.71" y="0">c</tspan><tspan class="cls-117" x="3.92" y="0">k</tspan><tspan class="cls-92" x="5.08" y="0">g</tspan><tspan class="cls-36" x="6.41" y="0">round Rem</tspan><tspan class="cls-95" x="17.69" y="0">ov</tspan><tspan x="20.05" y="0">al </tspan><tspan class="cls-45" x="22.57" y="0">T</tspan><tspan x="23.85" y="0">ips and </tspan><tspan class="cls-118" x="32.05" y="0">T</tspan><tspan class="cls-108" x="33.18" y="0">ri</tspan><tspan class="cls-45" x="34.63" y="0">c</tspan><tspan class="cls-119" x="35.84" y="0">k</tspan><tspan x="37.04" y="0">s </tspan><tspan class="cls-120" x="38.84" y="0">»</tspan></text><text class="cls-115" transform="translate(91.37 168.16)">Re<tspan class="cls-98" x="2.72" y="0">f</tspan><tspan x="3.44" y="0">ine </tspan><tspan class="cls-121" x="7.24" y="0">E</tspan><tspan class="cls-122" x="8.61" y="0">d</tspan><tspan class="cls-32" x="9.92" y="0">g</tspan><tspan class="cls-123" x="11.24" y="0">e </tspan><tspan class="cls-124" x="13.18" y="0">T</tspan><tspan x="14.46" y="0">ips and </tspan><tspan class="cls-125" x="22.66" y="0">T</tspan><tspan class="cls-36" x="23.8" y="0">ri</tspan><tspan class="cls-45" x="25.24" y="0">c</tspan><tspan class="cls-119" x="26.46" y="0">k</tspan><tspan class="cls-123" x="27.66" y="0">s </tspan><tspan class="cls-120" x="29.46" y="0">»</tspan></text><text class="cls-115" transform="translate(161.66 163.37)"><tspan class="cls-126">L</tspan><tspan class="cls-37" x="1.26" y="0">e</tspan><tspan x="2.52" y="0">arn how to add Drop </tspan><tspan class="cls-127" x="24.35" y="0">S</tspan><tspan x="25.8" y="0">hado</tspan><tspan class="cls-92" x="30.93" y="0">w</tspan><tspan x="32.54" y="0">s </tspan><tspan class="cls-120" x="34.34" y="0">»</tspan></text><text class="cls-70" transform="translate(93.24 32)"><tspan xml:space="preserve"> Rem</tspan><tspan class="cls-14" x="6.83" y="0">o</tspan><tspan class="cls-81" x="8.47" y="0">v</tspan><tspan x="9.8" y="0">e </tspan><tspan class="cls-128" x="12.34" y="0">Y</tspan><tspan x="13.92" y="0">our Ba</tspan><tspan class="cls-79" x="22.78" y="0">c</tspan><tspan class="cls-129" x="24.4" y="0">k</tspan><tspan class="cls-40" x="25.87" y="0">g</tspan><tspan class="cls-130" x="27.54" y="0">r</tspan><tspan class="cls-131" x="28.59" y="0">ound </tspan><tspan class="cls-132" x="36.19" y="0">w</tspan><tspan x="38.25" y="0">i</tspan><tspan class="cls-74" x="38.95" y="0">t</tspan><tspan x="39.82" y="0">h Just a </tspan><tspan class="cls-133" x="51.27" y="0">F</tspan><tspan class="cls-73" x="52.9" y="0">e</tspan><tspan x="54.5" y="0">w Cli</tspan><tspan class="cls-71" x="60.95" y="0">c</tspan><tspan class="cls-134" x="62.57" y="0">k</tspan><tspan class="cls-77" x="64.08" y="0">s</tspan></text><polygon class="cls-84" points="80.25 332.03 71.69 346.86 88.81 346.86 80.25 332.03"/><circle class="cls-84" cx="89.97" cy="348.83" r="8.97"/><polygon class="cls-4" points="44.67 366.97 41.23 372.93 48.11 372.93 44.67 366.97"/><circle class="cls-4" cx="48.58" cy="373.72" r="3.6"/></g></g></svg>