<svg xmlns="http://www.w3.org/2000/svg" xmlns:xlink="http://www.w3.org/1999/xlink" viewBox="0 0 190.29 310.76"><defs><style>.cls-1,.cls-11,.cls-3,.cls-5,.cls-6,.cls-9{fill:none;}.cls-2{fill:#05f;}.cls-12,.cls-14,.cls-3,.cls-5,.cls-6{stroke:#000;}.cls-3,.cls-6{stroke-linecap:round;}.cls-11,.cls-12,.cls-14,.cls-3,.cls-5,.cls-9{stroke-miterlimit:10;}.cls-3{opacity:0.05;}.cls-14,.cls-4{fill:#fff;}.cls-5,.cls-6{stroke-width:0.68px;}.cls-6{stroke-linejoin:round;}.cls-7{fill:#666;}.cls-8{fill:#1a1a1a;}.cls-11,.cls-9{stroke:#1a1e25;}.cls-9{stroke-width:0.6px;}.cls-10{fill:#1474ff;}.cls-11{stroke-width:0.68px;}.cls-12{stroke-width:0.68px;fill:url(#New_Pattern_4);}.cls-13{fill:#c0392b;}.cls-14{stroke-width:0.63px;}.cls-15{fill:#39b34a;}.cls-16{opacity:0.73;}</style><pattern id="New_Pattern_4" data-name="New Pattern 4" width="12" height="12" patternTransform="translate(23.04 3.64) scale(0.55)" patternUnits="userSpaceOnUse" viewBox="0 0 12 12"><rect class="cls-1" width="12" height="12"/><circle class="cls-2" cx="12" cy="9" r="0.5"/><circle class="cls-2" cx="6" cy="12" r="0.5"/><circle class="cls-2" cy="9" r="0.5"/><circle class="cls-2" cx="12" cy="3" r="0.5"/><circle class="cls-2" cx="6" cy="6" r="0.5"/><circle class="cls-2" cy="3" r="0.5"/><circle class="cls-2" cx="6" r="0.5"/></pattern></defs><title>wireframe-mobile-japanese</title><g id="Layer_2" data-name="Layer 2"><g id="Layer_1-2" data-name="Layer 1"><line class="cls-3" x1="29.83" y1="223.6" x2="29.83" y2="239.76"/><rect class="cls-4" width="190.29" height="310.76"/><line class="cls-5" y1="68.75" x2="190.29" y2="68.75"/><rect x="14.82" y="28.03" width="10.18" height="10.18" rx="0.53" ry="0.53"/><rect class="cls-4" x="19.91" y="28.82" width="4.31" height="4.31"/><rect class="cls-4" x="15.61" y="33.13" width="4.31" height="4.31"/><path class="cls-2" d="M33.43,32.94a.62.62,0,0,0-.66-.5c-.54,0-.85.4-.85,1.09s.31,1.09.83,1.09a.64.64,0,0,0,.69-.58h.78a1.33,1.33,0,0,1-1.45,1.2,1.55,1.55,0,0,1-1.59-1.71,1.54,1.54,0,0,1,1.59-1.71,1.29,1.29,0,0,1,1.42,1.12Z"/><path class="cls-2" d="M36.66,34.54h1.61v.63H35.93V31.89h.73Z"/><path class="cls-2" d="M40.64,35.17H39.9V31.89h.74Z"/><path class="cls-2" d="M43.29,35.17h-.74V31.89h1.29a1.24,1.24,0,0,1,.9.25,1.13,1.13,0,0,1,.35.86,1,1,0,0,1-.28.75,1,1,0,0,1-.83.3h-.69Zm.58-1.75a.45.45,0,1,0,0-.9h-.58v.9Z"/><path class="cls-2" d="M47.51,35.17h-.74V31.89h1.29a1.26,1.26,0,0,1,.9.25,1.13,1.13,0,0,1,.35.86,1,1,0,0,1-.28.75,1,1,0,0,1-.83.3h-.69Zm.58-1.75a.45.45,0,1,0,0-.9h-.58v.9Z"/><path class="cls-2" d="M51.73,35.17H51V31.89h.74Z"/><path class="cls-2" d="M55.57,35.17l-.93-1.68-.33-.64v.4c0,.17,0,.37,0,.57v1.35h-.67V31.89h.76l.91,1.63.33.67c0-.14,0-.23,0-.32v-2h.67v3.28Z"/><path class="cls-2" d="M61.11,33.36v1.81h-.44l-.1-.42a1,1,0,0,1-1,.49,1.48,1.48,0,0,1-1.5-1.69,1.56,1.56,0,0,1,1.59-1.73,1.36,1.36,0,0,1,1.41,1.06l-.71,0a.66.66,0,0,0-.7-.49c-.53,0-.86.4-.86,1.06s.32,1.13.86,1.13a.77.77,0,0,0,.8-.67h-.8v-.6Z"/><path class="cls-2" d="M67.35,35.17l-.77-2c-.08-.25-.16-.46-.22-.68,0,.25,0,.52,0,.72v1.93H66V31.89h.57l.82,2.1c.1.28.11.32.19.58.1-.3.14-.4.2-.57l.81-2.09h.57v3.26h-.44V33.24q0-.33,0-.72c-.08.27-.14.46-.24.72l-.75,1.93Z"/><path class="cls-2" d="M71.85,34.19l-.34,1H71l1.2-3.28h.5l1.21,3.28h-.51l-.34-1Zm.62-1.79L72,33.79h1Z"/><path class="cls-2" d="M78.64,33.41v1.76h-.35l0-.55A1.07,1.07,0,0,1,78,35a1.27,1.27,0,0,1-.76.23,1.54,1.54,0,0,1-1.49-1.71,1.55,1.55,0,0,1,1.55-1.71,1.25,1.25,0,0,1,1.34,1.07h-.47a.82.82,0,0,0-.88-.66c-.64,0-1,.49-1,1.26s.43,1.34,1.07,1.34a.87.87,0,0,0,.8-.47,1.27,1.27,0,0,0,.12-.57h-1v-.38Z"/><path class="cls-2" d="M81.29,35.17h-.47V31.89h.47Z"/><path class="cls-2" d="M85.8,32.92a.86.86,0,0,0-.88-.69c-.63,0-1,.51-1,1.28s.41,1.32,1,1.32a.94.94,0,0,0,.94-.91h.47a1.46,1.46,0,0,1-.28.76,1.31,1.31,0,0,1-1.14.56,1.33,1.33,0,0,1-1.15-.56,1.91,1.91,0,0,1-.36-1.16,1.55,1.55,0,0,1,1.53-1.7,1.28,1.28,0,0,1,1.34,1Z"/><path d="M138,4.31h-.05a4.37,4.37,0,0,0-1.21-.17,4.42,4.42,0,0,0-1.21.17h0a4.46,4.46,0,1,0,2.51,0Zm1.89,6.57a7,7,0,0,0-.88-.3,8.91,8.91,0,0,0,.23-1.71h1.39A3.81,3.81,0,0,1,139.86,10.88ZM137,12.47V10.83a7.72,7.72,0,0,1,1.28.15,7.26,7.26,0,0,1-.59,1.38A3.11,3.11,0,0,1,137,12.47Zm-1.25-.11a8.53,8.53,0,0,1-.59-1.39,9.11,9.11,0,0,1,1.28-.14v1.64A3.3,3.3,0,0,1,135.74,12.36Zm-2.91-3.49h1.38a8.2,8.2,0,0,0,.24,1.71,7.16,7.16,0,0,0-.89.3A3.8,3.8,0,0,1,132.83,8.87Zm.73-2.58a9.37,9.37,0,0,0,.89.31,8.2,8.2,0,0,0-.24,1.71h-1.38A3.87,3.87,0,0,1,133.56,6.29Zm2.87-1.59V6.34a6.87,6.87,0,0,1-1.28-.14,8.92,8.92,0,0,1,.59-1.39A5.5,5.5,0,0,1,136.43,4.7Zm1.25.11a7.34,7.34,0,0,1,.59,1.39,6.87,6.87,0,0,1-1.28.14V4.7A5,5,0,0,1,137.68,4.81ZM137,6.9a7.65,7.65,0,0,0,1.44-.16,7.52,7.52,0,0,1,.22,1.57H137Zm-.56,0V8.31h-1.65A8.24,8.24,0,0,1,135,6.74,7.74,7.74,0,0,0,136.43,6.9Zm-1.65,2h1.65v1.4a8.71,8.71,0,0,0-1.44.17A8.35,8.35,0,0,1,134.78,8.87Zm2.21,1.4V8.87h1.66a7.61,7.61,0,0,1-.22,1.57A8.58,8.58,0,0,0,137,10.27Zm2.22-2A8.91,8.91,0,0,0,139,6.6a9.18,9.18,0,0,0,.88-.31,3.88,3.88,0,0,1,.74,2Zm.27-2.47c-.21.08-.43.16-.65.22a8,8,0,0,0-.38-1A3.81,3.81,0,0,1,139.48,5.84ZM135,5.1a7.93,7.93,0,0,0-.37,1c-.22-.06-.44-.14-.66-.22A4,4,0,0,1,135,5.1Zm-1,6.23.66-.21a8.48,8.48,0,0,0,.37,1A4,4,0,0,1,133.94,11.33Zm4.52.74c.14-.31.26-.63.37-1,.22.06.43.13.65.21A3.92,3.92,0,0,1,138.46,12.07Z"/><polyline class="cls-6" points="179.53 8.05 177.41 10.16 175.3 8.05"/><path class="cls-2" d="M147.42,5.14h4.94v6.41h-.53v-.46H148v.51h-.53Zm4.41.52H148V7.84h3.88ZM148,10.58h3.88V8.35H148Z"/><path class="cls-2" d="M161,6.82H158.2a7.05,7.05,0,0,0,3,3.2,2.38,2.38,0,0,0-.39.45,7.65,7.65,0,0,1-3-3.24V9.72h1.53v.52h-1.53v1.48h-.53V10.24h-1.55V9.72h1.55V7.24a8.23,8.23,0,0,1-3,3.25,2.47,2.47,0,0,0-.37-.42,7.47,7.47,0,0,0,3-3.25h-2.75V6.3h3.08V4.65l.68,0s0,.09-.15.11V6.3H161Z"/><path class="cls-2" d="M161.83,6.38V6h2.79v.43Zm2.55,2.73v2.24h-1.75v.36h-.45V9.11Zm0-2.1v.42h-2.17V7Zm-2.17,1.47V8.06h2.17v.42Zm2.14-3.56v.42h-2.1V4.92Zm-.41,4.63h-1.29v1.37h1.29Zm4.31-1.69H169v.46h-4.34V7.86h1c.07-.34.14-.73.22-1.15h-.84V6.25H166c0-.29.09-.58.13-.85h-1.2V4.94h3.78V5.4h-2.08l-.13.85h1.74Zm-3,3.87V9h3.2v2.73H168v-.3h-2.22v.35ZM168,9.42h-2.22V10.9H168Zm-.23-2.71h-1.32c-.07.41-.14.81-.21,1.15h1.53Z"/><path class="cls-2" d="M64.27,5.76H65V7.58a1.52,1.52,0,0,1,1.17-.52c1,0,1.58.76,1.58,1.92s-.62,2-1.6,2A1.45,1.45,0,0,1,65,10.43v.41h-.7ZM64.94,9c0,.88.37,1.37,1,1.37S67,9.86,67,9s-.37-1.35-1-1.35S64.94,8.14,64.94,9Z"/><path class="cls-2" d="M68.7,8.38a1.43,1.43,0,0,1,.3-.9,1.64,1.64,0,0,1,1.2-.42c.91,0,1.43.44,1.43,1.2V10c0,.29,0,.35.19.35a.5.5,0,0,0,.19,0v.54a1.9,1.9,0,0,1-.46.05c-.33,0-.49-.14-.55-.49a1.7,1.7,0,0,1-1.27.54,1.09,1.09,0,0,1-1.2-1.09c0-.59.36-1,1.11-1.11l.81-.16c.45-.09.54-.15.54-.38s-.32-.58-.81-.58a.79.79,0,0,0-.74.31,1,1,0,0,0-.08.45ZM71,9l-.43.14-.72.17c-.42.1-.61.27-.61.56s.27.56.68.56a1,1,0,0,0,1.08-1Z"/><path class="cls-2" d="M73.51,7.16v.58a1.89,1.89,0,0,1,.3-.39,1,1,0,0,1,.65-.29.86.86,0,0,1,.39.09v.64a1.39,1.39,0,0,0-.32,0,1.06,1.06,0,0,0-1,1.16v1.93h-.7V7.16Z"/><path class="cls-2" d="M75.63,8.38a1.38,1.38,0,0,1,.3-.9,1.6,1.6,0,0,1,1.19-.42c.92,0,1.43.44,1.43,1.2V10c0,.29,0,.35.2.35a.45.45,0,0,0,.18,0v.54a1.82,1.82,0,0,1-.45.05c-.34,0-.49-.14-.55-.49a1.71,1.71,0,0,1-1.27.54,1.1,1.1,0,0,1-1.21-1.09c0-.59.37-1,1.12-1.11l.81-.16c.44-.09.53-.15.53-.38s-.31-.58-.8-.58a.79.79,0,0,0-.74.31.92.92,0,0,0-.09.45Zm2.3.57a3.88,3.88,0,0,1-.44.14l-.71.17c-.43.1-.62.27-.62.56s.28.56.69.56a1,1,0,0,0,1.08-1Z"/><path class="cls-2" d="M79.76,5.76h.7V7.58a1.54,1.54,0,0,1,1.18-.52c1,0,1.58.76,1.58,1.92s-.63,2-1.61,2a1.47,1.47,0,0,1-1.15-.51v.41h-.7ZM80.44,9c0,.88.37,1.37,1,1.37s1-.49,1-1.35-.37-1.35-1-1.35S80.44,8.14,80.44,9Z"/><path class="cls-2" d="M87.31,7.16l-1.63,4.12a.93.93,0,0,1-.92.72,1.59,1.59,0,0,1-.57-.11v-.57a1.14,1.14,0,0,0,.44.1.51.51,0,0,0,.51-.38l.1-.29L83.72,7.16h.75l.82,2.1c.12.32.14.38.27.78.09-.27.21-.65.25-.78l.76-2.1Z"/><path class="cls-2" d="M92.41,9.56A2.45,2.45,0,0,1,90.2,10.9a2.5,2.5,0,0,1-2.51-2.52,2.53,2.53,0,0,1,2.55-2.55A2.16,2.16,0,0,1,92.5,7.92a1.75,1.75,0,0,1-.66,1.41,1.55,1.55,0,0,1-.93.38.46.46,0,0,1-.51-.39,1.12,1.12,0,0,1-.82.39.84.84,0,0,1-.82-.93A1.74,1.74,0,0,1,90.2,7a.73.73,0,0,1,.7.46L91,7.14h.4l-.61,1.79a.94.94,0,0,0-.06.31c0,.15.1.24.27.24a1.14,1.14,0,0,0,.73-.38,1.64,1.64,0,0,0,.47-1.17,1.89,1.89,0,0,0-2-1.84,2.27,2.27,0,0,0,0,4.54,2.18,2.18,0,0,0,1.88-1.07ZM90.65,8.17a1.14,1.14,0,0,0,.1-.4.47.47,0,0,0-.45-.5c-.53,0-1.1.84-1.1,1.64,0,.35.18.57.45.57a.76.76,0,0,0,.52-.24,1.66,1.66,0,0,0,.31-.59Z"/><path class="cls-2" d="M95.94,8.41A.88.88,0,0,0,95,7.65c-.67,0-1.12.53-1.12,1.34s.44,1.36,1.12,1.36a.91.91,0,0,0,1-.89h.67A1.54,1.54,0,0,1,95,10.94,1.77,1.77,0,0,1,93.18,9,1.77,1.77,0,0,1,95,7.06,1.46,1.46,0,0,1,96.6,8.41Z"/><path class="cls-2" d="M98.24,10.84h-.7V5.76h.7Z"/><path class="cls-2" d="M100.19,10.84,98.93,7.16h.74l.63,2c.07.24.2.69.29,1a.66.66,0,0,1,0-.15l.06-.28.17-.58.63-2h.74L101,10.84Z"/><path class="cls-2" d="M103.71,10.84h-.79v-.76h.79Z"/><path class="cls-2" d="M107.46,8.41a.88.88,0,0,0-.93-.76c-.67,0-1.12.53-1.12,1.34s.44,1.36,1.12,1.36a.92.92,0,0,0,1-.89h.66a1.53,1.53,0,0,1-1.65,1.48A1.76,1.76,0,0,1,104.71,9a1.77,1.77,0,0,1,1.83-1.94,1.45,1.45,0,0,1,1.58,1.35Z"/><path class="cls-2" d="M112.42,9a1.78,1.78,0,1,1-3.54,0,1.78,1.78,0,1,1,3.54,0Zm-2.83,0c0,.86.39,1.35,1.07,1.35s1.06-.49,1.06-1.33-.38-1.37-1.07-1.37S109.59,8.14,109.59,9Z"/><path class="cls-2" d="M114.07,7.16v.47a1.08,1.08,0,0,1,1-.57.89.89,0,0,1,1,.62,1.19,1.19,0,0,1,1.12-.62,1.12,1.12,0,0,1,.9.38,1.34,1.34,0,0,1,.24.9v2.5h-.7V8.4c0-.48-.2-.71-.61-.71s-.78.35-.78.91v2.24h-.7V8.33a.56.56,0,0,0-.61-.64.77.77,0,0,0-.77.87v2.28h-.71V7.16Z"/><line class="cls-5" y1="47.85" x2="190.29" y2="47.85"/><path class="cls-7" d="M15.63,256.49v-.85a4.25,4.25,0,0,1-1.2,1,1.27,1.27,0,0,0-.24-.33,3.45,3.45,0,0,0,1.33-1.11H14.23v-.37h1.4v-1.25l.54,0a.11.11,0,0,1-.12.08v1.14h1.38v.37H16.05v.15c.26.16,1,.61,1.14.74l-.26.32a9.29,9.29,0,0,0-.88-.7v.77Zm1.83,1h-.59a3.08,3.08,0,0,1-.46,1,5.47,5.47,0,0,1,.75.46l-.29.33a6,6,0,0,0-.74-.48,3.72,3.72,0,0,1-1.62.78,1.41,1.41,0,0,0-.21-.38,3.25,3.25,0,0,0,1.44-.6c-.25-.13-.5-.24-.76-.35l-.13.24-.38-.15c.14-.24.32-.56.49-.89h-.74v-.39h.93c.11-.21.21-.43.3-.62l.51.11c0,.05-.06.07-.14.06s-.14.3-.22.45h1.86Zm-2.62-3.75a3.88,3.88,0,0,1,.46.87l-.35.16a4,4,0,0,0-.44-.88Zm.57,3.75-.25.48c.29.11.59.24.87.37a2.32,2.32,0,0,0,.41-.85Zm.92-2.88a7.08,7.08,0,0,0,.53-.88l.45.2s-.07.06-.13,0a5.9,5.9,0,0,1-.55.79Zm4,.59h-.44a7.55,7.55,0,0,1-.82,2.69,3.17,3.17,0,0,0,1.31,1.35,2.24,2.24,0,0,0-.31.38,3.63,3.63,0,0,1-1.27-1.31,4,4,0,0,1-1.59,1.31,2.12,2.12,0,0,0-.24-.37,3.61,3.61,0,0,0,1.6-1.38,8.73,8.73,0,0,1-.62-1.89,4.17,4.17,0,0,1-.42.79,1.48,1.48,0,0,0-.33-.28,7.86,7.86,0,0,0,1-2.94l.56.12c0,.05-.06.07-.15.07-.06.35-.14.7-.23,1h2Zm-2.09,0,0,.06a9,9,0,0,0,.61,2.15,7.7,7.7,0,0,0,.62-2.21Z"/><path class="cls-7" d="M21.26,254h5.4v5.62h-.45v-.45H21.7v.45h-.44Zm.44,4.74h4.51v-4.3H21.7Zm1-3.28h2.47v2.22H22.7Zm2.05,1.85v-1.47H23.1v1.47Z"/><path class="cls-7" d="M31,254.77a.17.17,0,0,1-.16.1c-.24,2-.92,3.8-2,3.8-.55,0-1.05-.55-1.05-1.58a2.87,2.87,0,0,1,2.94-2.88,2.42,2.42,0,0,1,2.7,2.47c0,1.56-.9,2.31-2.48,2.67a3.53,3.53,0,0,0-.27-.4c1.5-.28,2.27-1,2.27-2.25a2,2,0,0,0-2.22-2.06l-.2,0Zm-.63-.09a2.41,2.41,0,0,0-2.13,2.4c0,.7.3,1.14.61,1.14C29.65,258.22,30.22,256.47,30.38,254.68Z"/><path class="cls-7" d="M39.6,255a.28.28,0,0,1-.1.09,6.85,6.85,0,0,1-3.56,4.39,1.83,1.83,0,0,0-.33-.36,6.12,6.12,0,0,0,3.31-3.86H36.59a6.77,6.77,0,0,1-1.47,1.61,3,3,0,0,0-.37-.3,6.59,6.59,0,0,0,2.08-2.83l.62.17c0,.07-.1.09-.19.09-.13.28-.26.56-.41.82h2.3l.07,0Z"/><path class="cls-7" d="M42.24,257.37V254.2l.62,0q0,.09-.15.12v3Zm3.64-3.43c0,.07-.05.1-.16.12v2.07a3.26,3.26,0,0,1-2.34,3.35,2.77,2.77,0,0,0-.34-.35,2.9,2.9,0,0,0,2.21-3v-2.22Z"/><path class="cls-7" d="M48.9,255.51a7,7,0,0,1,.49,1.41L49,257a7.43,7.43,0,0,0-.48-1.39Zm3.9.05c0,.06-.08.07-.14.06a5,5,0,0,1-3,3.72,1.73,1.73,0,0,0-.25-.3,4.61,4.61,0,0,0,2.93-3.63Zm-2.31-.36a9.09,9.09,0,0,1,.31,1.48l-.39.07a7.58,7.58,0,0,0-.31-1.47Z"/><path class="cls-7" d="M59.66,255a.28.28,0,0,1-.1.09A6.82,6.82,0,0,1,56,259.48a1.83,1.83,0,0,0-.33-.36A6.12,6.12,0,0,0,59,255.26H56.65a6.73,6.73,0,0,1-1.46,1.61,4.2,4.2,0,0,0-.38-.3,6.69,6.69,0,0,0,2.09-2.83l.62.17a.19.19,0,0,1-.19.09c-.13.28-.27.56-.42.82h2.3l.08,0Z"/><path class="cls-7" d="M61.34,254.46c.49,0,4.51-.31,5.36-.31v.49h-.25a1.94,1.94,0,0,0-1.11.33,3.69,3.69,0,0,0-1.93,2.49c0,.91.64,1.45,2.26,1.66l-.22.46c-1.85-.27-2.54-1-2.54-2.12a4,4,0,0,1,2.1-2.79c-.72.05-2.64.19-3.49.27a.22.22,0,0,1-.14.11Zm4.23,1.29a5,5,0,0,1,.89.9l-.25.2a4.35,4.35,0,0,0-.86-.91Zm.7-.58a4.45,4.45,0,0,1,.89.9l-.25.2a4.25,4.25,0,0,0-.86-.9Z"/><path class="cls-7" d="M69,256.19v2.15c.51.78,1.47.78,2.69.78.72,0,1.56,0,2.07-.05a1.45,1.45,0,0,0-.14.43c-.45,0-1.17,0-1.81,0-1.44,0-2.34,0-3-.81-.3.29-.61.58-.86.8a.1.1,0,0,1,0,.11l-.26-.47c.28-.21.62-.49.93-.77v-1.78h-.86v-.42Zm-.87-2.45a5.27,5.27,0,0,1,1.08,1.09l-.36.28A4.61,4.61,0,0,0,67.83,254Zm5.56,1.43H72.09a4.36,4.36,0,0,0,1.75,1.12,1.35,1.35,0,0,0-.26.33,4.66,4.66,0,0,1-1.77-1.28v1h-.42v-1a5.25,5.25,0,0,1-1.82,1.33,1.18,1.18,0,0,0-.27-.32,4.65,4.65,0,0,0,1.79-1.19H69.51v-.36h1.88v-.52c-.51.05-1,.09-1.52.11a1.92,1.92,0,0,0-.11-.31A22.58,22.58,0,0,0,73,253.7l.34.31-.08,0h-.05a11.93,11.93,0,0,1-1.43.23v.56h1.92ZM72,257.6c.06-.24.12-.53.17-.78h-.85a2.12,2.12,0,0,1-1.51,1.92,1,1,0,0,0-.25-.33,1.8,1.8,0,0,0,1.35-1.59H70v-.35h2.22l.08,0,.24.08a.38.38,0,0,1,0,.1c0,.12,0,.29-.09.46h.83l.23.05,0,.12c-.14,1.37-.27,1.41-.92,1.41l-.59,0a1,1,0,0,0-.11-.35c.32,0,.65,0,.76,0a.28.28,0,0,0,.22-.06c.09-.07.15-.31.21-.84h-.69a1.74,1.74,0,0,1,0,.22Z"/><path class="cls-7" d="M76.82,257.92H75.09v.63h-.41V254h2.14Zm-.41-3.52H75.09v1.32h1.32Zm-1.32,3.12h1.32v-1.39H75.09Zm5.17-3.65V259c0,.29-.07.44-.28.51a4.22,4.22,0,0,1-1.13.08,1.54,1.54,0,0,0-.17-.43h.62c.47,0,.53,0,.53-.17v-1.52h-2a3.47,3.47,0,0,1-1.24,2.17,1.34,1.34,0,0,0-.33-.3,3.67,3.67,0,0,0,1.24-3.17v-2.35Zm-2.37,2.35c0,.28,0,.58,0,.89h2v-1.23H77.89Zm1.94-1.94H77.89v1.2h1.94Z"/><path class="cls-7" d="M82.58,254.06c0,.07-.08.11-.21.11a15.52,15.52,0,0,0-.35,2.94,6.71,6.71,0,0,0,.09,1.29c.12-.32.4-1,.49-1.24l.28.29c-.27.66-.47,1-.56,1.33a1.17,1.17,0,0,0,0,.3.71.71,0,0,0,0,.21l-.46.08a7.12,7.12,0,0,1-.29-2.24,19.09,19.09,0,0,1,.35-3.19Zm4.16,4.78-.72,0a8.14,8.14,0,0,1-1.21-.08c-.8-.11-1.18-.56-1.18-1.08a2,2,0,0,1,.62-1.26l.42.18a1.58,1.58,0,0,0-.55,1c0,.76,1.11.76,1.79.76.27,0,.56,0,.84,0Zm-3-4a21.52,21.52,0,0,0,2.85-.25l0,.46a26.83,26.83,0,0,1-2.88.24Z"/><path class="cls-7" d="M88.09,254.46c.49,0,4.51-.31,5.36-.31v.49h-.25a1.94,1.94,0,0,0-1.11.33,3.69,3.69,0,0,0-1.93,2.49c0,.91.64,1.45,2.26,1.66l-.22.46c-1.85-.27-2.54-1-2.54-2.12a4,4,0,0,1,2.1-2.79c-.72.05-2.64.19-3.49.27a.22.22,0,0,1-.14.11Zm4.23,1.29a5,5,0,0,1,.89.9l-.25.2a4.35,4.35,0,0,0-.86-.91Zm.7-.58a4.45,4.45,0,0,1,.89.9l-.25.2a4.25,4.25,0,0,0-.86-.9Z"/><path class="cls-7" d="M100.08,255.92a10.11,10.11,0,0,1-2,.4,2.43,2.43,0,0,0,1.07,1l-.26.37c-.09-.05-.26-.12-.38-.2a2.83,2.83,0,0,0-.77-.09H97.5l-.09-.36a4.23,4.23,0,0,1,.73,0,3.45,3.45,0,0,1-.51-.74c-.44,0-.92.06-1.75.06h-1V256h1c.53,0,1.06,0,1.59,0-.07-.2-.17-.57-.25-.87a7.56,7.56,0,0,1-.83,0H95.3v-.41c.4,0,.83,0,1.11,0s.5,0,.75,0c-.06-.3-.13-.66-.18-1h.67c0,.08-.05.13-.17.15,0,.28.08.58.14.83a6.93,6.93,0,0,0,1.75-.38l.11.41a7.74,7.74,0,0,1-1.78.37c.09.35.17.65.25.86a10,10,0,0,0,2-.43Zm-1.15,3.45c-.36,0-.79,0-1.44,0-1.06,0-1.88-.34-1.87-1.08a1.37,1.37,0,0,1,.77-1l.3.3c-.38.2-.6.47-.6.72,0,.46.57.67,1.4.67.49,0,1,0,1.45-.05Z"/><path class="cls-7" d="M101.68,254.59c.41,0,.95,0,1.4,0h.9c0-.32,0-.68,0-.91l.66,0c0,.08-.06.12-.17.14s0,.6,0,.72a13,13,0,0,0,2.17-.26l0,.43a13.76,13.76,0,0,1-2.22.25c0,.39,0,.8,0,1.2a10.91,10.91,0,0,0,1.84-.25l.06.42a11.92,11.92,0,0,1-1.89.23l0,1.09a7.52,7.52,0,0,1,1.92,1l-.28.4a6.25,6.25,0,0,0-1.62-1v.3c0,.62-.38,1-1.17,1s-1.43-.34-1.43-.95.71-1,1.44-1a2.87,2.87,0,0,1,.69.08c0-.28,0-.62,0-1l-.63,0c-1.12,0-1.43-.18-1.43-.56s.18-.45.6-.72l.32.21c-.3.16-.45.3-.45.43s.3.24,1.13.24H104l0-1.21c-.28,0-.61,0-.9,0s-1,0-1.41,0Zm2.42,3.4a2.78,2.78,0,0,0-.73-.1c-.5,0-1,.2-1,.59s.46.58,1,.58.71-.23.71-.69Z"/><path class="cls-7" d="M111.08,254.66c0-.15,0-.86,0-1l.67,0c0,.06,0,.12-.17.14s0,.16,0,.84l2.14,0V255c-.56,0-1.35,0-2.12,0,0,.51,0,1,0,1.34a2,2,0,0,1,.08.68,2.67,2.67,0,0,1-.07.64,2.72,2.72,0,0,1-1.88,1.89,2.83,2.83,0,0,0-.33-.37,2.4,2.4,0,0,0,1.7-1.52h0a.84.84,0,0,1-.67.34,1.11,1.11,0,0,1-1.1-1.14,1.21,1.21,0,0,1,1.18-1.22,1,1,0,0,1,.61.2c0-.11,0-.55,0-.83-.68,0-2.74.09-3,.1v-.43l1.48,0Zm.12,2.29c0-.26,0-.85-.67-.85a.78.78,0,0,0-.77.83.73.73,0,0,0,.72.76A.7.7,0,0,0,111.2,257Z"/><path class="cls-7" d="M116.36,258.73a.92.92,0,1,1-.91-.91A.92.92,0,0,1,116.36,258.73Zm-.24,0a.68.68,0,1,0-.67.67A.66.66,0,0,0,116.12,258.73Z"/><path class="cls-8" d="M20.87,228.62c0-.37,0-.57,0-1.12a16.48,16.48,0,0,1-6.16,5.39A6.81,6.81,0,0,0,13,230.65a13.82,13.82,0,0,0,6.2-5h-3a21.8,21.8,0,0,0-2.24.08v-2.54a17.45,17.45,0,0,0,2.28.12h4.63v-.74a15.08,15.08,0,0,0-.09-1.68h2.77a12.06,12.06,0,0,0-.06,1.44v1h.93a12.66,12.66,0,0,0,2.12-.12v2.53a18,18,0,0,0-2.08-.07h-.94l.07,6.38a19.28,19.28,0,0,0,.11,2H20.78a10.7,10.7,0,0,0,.12-1.8V232l0-2.81Z"/><path class="cls-8" d="M30.41,221.58a22,22,0,0,1,4.07,2.9l-1.75,2.31a15.8,15.8,0,0,0-4-3.12Zm-1.56,9.19a14.84,14.84,0,0,0,4.46-1.07,8.88,8.88,0,0,0,4.33-3.65,12.89,12.89,0,0,0,1.45-2.9,9.66,9.66,0,0,0,2.18,2,13,13,0,0,1-4.82,6,16.28,16.28,0,0,1-5.76,2.22c-.58.13-.67.14-1.07.26Z"/><path class="cls-8" d="M43.55,224.78a17.34,17.34,0,0,0,2.39.11h7.43a2.37,2.37,0,0,0,1.18-.16L55.7,226a3.35,3.35,0,0,0-.41.94A11.15,11.15,0,0,1,52,232a13.16,13.16,0,0,1-4.21,2.31,8.26,8.26,0,0,0-1.66-2.42A10.29,10.29,0,0,0,50,230.13a6.36,6.36,0,0,0,2.27-3h-6.4a23.51,23.51,0,0,0-2.36.09Zm1.23-3.7a15,15,0,0,0,2.18.11h4.72a15.56,15.56,0,0,0,2.32-.11v2.48c-.56,0-1.26-.07-2.28-.07H46.93a19.42,19.42,0,0,0-2.15.07Z"/><path class="cls-8" d="M70.3,222.36a6.37,6.37,0,0,0-.58.55,24.87,24.87,0,0,1-3.42,3v5.69a22.07,22.07,0,0,0,.09,2.4H63.52a18.77,18.77,0,0,0,.09-2.38v-4.09a24.41,24.41,0,0,1-4.84,2.19,7.83,7.83,0,0,0-1.42-2.38,21.33,21.33,0,0,0,7.86-3.85,10.86,10.86,0,0,0,2.69-2.71Z"/><path class="cls-8" d="M74.6,221.58a22,22,0,0,1,4.07,2.9l-1.75,2.31a15.8,15.8,0,0,0-4-3.12ZM73,230.77a14.84,14.84,0,0,0,4.46-1.07,8.88,8.88,0,0,0,4.33-3.65,12.89,12.89,0,0,0,1.45-2.9,9.66,9.66,0,0,0,2.18,2,12.91,12.91,0,0,1-4.83,6,16.14,16.14,0,0,1-5.75,2.22c-.58.13-.67.14-1.07.26Z"/><path class="cls-8" d="M87.13,222.23h.57c.38,0,.91,0,2.53-.13,2.13-.13,3.57-.21,6.38-.31l1.52-.06.62,0c.51,0,.6,0,.67,0a1.09,1.09,0,0,0,.34-.06l.13,2.68a2.13,2.13,0,0,0-.41,0,6.89,6.89,0,0,0-3.39,1,4.24,4.24,0,0,0-2.35,3.36A1.89,1.89,0,0,0,95,230.5a7.7,7.7,0,0,0,2.83.54l.44,0-.34,2.81a4.75,4.75,0,0,0-.55-.07,11.12,11.12,0,0,1-3.74-.83A4.19,4.19,0,0,1,91,228.88a5.05,5.05,0,0,1,1.26-3.35,6.08,6.08,0,0,1,1.45-1.26l-.7.08-3.61.29a17.62,17.62,0,0,0-2.09.28Zm10.5,3.38a9.3,9.3,0,0,1,1.43,2.14l-1.42.65a9.32,9.32,0,0,0-1.43-2.19Zm2-.86a9.92,9.92,0,0,1,1.45,2.08l-1.37.64a11.18,11.18,0,0,0-1.41-2.13Z"/><path class="cls-8" d="M107,233.94c-.23-.8-.3-1-.4-1.39-1.6.46-2.45.68-4.37,1.08l-.41.1-.43-2.32c.22,0,.34,0,.78-.08v-9a13.83,13.83,0,0,0-.06-1.42,12.66,12.66,0,0,0,1.56.06h3.28a12.3,12.3,0,0,0,1.54-.06c0,.34,0,.59,0,1.41v4.87c0,.55,0,.9,0,1.23-.4,0-.7,0-1.2,0h-2.93V231c.67-.15,1.17-.27,1.57-.39-.21-.49-.28-.69-.59-1.36l1.94-.68A31.28,31.28,0,0,1,109,233V222.35c0-.58,0-1.08,0-1.41a12.87,12.87,0,0,0,1.35.06h3.31a12.71,12.71,0,0,0,1.36-.06,13.29,13.29,0,0,0-.06,1.41v8.23c0,1.69-.51,2.07-2.84,2.07h-.38a7.35,7.35,0,0,0-.43-2.32c.34,0,.81.08,1,.08.37,0,.46-.07.46-.37v-6.92h-1.52v9.52a13.71,13.71,0,0,0,.09,1.8H109a12.41,12.41,0,0,0,.07-1.33Zm-.74-10.17V223h-1.9v.8Zm-1.9,2.69h1.9v-.81h-1.9Z"/><path class="cls-8" d="M120.9,231.14a11.86,11.86,0,0,0-1.4,0v-2.1a6.31,6.31,0,0,0,.71.06,6,6,0,0,0-.91-1.06,21.92,21.92,0,0,1-.54,3.83,8.15,8.15,0,0,1-1,2.52,8.12,8.12,0,0,0-1.79-1.87,8.94,8.94,0,0,0,1-3.77,56,56,0,0,0,.18-5.79,11.51,11.51,0,0,0-.09-1.52c.67.05,1.22.07,2,.07h3.36v-.31a3.79,3.79,0,0,0-.07-.74h2.44a3.33,3.33,0,0,0-.06.77v.28h3.34a18.55,18.55,0,0,0,1.93-.09v2.28a14.07,14.07,0,0,0-1.58-.07h-9c0,1.65,0,2.33-.06,3.37a7.14,7.14,0,0,0,1.11-3.3l2,.43c-.17.69-.23.9-.36,1.35a4.93,4.93,0,0,0,1.07,1.25v-1.18a10.44,10.44,0,0,0-.08-1.6h2.33a10.5,10.5,0,0,0-.06,1.6v1.51a6.76,6.76,0,0,0,1.2-3.36l2.05.44c-.14.68-.22.92-.35,1.39a5.4,5.4,0,0,0,1.83,1.62,8.33,8.33,0,0,0-1.05,1.92l.34,0v2.12a9.72,9.72,0,0,0-1.43-.06h-2.59V232h3.22a14.43,14.43,0,0,0,1.47-.06v2.19a18.61,18.61,0,0,0-2-.09h-7.28a18.76,18.76,0,0,0-1.92.09V232a10.15,10.15,0,0,0,1.45.05h2.83v-.86Zm2.24-3.55a8.48,8.48,0,0,0-.71,1.36,13,13,0,0,1-1.13-1.45,7.39,7.39,0,0,1-1,1.64h2.89Zm3.13,1.55a4.94,4.94,0,0,0-.94-1.17v1.17Zm1.65,0c.52,0,.69,0,1.06,0a7.8,7.8,0,0,1-1.54-1.55,7.82,7.82,0,0,1-1,1.58Z"/><path class="cls-8" d="M135.38,221.28a28,28,0,0,0-1.13,7.15l1.14.39a14.74,14.74,0,0,0-.57,4.14,4.65,4.65,0,0,0,0,.73l-2.54.11a6.86,6.86,0,0,0-.08-.78,31.31,31.31,0,0,1-.38-4.68,31.63,31.63,0,0,1,.56-5.7,11.62,11.62,0,0,0,.22-1.58Zm4.08,6.47a3.65,3.65,0,0,0-1,2c0,.68.67,1.05,1.93,1.05a11,11,0,0,0,3.68-.6l.15,2.62c-.38,0-.38,0-1.26.17a17.81,17.81,0,0,1-2.56.2,6.13,6.13,0,0,1-3.06-.62,2.76,2.76,0,0,1-1.36-2.36,4.65,4.65,0,0,1,.71-2.31,12.26,12.26,0,0,1,.69-1.06Zm-2.9-5.34a12.3,12.3,0,0,0,2.64.22,19.27,19.27,0,0,0,4.41-.37l.1,2.53c-.13,0-.28,0-1.09.1a29.69,29.69,0,0,1-3.13.17,24,24,0,0,1-2.54-.12,3.73,3.73,0,0,0-.43,0Z"/><path class="cls-8" d="M147.83,222.9c-.71,0-1.41,0-2.07.08v-2.22c.66.06,1.27.09,2,.09h9.56c.73,0,1.38,0,2.07-.09V223c-.65,0-1.34-.08-2.05-.08h-3.7v.84h1.42a7.46,7.46,0,0,0,1.2-.06,7.22,7.22,0,0,0-.06,1.15v5.35a7.65,7.65,0,0,0,0,1.14l-.69,0h-6l-.71,0a6.76,6.76,0,0,0,.05-1.14v-5.35a9.07,9.07,0,0,0-.06-1.15,7.25,7.25,0,0,0,1.19.06h1.43v-.84Zm11.23.91c-.06.6-.08,1.28-.08,1.81v6.6a20.76,20.76,0,0,0,.1,2.19h-2.33v-.56h-8.36v.56H146.1a21,21,0,0,0,.1-2.14v-6.71c0-.55,0-1.12-.09-1.75h2.28a8,8,0,0,0-.06,1.22v6.79h8.5V225a8.7,8.7,0,0,0-.06-1.16Zm-8.27,1.85v.89h.84v-.89Zm0,2.73v1h.84v-1Zm3.61-1.84v-.89h-.89v.89Zm0,2.86v-1h-.89v1Z"/><path class="cls-8" d="M169,227l-.42.33a9.49,9.49,0,0,1,.86,1.09,6.93,6.93,0,0,1,1.13,3.66,2.26,2.26,0,0,1-.77,2,4,4,0,0,1-1.85.32c-.27,0-.49,0-.92,0a6,6,0,0,0-.37-1.38,12.68,12.68,0,0,1-2.15,1.08,6.84,6.84,0,0,0-.77-1.42,16,16,0,0,0,.08,1.76h-2.36a12.6,12.6,0,0,0,.09-1.7V229c0-.93,0-.93,0-1.61a9.93,9.93,0,0,1-.74,1,12.07,12.07,0,0,0-.74-2.71,10,10,0,0,0,2-3.45,8.55,8.55,0,0,0,.5-1.88l2.43.55c-.06.13-.06.15-.52,1.42-.13.38-.39,1-.56,1.39a7.51,7.51,0,0,0,2.73-3.31l2.46.25-.27.44h1.6a9.83,9.83,0,0,0,1.32-.06l.89.86a5,5,0,0,0-.52.65c-.27.36-.3.4-.68.86h1.17a8.63,8.63,0,0,0,1.21-.06,10.56,10.56,0,0,0-.06,1.24v1.28c0,.59,0,.92.05,1.26a7.93,7.93,0,0,0-1.2-.05h-1a11.83,11.83,0,0,0,.35,1.33,7.18,7.18,0,0,0,1-1.18l1.31,1.54c-.18.18-.18.18-.78.83a9.24,9.24,0,0,1-.71.68,6.08,6.08,0,0,0,1.54,1.89,9.43,9.43,0,0,0-1.19,2,8,8,0,0,1-2-2.81,20.9,20.9,0,0,1-1.37-4.31Zm-3.35,0c-.43,0-.8,0-1.2.05a9.9,9.9,0,0,0,.05-1.1v-1a8.76,8.76,0,0,0-.76-.9v3.79a8.9,8.9,0,0,0,2.76-.86Zm-1.91,3.08a12.73,12.73,0,0,0,3.56-1.44l-.27-.32a12,12,0,0,1-2.56,1,8.41,8.41,0,0,0-.73-1.33Zm0,2.29a15.33,15.33,0,0,0,4.43-2.16c-.06-.16-.08-.22-.16-.41a16.5,16.5,0,0,1-3.54,1.77,6.17,6.17,0,0,0-.73-1.31Zm2.87-6.82H168v-.7h-1.4Zm.46,7.19a6.39,6.39,0,0,0,.64,0c.44,0,.61-.06.7-.26a2.33,2.33,0,0,0,.07-.73A11.67,11.67,0,0,1,167.07,232.72Zm1.91-9.41a5.37,5.37,0,0,0,.42-.59h-1.66c-.18.24-.24.32-.46.59Zm1.13,2.22h1.48v-.7h-1.48Z"/><path class="cls-8" d="M19.94,245.17c-.86,1.9-1.85,2.73-3.2,2.73-2,0-3.37-1.9-3.37-4.61a6.56,6.56,0,0,1,1.7-4.51,7.08,7.08,0,0,1,5.36-2.18,6.57,6.57,0,0,1,4.82,1.83,5.85,5.85,0,0,1,1.45,4.11,6.38,6.38,0,0,1-2,4.78,7.55,7.55,0,0,1-4.25,1.7,7.33,7.33,0,0,0-1.26-2.42,7.89,7.89,0,0,0,3.11-.76,3.67,3.67,0,0,0,1.77-3.43,3.48,3.48,0,0,0-1.3-2.92,2.44,2.44,0,0,0-1.24-.52A20.74,20.74,0,0,1,19.94,245.17Zm-2.55-5.41a4.8,4.8,0,0,0-1.61,3.52c0,1.05.4,1.88.92,1.88s.75-.52,1.2-1.64A19.54,19.54,0,0,0,19,239,3,3,0,0,0,17.39,239.76Z"/><path class="cls-8" d="M29.58,238.22c-.55,0-1,0-1.44.07v-2a9.48,9.48,0,0,0,1.45.08H32a4.07,4.07,0,0,0-.08-.79h2.38a5.41,5.41,0,0,0-.07,1.08v2.77a12.41,12.41,0,0,0,.06,1.44H31.89c0-.22,0-.28.06-.48-.61.14-1.37.29-2.15.4l-1.32.21-.25.06-.41-2h.29c.82,0,3-.16,3.87-.29v-.49Zm2.31,9.46a10.3,10.3,0,0,0,.09,1.8H29.53a11.58,11.58,0,0,0,.11-1.92v-4.77c0-.93,0-1.18-.05-1.63.43,0,.7.05,1.67.05h7a16.49,16.49,0,0,0,1.71-.05c0,.43,0,.7,0,1.53v5.1a1.35,1.35,0,0,1-.45,1.22c-.35.26-1,.35-2.51.35H35.76a5.39,5.39,0,0,0-.38-1.7c.81,0,1.35.07,1.64.07.58,0,.7,0,.7-.31V247H31.89Zm5.83-4.21v-.55H31.89v.55Zm0,2V245H31.89v.51Zm-.34-10a5.11,5.11,0,0,0-.06,1,11.84,11.84,0,0,0,3-.92l1.35,1.69c-.23.06-.32.1-.49.15a20.13,20.13,0,0,1-3.85.81v.34c0,.31.15.37,1.11.37.69,0,1-.06,1.09-.22a2,2,0,0,0,.11-.84,9.43,9.43,0,0,0,2.16.51c-.12,1.2-.24,1.59-.58,1.88s-1.18.48-3.12.48a6,6,0,0,1-2.43-.25,1.05,1.05,0,0,1-.58-1.1v-2.71a6.64,6.64,0,0,0-.07-1.2Z"/><path class="cls-8" d="M50.78,248c0,.79-.3,1.23-.94,1.39a12.8,12.8,0,0,1-2,.12l-.82,0a7.39,7.39,0,0,0-.37-1.79,10.92,10.92,0,0,1-2.77,1.78,7.8,7.8,0,0,0-1.41-1.72,8.56,8.56,0,0,0,3-1.69c-.46,0-.88,0-1.29.05a8.84,8.84,0,0,0,.06-1.13v-1a10.65,10.65,0,0,0-.06-1.12c.52,0,1,0,1.57,0h7.49c.57,0,1,0,1.55,0a10.1,10.1,0,0,0-.06,1.12v1a8.29,8.29,0,0,0,.06,1.11c-.52,0-.83-.05-1.39-.05a9.41,9.41,0,0,0,3.06,1.57,8.72,8.72,0,0,0-1.37,1.84,11.52,11.52,0,0,1-3.72-2.59l1.32-.82H50.78Zm-5.39-7.55c-.68,0-1,0-1.47.05a10.46,10.46,0,0,0,.06-1.38v-1.85a10.45,10.45,0,0,0-.06-1.39c.48,0,.83.06,1.56.06h8.08c.71,0,1.06,0,1.55-.06a11.89,11.89,0,0,0-.06,1.39v1.84a11.39,11.39,0,0,0,.06,1.37c-.41,0-.74,0-1.21,0H50.57v.45h4.1a13.14,13.14,0,0,0,1.66-.08v1.79c-.54,0-1-.07-1.66-.07H44.4a14.83,14.83,0,0,0-1.66.07v-1.79a14.32,14.32,0,0,0,1.66.08h3.92v-.45Zm.75-2.71h6.74v-.44H46.14Zm0,1.51h6.74v-.45H46.14Zm1.54,7.49a8.24,8.24,0,0,1-.83.8,9.75,9.75,0,0,0,1.23.09c.36,0,.45-.09.45-.46V246H46.26Zm-1.24-2.51v.49h6.14v-.49Z"/><path class="cls-8" d="M58.19,237.09a14.3,14.3,0,0,0,3.07.21h.41a5.28,5.28,0,0,0,.46-1.64l2.71.2a4.84,4.84,0,0,0-.31.7c-.19.43-.28.67-.3.7.15,0,.15,0,.91-.06a21.8,21.8,0,0,0,3.74-.48l.09,2.36-1.33.13c-1,.1-2.9.21-4.41.25a10.58,10.58,0,0,1-.71,1.1,4.29,4.29,0,0,1,1.88-.45,2.07,2.07,0,0,1,2.26,1.44l1-.36.91-.29a5.53,5.53,0,0,0,1.19-.45l.9,2.34a25.08,25.08,0,0,0-3.77,1c0,.4,0,.41,0,1.06a10.05,10.05,0,0,0,.06,1.28l-2.41.07a12.38,12.38,0,0,0,.07-1.57l-.13.06a3.72,3.72,0,0,0-1,.62,1,1,0,0,0-.38.76c0,.56.54.78,2,.78a13.88,13.88,0,0,0,4.74-.74l.16,2.67a8.48,8.48,0,0,0-1.32.13,28.71,28.71,0,0,1-3.56.22,6.8,6.8,0,0,1-3.53-.68,2.38,2.38,0,0,1-1.17-2.1,2.78,2.78,0,0,1,.73-1.87,6.61,6.61,0,0,1,2.13-1.58c.36-.18.5-.24,1.1-.5a.62.62,0,0,0-.6-.37A4.86,4.86,0,0,0,61,243.46,9.27,9.27,0,0,0,59.54,245l-1.88-1.86a10.27,10.27,0,0,0,1.57-1.54,19.53,19.53,0,0,0,1.14-1.62l.28-.47H58.9a4.35,4.35,0,0,0-.51,0h-.23Z"/><path class="cls-8" d="M80.41,238.29c0-.46,0-.77,0-1.12a21.86,21.86,0,0,1-1.21,2.35c.25,0,.37,0,.64,0,0,.36,0,.65,0,1.16v7c0,.77-.13,1.15-.49,1.45a2.12,2.12,0,0,1-1.4.29c-.31,0-1,0-1.6,0a6.24,6.24,0,0,0-.45-2c.63.07,1.06.11,1.29.11.39,0,.48-.06.48-.28v-.66H74.77v1.24c0,.68,0,1.21.08,1.79H72.48a15,15,0,0,0,.09-1.79v-7a9.46,9.46,0,0,0-.06-1.21c.27,0,.3,0,.69,0a16,16,0,0,0-1.31-2.75l1.85-1a21.39,21.39,0,0,1,1.34,2.92l-1.62.85H75.1v-2.75a6.29,6.29,0,0,0-.08-1.21h2.42a6.2,6.2,0,0,0-.08,1.18v1.68a11.5,11.5,0,0,0,1.2-2.61l2,1h2a13.72,13.72,0,0,0-.06,1.48v6.15a13,13,0,0,0,.06,1.5H80.35a12,12,0,0,0,.06-1.5Zm-2.82,3.2H74.77v.64h2.82Zm-2.82,3.15h2.82V244H74.77Zm2.59-6v.87H79Zm8.2-3a10.35,10.35,0,0,0-.09,1.79v9.83c0,1.64-.57,2.1-2.61,2.1-.35,0-.66,0-1.53-.06a6.81,6.81,0,0,0-.58-2.2,12.69,12.69,0,0,0,1.82.15c.58,0,.71-.08.71-.45v-9.29a14.82,14.82,0,0,0-.07-1.87Z"/><path class="cls-8" d="M92.26,244.08a2.43,2.43,0,0,1-.71,1.57,2.52,2.52,0,0,1-1.65.47h-.19a4,4,0,0,0-.35-2v3.25c0,.71,0,1.43.08,2H87.09a20.4,20.4,0,0,0,.09-2.06v-9.81c0-.66,0-1.17-.06-1.69a9.69,9.69,0,0,0,1.3.06h2a7.42,7.42,0,0,0,1.17-.06l1,1a3.15,3.15,0,0,0-.19.59c-.1.32-.18.59-.27.84a8.35,8.35,0,0,0,2.55-2.71h2.22a6.2,6.2,0,0,0,1.88,2,8.73,8.73,0,0,0,2.11,1.12,7.74,7.74,0,0,0-.81,2.37,10.14,10.14,0,0,1-1.12-.64v.86H98.8a11.71,11.71,0,0,0-1.2,0h-.68V242H99a9.09,9.09,0,0,0,1.45-.07v2.2a12.75,12.75,0,0,0-1.45-.07H96.92v3.46c0,1.5-.46,1.84-2.5,1.84l-1.33,0a7.29,7.29,0,0,0-.23-1.29,9.06,9.06,0,0,1-1,1.14,5.77,5.77,0,0,0-1.54-1.71,5.11,5.11,0,0,0,1.31-1.32,5.48,5.48,0,0,0,.87-1.92l2,.72a9.77,9.77,0,0,1-1,2.31l.64,0c.54,0,.69-.09.69-.4v-2.84Zm-2.9-3.32a11.15,11.15,0,0,0,.9-2.79h-.9Zm0,3.32h.31c.4,0,.5-.13.5-.63a3.81,3.81,0,0,0-.81-2.43Zm5.35-2.84h-.43a13.22,13.22,0,0,0-1.39,0v-.8c-.22.15-.37.25-.81.52a7.62,7.62,0,0,0-.49-1.07c-.1.26-.18.4-.36.82a7.24,7.24,0,0,1,.7,1.27h2.78Zm2.71-2a9.6,9.6,0,0,1-1.55-1.67,8.21,8.21,0,0,1-1.45,1.67Zm1.6,5a6.88,6.88,0,0,0,1.85,3,9.55,9.55,0,0,0-1.52,1.87A10.77,10.77,0,0,1,97.08,245Z"/><path class="cls-9" d="M175.53,298.18H13.78V265.46H175.53a1.16,1.16,0,0,1,1.17,1.16V297A1.17,1.17,0,0,1,175.53,298.18Z"/><path class="cls-10" d="M38.12,274.49h4.76v.34H40.66v.64h1.13v2.42h-2.6v-2.42H40.3v-.64H38.12Zm4.26,3.9v-3l.45,0s0,.07-.1.08v3.56h-.35v-.34H38.64v.35h-.35v-3.67l.45,0s0,.07-.1.08v2.88Zm-2.89-2.62v.75h.83v-.75Zm0,1.05v.76h.83v-.76Zm2-.3v-.75h-.84v.75Zm0,1.06v-.76h-.84v.76Z"/><path class="cls-10" d="M45,276.06a6.59,6.59,0,0,1-.56.85,2.79,2.79,0,0,0-.18-.34,7.26,7.26,0,0,0,1.17-2.4l.42.13s0,.06-.12.06a10.36,10.36,0,0,1-.41,1.05l.12,0s0,.06-.1.07v3.57H45Zm3,.33a6.86,6.86,0,0,0,.28.8,6.66,6.66,0,0,0,.78-.63l.32.26a.15.15,0,0,1-.12,0,7.09,7.09,0,0,1-.85.6,2.59,2.59,0,0,0,1,1.11,1.17,1.17,0,0,0-.24.3,4,4,0,0,1-1.48-2.46h-.11a3.75,3.75,0,0,1-.36.24,2.09,2.09,0,0,1,.76,1.55c0,.54-.26.91-.8.91l-.43,0a.73.73,0,0,0-.09-.31,4,4,0,0,0,.45,0,.49.49,0,0,0,.34-.09.65.65,0,0,0,.2-.55,1,1,0,0,0,0-.24A6.85,6.85,0,0,1,45.83,279a1.39,1.39,0,0,0-.21-.27,5.51,5.51,0,0,0,1.91-1.09,1.87,1.87,0,0,0-.17-.35,5.92,5.92,0,0,1-1.44.78,1.57,1.57,0,0,0-.2-.25A4.89,4.89,0,0,0,47.2,277a2,2,0,0,0-.25-.25,7.11,7.11,0,0,1-1.07.47,2.12,2.12,0,0,0-.2-.24,6,6,0,0,0,1.4-.62H46v-.84l-.2.16a1,1,0,0,0-.26-.2,4,4,0,0,0,1.2-1.37l.42.07s0,.06-.11.06a2.39,2.39,0,0,1-.13.21h1c.09,0,.1,0,.14,0l.27.17a.09.09,0,0,1-.08,0,3.88,3.88,0,0,1-.37.52h1.24v1.2Zm-1.65-.92v.64H47.4v-.64Zm1.18-.28a2.73,2.73,0,0,0,.32-.42h-1.1q-.16.21-.36.42Zm1.29.92v-.64H47.72v.64Z"/><path class="cls-10" d="M55.5,276.41h0a.11.11,0,0,1-.08,0,14.48,14.48,0,0,0-1.44.55c0,.12,0,.26,0,.41s0,.36,0,.57l-.39,0c0-.19,0-.44,0-.64a1.48,1.48,0,0,0,0-.22c-.6.3-1.09.65-1.09,1s.37.46,1.1.46a12.72,12.72,0,0,0,1.34-.05v.36c-.32,0-.8,0-1.35,0-1,0-1.47-.25-1.47-.79s.62-.92,1.42-1.32c0-.34-.19-.5-.4-.5a1.79,1.79,0,0,0-1.27.75c-.15.16-.36.37-.59.58l-.26-.26a3.72,3.72,0,0,0,1.34-2H51.18V275h1.28a5.16,5.16,0,0,0,.14-.76l.53.07a.15.15,0,0,1-.14.09,5.11,5.11,0,0,1-.13.59,7,7,0,0,0,1.83-.31l.06.36a8,8,0,0,1-2,.3,3.6,3.6,0,0,1-.39.9h0a1.41,1.41,0,0,1,.86-.35c.36,0,.59.26.66.69.44-.2,1-.42,1.44-.58Z"/><path class="cls-10" d="M61.92,274.77a.18.18,0,0,1-.07.05,4.64,4.64,0,0,1-1.26,1.7,2.7,2.7,0,0,0-.33-.22A3.25,3.25,0,0,0,61.32,275H57.51v-.36h4l.06,0Zm-2.08,1a.13.13,0,0,1-.12.09A3.91,3.91,0,0,1,58,278.92a2,2,0,0,0-.31-.25,3.48,3.48,0,0,0,1.6-3Z"/><path class="cls-10" d="M64.6,275.71a5.43,5.43,0,0,1,.4,1.15l-.3.08a5.71,5.71,0,0,0-.39-1.14Zm3.18,0c0,.05-.06.06-.11.05a4.09,4.09,0,0,1-2.49,3,1.17,1.17,0,0,0-.21-.24,3.75,3.75,0,0,0,2.39-3Zm-1.89-.3a6.06,6.06,0,0,1,.25,1.21l-.31.06a6.12,6.12,0,0,0-.25-1.2Z"/><path class="cls-10" d="M70.46,274.93h3.39l0,0,.36.28a.1.1,0,0,1-.06.05,4.46,4.46,0,0,1-3,3.66,1.83,1.83,0,0,0-.24-.31,4,4,0,0,0,2.79-3.3H70.46Zm4.06-1a.59.59,0,0,1,0,1.17.59.59,0,1,1,0-1.17Zm.41.59a.41.41,0,0,0-.82,0,.41.41,0,0,0,.82,0Z"/><path class="cls-10" d="M80.68,275v3.52H80.3v-.34H77.36v.35H77V275Zm-.38,2.82v-2.46H77.36v2.46Z"/><path class="cls-10" d="M83,276.32h4.44v.38H83.18a.25.25,0,0,1-.17.1Z"/><path class="cls-10" d="M93.12,277.12a19.91,19.91,0,0,0-1.87-.87v2.66h-.4v-4.63l.54,0c0,.05,0,.09-.14.11V276l.08-.11a17.26,17.26,0,0,1,2,.88Zm-.56-2.51a4.57,4.57,0,0,1,.74.79l-.21.16a4.76,4.76,0,0,0-.72-.78Zm.71-.46a4.8,4.8,0,0,1,.73.78l-.19.17a4.83,4.83,0,0,0-.73-.78Z"/><path class="cls-10" d="M97.28,274.36c0,.07-.06.1-.17.12,0,.62-.09,2-.09,2.82s.39,1.17,1.06,1.17a2.59,2.59,0,0,0,1.92-1,1.57,1.57,0,0,0,.24.32,2.91,2.91,0,0,1-2.16,1.08c-1,0-1.47-.56-1.47-1.57,0-.67,0-2.32.09-3Z"/><path class="cls-10" d="M102.17,274.85c.4,0,3.68-.25,4.37-.25v.4h-.2a1.51,1.51,0,0,0-.91.27,3,3,0,0,0-1.57,2c0,.74.52,1.18,1.84,1.35l-.17.38c-1.52-.22-2.08-.79-2.08-1.73a3.27,3.27,0,0,1,1.71-2.28c-.56,0-2.15.16-2.84.23a.15.15,0,0,1-.12.08Z"/><path class="cls-10" d="M112.54,278.54a9.4,9.4,0,0,1-1.64.13,6.1,6.1,0,0,1-1-.07,1,1,0,0,1-.93-1,1.71,1.71,0,0,1,.55-1.14l.31.17a1.41,1.41,0,0,0-.47.94.73.73,0,0,0,.66.69,4.62,4.62,0,0,0,.86.06,9.19,9.19,0,0,0,1.65-.14Zm-2.39-2.68a6.1,6.1,0,0,1,.94-.62h0c-.4,0-1.33.06-1.92.06,0-.1,0-.28,0-.37h.29a15.81,15.81,0,0,0,2.75-.17l0,.39a1.73,1.73,0,0,0-.56.16,5.77,5.77,0,0,0-1.23.74Zm2.38.76a3.28,3.28,0,0,0-.71-.73l.18-.16a4.11,4.11,0,0,1,.73.71Zm.56-.51a4,4,0,0,0-.71-.72l.17-.17a3.84,3.84,0,0,1,.73.72Z"/><path class="cls-10" d="M117.45,274.22s0,0-.11.06c-.06.17-.15.4-.24.59H119v4.19h-.38v-.28h-2.9v.31h-.36v-4.22h1.32a3.83,3.83,0,0,0,.24-.75Zm1.21,1h-2.9v.85h2.9Zm0,1.18h-2.9v.84h2.9Zm-2.9,2h2.9v-.85h-2.9Z"/><path class="cls-10" d="M123.09,274.41a.12.12,0,0,1-.13,0,5.32,5.32,0,0,1-1.66,2.11,2.26,2.26,0,0,0-.28-.25,4.72,4.72,0,0,0,1.61-2.06Zm1.87,1.77H125l.2,0v.13c-.09,1.72-.17,2.34-.35,2.54s-.31.18-.64.18-.41,0-.64,0a.79.79,0,0,0-.11-.35c.36,0,.71,0,.83,0s.18,0,.23-.07.23-.69.3-2.1h-1.47a2.73,2.73,0,0,1-1.87,2.56,1.09,1.09,0,0,0-.23-.3,2.41,2.41,0,0,0,1.72-2.26h-1.14v-.36Zm-.47-1.94a5.61,5.61,0,0,0,1.64,2,1.47,1.47,0,0,0-.3.31,6.89,6.89,0,0,1-1.68-2.14Z"/><path class="cls-10" d="M127.73,274.85c.4,0,3.68-.25,4.37-.25v.4h-.2a1.51,1.51,0,0,0-.91.27,3,3,0,0,0-1.57,2c0,.74.52,1.18,1.84,1.35l-.17.38c-1.52-.22-2.08-.79-2.08-1.73a3.27,3.27,0,0,1,1.71-2.28c-.58.05-2.15.16-2.84.23a.15.15,0,0,1-.12.08Zm3.45,1a3.92,3.92,0,0,1,.73.74l-.21.16a3.76,3.76,0,0,0-.7-.74Zm.58-.47a3.14,3.14,0,0,1,.72.74l-.2.16a3.72,3.72,0,0,0-.7-.74Z"/><path class="cls-10" d="M135.72,275.24l.2.05,0,.08a7.27,7.27,0,0,1-.51,2.29,3.55,3.55,0,0,1,.62.58l-.21.29a4.33,4.33,0,0,0-.57-.55,2.84,2.84,0,0,1-1.06,1.11,1.58,1.58,0,0,0-.22-.29,2.52,2.52,0,0,0,1-1,5.91,5.91,0,0,0-.61-.41l-.06.23-.3-.15c.13-.47.29-1.15.45-1.84h-.53v-.33h.6c.09-.4.16-.78.23-1.13l.43.06s0,.06-.1.06c-.06.3-.14.65-.22,1h.82Zm-1,.35c-.11.5-.24,1-.35,1.44a6.92,6.92,0,0,1,.68.42,6.36,6.36,0,0,0,.44-1.86ZM138,275a5.52,5.52,0,0,1,.85,1.4l-.31.17-.15-.36c-.85.07-1.71.12-2.27.16a.1.1,0,0,1-.07.07l-.15-.42h.43a14.89,14.89,0,0,0,.61-1.89l.47.12a.18.18,0,0,1-.13.06,15,15,0,0,1-.6,1.7l1.55-.08a8,8,0,0,0-.52-.77Zm-1.7,4.07V276.9h2.26v2.16h-.36v-.23h-1.56v.25Zm1.9-1.85h-1.56v1.27h1.56Z"/><path class="cls-10" d="M144,274.37c0,.05-.07.07-.14.08a8.83,8.83,0,0,1-.22,1,1.65,1.65,0,0,1,1.45,1.67c0,1-.72,1.56-2.06,1.75l-.17-.33c1.17-.15,1.84-.63,1.84-1.41a1.33,1.33,0,0,0-1.16-1.33,5.26,5.26,0,0,1-1,1.9,2,2,0,0,0,.25.26l-.27.26a1.94,1.94,0,0,1-.23-.26,1.61,1.61,0,0,1-1.08.49c-.47,0-.76-.39-.76-1a1.93,1.93,0,0,1,.94-1.63c-.1-.4-.19-.85-.26-1.33h.51a.15.15,0,0,1-.11.12q.07.56.18,1.05a3.07,3.07,0,0,1,1.39-.29h.13a9.1,9.1,0,0,0,.21-1.17Zm-1.88,3.34a5.69,5.69,0,0,1-.6-1.48,1.54,1.54,0,0,0-.69,1.25c0,.38.15.65.43.65A1.29,1.29,0,0,0,142.08,277.71Zm.23-.3a4.53,4.53,0,0,0,.81-1.65h-.18a2.32,2.32,0,0,0-1.16.29A5.21,5.21,0,0,0,142.31,277.41Z"/><path class="cls-10" d="M146.9,274.85c.4,0,3.68-.25,4.37-.25v.4h-.2a1.51,1.51,0,0,0-.91.27,3,3,0,0,0-1.57,2c0,.74.52,1.18,1.84,1.35l-.18.38c-1.51-.22-2.07-.79-2.07-1.73A3.27,3.27,0,0,1,149.9,275c-.56,0-2.15.16-2.84.23a.16.16,0,0,1-.12.08Z"/><path class="cls-10" d="M157.47,275.67a.14.14,0,0,1-.15.1c-.06.37-.14.75-.23,1.09.28.12.59.26.89.41l-.17.36c-.29-.15-.56-.28-.84-.4a3.11,3.11,0,0,1-1.18,1.7,1.78,1.78,0,0,0-.31-.23,2.78,2.78,0,0,0,1.15-1.63,5.18,5.18,0,0,0-1.42-.39c-.37,1.34-.7,1.69-1.34,1.69a.74.74,0,0,1-.76-.83c0-.83.86-1.21,1.81-1.22a10.53,10.53,0,0,0,.29-1.5l-1.51.11a.18.18,0,0,1-.11.07l-.05-.43c.46,0,1.45-.08,1.77-.11a.23.23,0,0,0,.12-.06l.33.2a.24.24,0,0,1-.13.08c-.09.59-.22,1.21-.33,1.66a5.88,5.88,0,0,1,1.43.38,9.14,9.14,0,0,0,.23-1.16Zm-2.63,1c-.77,0-1.38.31-1.38.88,0,.29.14.5.39.5S154.5,277.9,154.84,276.66Z"/><path class="cls-10" d="M79.81,283.85c.4,0,3.68-.25,4.37-.25v.4H84a1.51,1.51,0,0,0-.91.27,3,3,0,0,0-1.57,2c0,.74.52,1.18,1.84,1.35l-.18.38c-1.51-.22-2.07-.79-2.07-1.73A3.27,3.27,0,0,1,82.81,284c-.56,0-2.16.16-2.84.23a.16.16,0,0,1-.12.08Z"/><path class="cls-10" d="M89.31,288a15.85,15.85,0,0,0-2.09-2c-.27-.22-.36-.36-.36-.56a.67.67,0,0,1,.28-.48c.48-.45,1.4-1.31,1.91-1.83l.45.29a.14.14,0,0,1-.12.06h-.06c-.53.51-1.37,1.23-1.8,1.64-.13.13-.23.23-.23.32s.09.2.28.33a17.24,17.24,0,0,1,2.1,1.94Z"/><path class="cls-10" d="M95.63,284.3a6.56,6.56,0,0,1-1.64.3,14.11,14.11,0,0,1-1,3.33l-.39-.14a11.38,11.38,0,0,0,1-3.17h-1v-.36h1c.06-.34.11-.71.14-1l.55.06a.15.15,0,0,1-.16.1c0,.24-.08.53-.13.85a6.25,6.25,0,0,0,1.49-.3Zm1.42,3.52c-.21,0-.43,0-.65,0a4.76,4.76,0,0,1-1.11-.11.74.74,0,0,1-.59-.73,1.34,1.34,0,0,1,.33-.78l.32.14a1,1,0,0,0-.28.59c0,.42.41.52,1.28.52.23,0,.48,0,.69,0ZM95,285.28A6.09,6.09,0,0,1,96.9,285v.36a6.2,6.2,0,0,0-1.84.24Zm.93-1.85a3.73,3.73,0,0,1,.75.73l-.2.17a3.83,3.83,0,0,0-.72-.73Zm.69-.35a3.63,3.63,0,0,1,.74.72l-.2.17a4,4,0,0,0-.71-.72Z"/><path class="cls-10" d="M103.35,284.36a10.21,10.21,0,0,1-1.77.29c.21.73.43,1.16,1,1.41l-.26.32a1.86,1.86,0,0,0-1.19-.36l-.07-.32a4.4,4.4,0,0,1,.6.08,2.86,2.86,0,0,1-.48-1.1c-.24,0-.56,0-.88,0l-1.25,0v-.36c.32,0,.77,0,1.25,0,.28,0,.58,0,.8,0-.07-.29-.13-.68-.19-1.09h.57c0,.06,0,.1-.14.12a9,9,0,0,0,.15.93,8.78,8.78,0,0,0,1.77-.31Zm-.95,3.5-1,0c-1.11,0-1.9-.34-1.9-1.06a1.33,1.33,0,0,1,.48-.89l.29.23a.94.94,0,0,0-.39.65c0,.53.68.7,1.53.7.46,0,.74,0,1,0Z"/><path class="cls-10" d="M106,283.85s-.07.08-.15.09a9.3,9.3,0,0,0-.1,1.32c0,.2,0,.39,0,.56.07.91.43,1.46.84,1.45.22,0,.49-.54.69-1.14a1.33,1.33,0,0,0,.3.23c-.24.72-.55,1.31-1,1.32-.68,0-1.15-.81-1.22-1.84,0-.2,0-.42,0-.66a11.22,11.22,0,0,1,.08-1.43Zm3.53,2.48a2.68,2.68,0,0,0-1.34-2l.23-.29a2.89,2.89,0,0,1,1.5,2.17Z"/><path class="cls-10" d="M113.65,287.35a.33.33,0,1,1,.33.34A.34.34,0,0,1,113.65,287.35Zm.16-.86-.08-2.92h.51l-.08,2.92Z"/><line class="cls-5" y1="17.91" x2="190.29" y2="17.91"/><rect class="cls-11" x="26.33" y="82.17" width="136.24" height="127.66"/><polygon class="cls-12" points="77.51 82.27 162.38 82.27 162.38 209.83 104.83 209.83 77.51 82.27"/><path class="cls-13" d="M42,177.07a36,36,0,0,1,8.47,17.75c.46,2.59,4.4,1.49,3.94-1.09a40,40,0,0,0-9.52-19.55c-1.74-2-4.62.92-2.89,2.89Z"/><polygon class="cls-14" points="80.76 116.28 58.9 154.15 102.62 154.15 80.76 116.28"/><circle class="cls-14" cx="104.89" cy="154.04" r="17.96"/><path class="cls-15" d="M87.55,141.2a192.55,192.55,0,0,0,12.66,16c1.45,1.63,3.83-.77,2.39-2.4a185.73,185.73,0,0,1-12.13-15.26c-1.25-1.76-4.19-.07-2.92,1.71Z"/><g class="cls-16"><path class="cls-2" d="M165.43,55.37a.2.2,0,0,1-.19.12,11.58,11.58,0,0,1-1.83,4.88,2.29,2.29,0,0,0-.51-.28,10.37,10.37,0,0,0,1.76-4.88Zm3.83,5a25.55,25.55,0,0,0-2-4.9l.49-.24a24.88,24.88,0,0,1,2.09,4.92Zm-1.1-6.12a5.37,5.37,0,0,1,.93,1.13l-.29.21a6.14,6.14,0,0,0-.93-1.13Zm1-.39a5.6,5.6,0,0,1,.94,1.11l-.3.23a5.71,5.71,0,0,0-.92-1.12Z"/><path class="cls-2" d="M172.66,55.38c0,.07-.07.12-.17.13-.05,2.05-.21,3.91-1.39,5.28a3.88,3.88,0,0,0-.45-.29c1.13-1.24,1.27-3.14,1.29-5.19Zm2,4.39a5,5,0,0,0,2.53-3.06,3.31,3.31,0,0,0,.47.29,5.64,5.64,0,0,1-3.1,3.44.35.35,0,0,1-.13.16l-.4-.51.09-.11V54.39l.7,0c0,.07-.06.13-.16.14Z"/><path class="cls-2" d="M184.56,55.63a.57.57,0,0,1-.11.11,8,8,0,0,1-4.15,5.12,1.91,1.91,0,0,0-.39-.42,7.14,7.14,0,0,0,3.86-4.51h-2.72a8,8,0,0,1-1.7,1.88,2.71,2.71,0,0,0-.44-.35,7.71,7.71,0,0,0,2.43-3.3l.73.2c0,.08-.13.1-.23.1q-.22.49-.48,1H184l.09-.05Z"/></g><g class="cls-16"><path class="cls-2" d="M111.64,58.4V54.7l.72,0c0,.07-.06.12-.18.14V58.4Zm4.24-4c0,.08-.06.11-.18.13V57A3.81,3.81,0,0,1,113,60.86a1.91,1.91,0,0,0-.39-.42A3.38,3.38,0,0,0,115.15,57v-2.6Z"/><path class="cls-2" d="M119.07,55a9,9,0,0,1,1.31,2.16l-.53.27a8.66,8.66,0,0,0-1.26-2.18Zm5.33.09c0,.07-.08.1-.2.1a7.75,7.75,0,0,1-4.37,5.49,2.5,2.5,0,0,0-.39-.41c2.09-.92,3.5-2.5,4.23-5.41Z"/><path class="cls-2" d="M126,57.1h6.36v.54h-6.07a.36.36,0,0,1-.24.15Z"/><path class="cls-2" d="M139,55a.12.12,0,0,1-.1.08,11.72,11.72,0,0,1-1.52,2.62,29.7,29.7,0,0,1,2.79,2.58l-.47.41a23.84,23.84,0,0,0-2.67-2.56,12.12,12.12,0,0,1-2.93,2.56,2.57,2.57,0,0,0-.4-.41,10.87,10.87,0,0,0,4.46-5h-3.74v-.51h4l.1,0Z"/></g><g class="cls-16"><path class="cls-2" d="M16,56.73a8.88,8.88,0,0,1-.8,1.22c-.06-.12-.18-.38-.25-.5A10.45,10.45,0,0,0,16.6,54l.6.19s-.07.08-.17.08c-.17.51-.37,1-.59,1.51l.18.05c0,.06-.06.09-.15.1v5.1H16Zm4-2.35v.46H18.39A10.58,10.58,0,0,1,18.15,56h1.29l.31.11a.11.11,0,0,1-.06.09c-.31,2.42-1.15,4-2.34,4.91a1.73,1.73,0,0,0-.35-.41,4.5,4.5,0,0,0,1.6-2.08,6.79,6.79,0,0,0-1-.81l.22-.39a6,6,0,0,1,.92.73,9.53,9.53,0,0,0,.39-1.67H18a5.88,5.88,0,0,1-1,2.08,1.83,1.83,0,0,0-.32-.36,7.08,7.08,0,0,0,1.21-3.33h-.76v-.46Zm.44,4.91H20V54.84l.61,0s0,.09-.14.1Zm1-5.2.63,0c0,.06-.05.1-.14.1v6.16c0,.63-.29.67-1.5.67a3,3,0,0,0-.17-.51l.63,0c.5,0,.55,0,.55-.18Z"/></g><g class="cls-16"><path class="cls-2" d="M46,57.46H43.33a4,4,0,0,1-2.14,3.4,3.67,3.67,0,0,0-.43-.37,3.57,3.57,0,0,0,2-3H39.68V57h3.14c0-.51,0-1,0-1.63a26.51,26.51,0,0,1-2.62.43,3,3,0,0,0-.16-.44,18.74,18.74,0,0,0,4.72-1l.41.45-.1,0H45a17.05,17.05,0,0,1-1.7.51l.25,0c0,.07-.06.11-.16.13,0,.57,0,1.09-.05,1.57H46Z"/><path class="cls-2" d="M53.19,59.78v.44H48v-.44h3.1c.12-.77.33-2.28.4-3.06H48.6v-.44h3l.1,0,.37.18a.13.13,0,0,1-.09.07c-.1.8-.35,2.47-.47,3.28Z"/><path class="cls-2" d="M55.15,57.1H61.5v.54H55.44a.38.38,0,0,1-.25.15Z"/><path class="cls-2" d="M68.28,58.24A25.87,25.87,0,0,0,65.61,57v3.8H65V54.19l.77,0c0,.09-.06.14-.19.16v2.22l.11-.16a26.63,26.63,0,0,1,2.86,1.28Z"/><path class="cls-2" d="M71.84,58.4V54.7l.72,0c0,.07-.06.12-.18.14V58.4Zm4.24-4c0,.08-.06.11-.18.13V57a3.81,3.81,0,0,1-2.74,3.91,1.91,1.91,0,0,0-.39-.42A3.38,3.38,0,0,0,75.35,57v-2.6Z"/><path class="cls-2" d="M84.87,54.88s-.06,0-.1.07A6.44,6.44,0,0,1,83,57.38a3.82,3.82,0,0,0-.47-.31A4.6,4.6,0,0,0,84,55.18H78.57v-.51h5.74l.08,0Zm-3,1.38c0,.07-.07.12-.17.13a5.54,5.54,0,0,1-2.41,4.42,3.34,3.34,0,0,0-.45-.35c1.56-.85,2.11-2.44,2.29-4.28Z"/><path class="cls-2" d="M88,55.38c0,.07-.08.12-.18.13,0,2.05-.21,3.91-1.39,5.28a3.88,3.88,0,0,0-.45-.29c1.13-1.24,1.27-3.14,1.29-5.19Zm2,4.39a5,5,0,0,0,2.53-3.06,3.4,3.4,0,0,0,.48.29,5.69,5.69,0,0,1-3.11,3.44.3.3,0,0,1-.13.16l-.4-.51.09-.11V54.39l.71,0a.17.17,0,0,1-.17.14Z"/></g></g></g></svg>