<?xml version="1.0" encoding="utf-8"?>
<!-- Generator: Adobe Illustrator 22.0.1, SVG Export Plug-In . SVG Version: 6.00 Build 0)  -->
<svg version="1.1" id="Layer_1" xmlns="http://www.w3.org/2000/svg" xmlns:xlink="http://www.w3.org/1999/xlink" x="0px" y="0px"
	 viewBox="0 0 537.2 310.3" style="enable-background:new 0 0 537.2 310.3;" xml:space="preserve">
<style type="text/css">
	.st0{fill:none;}
	.st1{fill:#0055FF;}
	.st2{fill:#FFFFFF;}
	.st3{fill:none;stroke:#1A1E25;stroke-width:0.39;stroke-miterlimit:10;}
	.st4{fill:#666666;}
	.st5{fill:#1A1A1A;}
	.st6{fill:#333333;}
	.st7{fill:#4D4D4D;}
	
		.st8{fill:#FFFFFF;stroke:#0055FF;stroke-width:0.85;stroke-linecap:round;stroke-linejoin:round;stroke-dasharray:8.000000e-02,1.7;}
	.st9{fill:#1474FF;}
	.st10{fill:none;stroke:#000000;stroke-width:0.39;stroke-linecap:round;stroke-linejoin:round;}
	.st11{fill:none;stroke:#1A1E25;stroke-width:0.65;stroke-miterlimit:10;}
	.st12{fill:url(#SVGID_1_);stroke:#000000;stroke-width:0.65;stroke-miterlimit:10;}
	.st13{fill:#C0392B;}
	.st14{fill:#FFFFFF;stroke:#000000;stroke-width:0.6;stroke-miterlimit:10;}
	.st15{fill:#3FB24F;}
	.st16{fill:none;stroke:#1A1A1A;stroke-width:0.39;stroke-linecap:round;stroke-linejoin:round;}
</style>
<pattern  y="453.6" width="12" height="12" patternUnits="userSpaceOnUse" id="New_Pattern_4" viewBox="0.5 -12.5 12 12" style="overflow:visible;">
	<g>
		<rect x="0.5" y="-12.5" class="st0" width="12" height="12"/>
		<rect x="0.5" y="-12.5" class="st0" width="12" height="12"/>
		<circle class="st1" cx="12.5" cy="-9.5" r="0.5"/>
		<circle class="st1" cx="6.5" cy="-12.5" r="0.5"/>
		<circle class="st1" cx="0.5" cy="-9.5" r="0.5"/>
		<circle class="st1" cx="12.5" cy="-3.5" r="0.5"/>
		<circle class="st1" cx="6.5" cy="-6.5" r="0.5"/>
		<circle class="st1" cx="0.5" cy="-3.5" r="0.5"/>
		<circle class="st1" cx="6.5" cy="-0.5" r="0.5"/>
	</g>
</pattern>
<title>wireframe-desktop</title>
<g id="Layer_2_1_">
	<g id="Layer_1-2">
		<rect class="st2" width="537.2" height="311.7"/>
		<line class="st3" x1="537.2" y1="67.6" x2="0" y2="67.6"/>
		<path class="st4" d="M278,179.8v1.7h-0.3V181c-0.1,0.1-0.2,0.3-0.3,0.4c-0.2,0.2-0.5,0.2-0.7,0.2c-0.8,0-1.5-0.7-1.4-1.5
			c0,0,0-0.1,0-0.1c-0.1-0.8,0.5-1.6,1.3-1.6c0,0,0.1,0,0.1,0c0.6,0,1.2,0.4,1.3,1h-0.5c-0.1-0.4-0.4-0.7-0.9-0.6
			c-0.6,0-1,0.5-1,1.2s0.4,1.3,1,1.3c0.3,0,0.6-0.2,0.8-0.4c0.1-0.2,0.1-0.4,0.1-0.6h-0.9v-0.4L278,179.8z"/>
		<path class="st4" d="M279,180.5c0,0.5,0.3,0.7,0.7,0.7c0.3,0,0.5-0.2,0.5-0.4h0.4c-0.1,0.5-0.5,0.8-1,0.8c-0.7-0.1-1.1-0.7-1-1.4
			c0.1-0.5,0.5-1,1-1c0.4,0,0.8,0.3,0.9,0.7c0.1,0.2,0.1,0.4,0.1,0.6H279z M280.3,180.2c0-0.4-0.2-0.6-0.6-0.6
			c-0.4,0-0.6,0.3-0.6,0.6v0H280.3z"/>
		<path class="st4" d="M282.2,179.6h-0.4v1.4c0,0.1,0.1,0.2,0.2,0.2c0.1,0,0.2,0,0.2-0.1v0.4c-0.1,0-0.2,0-0.4,0.1
			c-0.3,0-0.5-0.2-0.5-0.6v-1.4h-0.3v-0.4h0.3v-0.7h0.4v0.7h0.4V179.6z"/>
		<path class="st4" d="M284.3,180c0-0.2,0.1-0.4,0.2-0.6c0.2-0.2,0.5-0.3,0.7-0.3c0.6,0,0.9,0.3,0.9,0.7v1.1c0,0.2,0,0.2,0.1,0.2
			h0.1v0.3H286c-0.2,0-0.3-0.1-0.3-0.3c-0.2,0.2-0.5,0.3-0.8,0.3c-0.4,0-0.7-0.2-0.7-0.6c0,0,0-0.1,0-0.1c0-0.4,0.2-0.6,0.7-0.7
			l0.5-0.1c0.3,0,0.3-0.1,0.3-0.2s-0.2-0.4-0.5-0.4c-0.2,0-0.4,0-0.5,0.2c0,0.1,0,0.1,0,0.3L284.3,180z M285.7,180.4l-0.3,0.1
			l-0.5,0.1c-0.3,0.1-0.4,0.2-0.4,0.4s0.2,0.4,0.4,0.4c0.3,0,0.6-0.3,0.7-0.6V180.4z"/>
		<path class="st4" d="M289.3,179.6h-0.4v1.4c0,0.1,0.1,0.2,0.2,0.2c0.1,0,0.2,0,0.2-0.1v0.4c-0.1,0-0.2,0-0.4,0.1
			c-0.3,0-0.5-0.2-0.5-0.6v-1.4h-0.3v-0.4h0.3v-0.7h0.4v0.7h0.4V179.6z"/>
		<path class="st4" d="M290.2,179.2v0.4c0.1-0.1,0.1-0.2,0.2-0.2c0.1-0.1,0.3-0.2,0.4-0.2c0.1,0,0.2,0,0.2,0.1v0.4
			c-0.1,0-0.1,0-0.2,0c-0.4,0-0.6,0.3-0.6,0.7c0,0,0,0,0,0v1.2h-0.4v-2.3L290.2,179.2z"/>
		<path class="st4" d="M291.5,180c0-0.2,0.1-0.4,0.2-0.6c0.2-0.2,0.5-0.3,0.7-0.3c0.6,0,0.9,0.3,0.9,0.7v1.1c0,0.2,0,0.2,0.1,0.2
			h0.1v0.3h-0.3c-0.2,0-0.3-0.1-0.3-0.3c0,0,0,0,0,0c-0.2,0.2-0.5,0.3-0.8,0.3c-0.4,0-0.7-0.2-0.7-0.6c0,0,0,0,0-0.1
			c0-0.4,0.2-0.6,0.7-0.7l0.5-0.1c0.3,0,0.3-0.1,0.3-0.2s-0.2-0.4-0.5-0.4c-0.2,0-0.4,0-0.5,0.2c0,0.1-0.1,0.2,0,0.3L291.5,180z
			 M293,180.4l-0.3,0.1l-0.5,0.1c-0.3,0.1-0.4,0.2-0.4,0.4s0.2,0.4,0.4,0.4c0.3,0,0.6-0.3,0.7-0.6V180.4z"/>
		<path class="st4" d="M294.5,179.2v0.3c0.2-0.2,0.4-0.3,0.7-0.3c0.2,0,0.5,0.1,0.6,0.2c0.1,0.2,0.2,0.4,0.1,0.6v1.5h-0.4V180
			c0-0.3-0.1-0.5-0.4-0.5c-0.3,0-0.6,0.2-0.6,0.5c0,0,0,0.1,0,0.1v1.4h-0.4v-2.3L294.5,179.2z"/>
		<path class="st4" d="M298.1,180c0-0.3-0.3-0.4-0.5-0.4c0,0,0,0,0,0c-0.3,0-0.4,0.1-0.4,0.3s0.1,0.2,0.3,0.2l0.5,0.1
			c0.5,0.1,0.7,0.3,0.7,0.7s-0.4,0.7-1,0.7c-0.5,0.1-0.9-0.3-1-0.8c0,0,0,0,0,0h0.4c0,0.3,0.2,0.5,0.6,0.5s0.5-0.1,0.5-0.4
			s-0.1-0.2-0.4-0.3l-0.5-0.1c-0.2,0-0.3-0.1-0.5-0.2c-0.1-0.1-0.2-0.2-0.2-0.4c0-0.4,0.4-0.7,0.9-0.7c0.3,0,0.6,0.1,0.8,0.3
			c0.1,0.1,0.2,0.3,0.2,0.5H298.1z"/>
		<path class="st4" d="M299.6,179.2v0.2c0.2-0.2,0.4-0.3,0.7-0.3c0.6,0,1,0.5,1,1.2s-0.4,1.2-1,1.2c-0.3,0-0.5-0.1-0.7-0.3v1h-0.4
			v-3L299.6,179.2z M299.6,180.4c0,0.6,0.2,0.9,0.6,0.9s0.6-0.3,0.6-0.8s-0.2-0.8-0.6-0.8S299.6,179.9,299.6,180.4L299.6,180.4z"/>
		<path class="st4" d="M302,180c0-0.2,0.1-0.4,0.2-0.6c0.2-0.2,0.5-0.3,0.7-0.3c0.6,0,0.9,0.3,0.9,0.7v1.1c0,0.2,0,0.2,0.1,0.2h0.1
			v0.3h-0.3c-0.2,0-0.3-0.1-0.3-0.3c-0.2,0.2-0.5,0.3-0.8,0.3c-0.4,0-0.7-0.2-0.7-0.6c0,0,0-0.1,0-0.1c0-0.4,0.2-0.6,0.7-0.7
			l0.5-0.1c0.3,0,0.3-0.1,0.3-0.2s-0.2-0.4-0.5-0.4c-0.2,0-0.4,0-0.5,0.2c0,0.1,0,0.1,0,0.3L302,180z M303.4,180.4l-0.3,0.1
			l-0.5,0.1c-0.3,0.1-0.4,0.2-0.4,0.4s0.2,0.4,0.4,0.4c0.3,0,0.6-0.3,0.7-0.6V180.4z"/>
		<path class="st4" d="M305,179.2v0.4c0.1-0.1,0.1-0.2,0.2-0.2c0.1-0.1,0.2-0.2,0.4-0.2c0.1,0,0.2,0,0.2,0.1v0.4c-0.1,0-0.1,0-0.2,0
			c-0.4,0-0.6,0.3-0.6,0.7c0,0,0,0,0,0v1.2h-0.4v-2.3L305,179.2z"/>
		<path class="st4" d="M306.6,180.5c0,0.5,0.3,0.7,0.6,0.7c0.3,0,0.5-0.2,0.6-0.4h0.4c-0.1,0.5-0.5,0.8-1,0.8
			c-0.7-0.1-1.1-0.7-1-1.4c0.1-0.5,0.5-1,1-1c0.4,0,0.8,0.3,0.9,0.7c0.1,0.2,0.1,0.4,0.1,0.6H306.6z M307.8,180.2
			c0-0.4-0.2-0.6-0.6-0.6c-0.3,0-0.6,0.3-0.6,0.6c0,0,0,0,0,0H307.8z"/>
		<path class="st4" d="M309.3,179.2v0.3c0.2-0.2,0.4-0.3,0.7-0.3c0.2,0,0.5,0.1,0.6,0.2c0.1,0.2,0.2,0.4,0.1,0.6v1.5h-0.4V180
			c0-0.3-0.1-0.5-0.4-0.5c-0.3,0-0.6,0.2-0.6,0.5c0,0,0,0.1,0,0.1v1.4h-0.4v-2.3L309.3,179.2z"/>
		<path class="st4" d="M312.5,179.6h-0.4v1.4c0,0.1,0.1,0.2,0.2,0.2c0.1,0,0.2,0,0.2-0.1v0.4c-0.1,0-0.2,0-0.4,0.1
			c-0.3,0-0.5-0.2-0.5-0.6v-1.4h-0.3v-0.4h0.3v-0.7h0.4v0.7h0.4V179.6z"/>
		<path class="st4" d="M314.5,178.4h0.4v1.1c0.2-0.2,0.5-0.3,0.7-0.3c0.6,0,1,0.5,1,1.2s-0.4,1.2-1,1.2c-0.3,0-0.5-0.1-0.7-0.3v0.2
			h-0.4L314.5,178.4z M314.9,180.4c0,0.6,0.2,0.9,0.6,0.9s0.6-0.3,0.6-0.8s-0.2-0.8-0.6-0.8S314.9,179.9,314.9,180.4L314.9,180.4z"
			/>
		<path class="st4" d="M317.3,180c0-0.2,0.1-0.4,0.2-0.6c0.2-0.2,0.5-0.3,0.7-0.3c0.6,0,0.9,0.3,0.9,0.7v1.1c0,0.2,0,0.2,0.1,0.2
			h0.1v0.3H319c-0.2,0-0.3-0.1-0.3-0.3c-0.2,0.2-0.5,0.3-0.8,0.3c-0.4,0-0.7-0.2-0.7-0.6c0,0,0,0,0-0.1c0-0.4,0.2-0.6,0.7-0.7
			l0.5-0.1c0.3,0,0.3-0.1,0.3-0.2s-0.2-0.4-0.5-0.4c-0.2,0-0.4,0-0.5,0.2c0,0.1-0.1,0.2,0,0.3L317.3,180z M318.7,180.4l-0.3,0.1
			l-0.4,0.1c-0.3,0.1-0.4,0.2-0.4,0.4s0.2,0.4,0.4,0.4c0.3,0,0.6-0.3,0.7-0.6V180.4z"/>
		<path class="st4" d="M321.5,180c0-0.3-0.3-0.5-0.6-0.5c-0.4,0-0.7,0.3-0.7,0.8s0.3,0.9,0.7,0.9c0.3,0,0.6-0.2,0.6-0.5c0,0,0,0,0,0
			h0.4c0,0.5-0.4,0.9-1,0.9c0,0,0,0,0,0c-0.7,0-1.2-0.5-1.2-1.2c0-0.7,0.5-1.2,1.2-1.2c0.5-0.1,0.9,0.3,1,0.8c0,0,0,0,0,0L321.5,180
			z"/>
		<path class="st4" d="M324.6,181.5H324l-0.8-1.2l-0.3,0.3v0.9h-0.4v-3.1h0.4v1.7l1-0.9h0.6l-0.9,0.8L324.6,181.5z"/>
		<path class="st4" d="M327,179.2v2.2c0,0.2-0.1,0.5-0.2,0.6c-0.2,0.2-0.5,0.3-0.8,0.2c-0.3,0-0.6-0.1-0.8-0.3
			c-0.1-0.1-0.2-0.3-0.2-0.4h0.4c0,0.2,0.2,0.3,0.5,0.3s0.6-0.2,0.6-0.6v-0.3c-0.2,0.2-0.4,0.3-0.7,0.3c-0.6,0-1-0.4-1-1
			c0,0,0-0.1,0-0.1c-0.1-0.5,0.3-1.1,0.8-1.1c0.1,0,0.1,0,0.2,0c0.3,0,0.5,0.1,0.7,0.3v-0.2L327,179.2z M325.4,180.3
			c0,0.5,0.2,0.8,0.6,0.8s0.6-0.3,0.6-0.8s-0.2-0.8-0.6-0.8S325.3,179.9,325.4,180.3L325.4,180.3z"/>
		<path class="st4" d="M328.1,179.2v0.4c0.1-0.1,0.1-0.2,0.2-0.2c0.1-0.1,0.3-0.2,0.4-0.2c0.1,0,0.2,0,0.2,0.1v0.4
			c-0.1,0-0.1,0-0.2,0c-0.4,0-0.6,0.3-0.6,0.7c0,0,0,0,0,0v1.2h-0.4v-2.3L328.1,179.2z"/>
		<path class="st4" d="M331.5,180.4c0,0.6-0.5,1.1-1.1,1.1s-1.1-0.5-1.1-1.1c-0.1-0.6,0.3-1.2,1-1.2s1.2,0.3,1.2,1
			C331.6,180.2,331.6,180.3,331.5,180.4z M329.8,180.4c0,0.5,0.2,0.8,0.7,0.8s0.7-0.3,0.7-0.8s-0.2-0.9-0.7-0.9
			S329.8,179.9,329.8,180.4L329.8,180.4z"/>
		<path class="st4" d="M333.7,181.5v-0.3c-0.2,0.2-0.4,0.3-0.7,0.3c-0.2,0-0.5-0.1-0.6-0.2c-0.1-0.2-0.2-0.4-0.1-0.6v-1.5h0.4v1.5
			c0,0.3,0.1,0.5,0.4,0.5c0.3,0,0.6-0.2,0.6-0.5c0,0,0-0.1,0-0.1v-1.4h0.4v2.3L333.7,181.5z"/>
		<path class="st4" d="M335.2,179.2v0.3c0.2-0.2,0.4-0.3,0.7-0.3c0.2,0,0.5,0.1,0.6,0.2c0.1,0.2,0.2,0.4,0.1,0.6v1.5h-0.4V180
			c0-0.3-0.1-0.5-0.4-0.5c-0.3,0-0.6,0.2-0.6,0.5c0,0,0,0.1,0,0.1v1.4h-0.4v-2.3L335.2,179.2z"/>
		<path class="st4" d="M339.5,181.5h-0.4v-0.2c-0.2,0.2-0.4,0.3-0.7,0.3c-0.6,0-1-0.5-1-1.2s0.4-1.2,1-1.2c0.3,0,0.5,0.1,0.7,0.3
			v-1.1h0.4V181.5z M337.8,180.4c0,0.5,0.2,0.8,0.6,0.8s0.6-0.3,0.6-0.8s-0.2-0.9-0.6-0.9S337.8,179.9,337.8,180.4L337.8,180.4z"/>
		<path class="st4" d="M342.2,181.5l-0.7-2.3h0.5l0.3,1.2c0,0,0,0.1,0.1,0.4l0.1,0.3l0.1-0.3c0-0.1,0-0.1,0-0.2v-0.2l0.3-1.2h0.4
			l0.3,1.2c0,0.2,0.1,0.4,0.1,0.6c0.1-0.3,0.1-0.5,0.1-0.6l0.3-1.2h0.5l-0.7,2.3h-0.4l-0.3-1.1c-0.1-0.3-0.1-0.4-0.1-0.6l-0.1,0.6
			l-0.3,1.1L342.2,181.5z"/>
		<path class="st4" d="M345.5,178.9h-0.4v-0.5h0.4V178.9z M345.5,181.5h-0.4v-2.3h0.4V181.5z"/>
		<path class="st4" d="M347.2,179.6h-0.4v1.4c0,0.1,0.1,0.2,0.2,0.2c0.1,0,0.2,0,0.2-0.1v0.4c-0.1,0-0.2,0-0.4,0.1
			c-0.3,0-0.5-0.2-0.5-0.6v-1.4H346v-0.4h0.3v-0.7h0.4v0.7h0.4L347.2,179.6z"/>
		<path class="st4" d="M348.1,179.5c0.2-0.2,0.4-0.3,0.7-0.3c0.4,0,0.8,0.2,0.8,0.6c0,0.1,0,0.1,0,0.2v1.5h-0.4v-1.4
			c0-0.1,0-0.3-0.1-0.4c-0.1-0.1-0.2-0.1-0.4-0.1c-0.3,0-0.6,0.2-0.6,0.5c0,0,0,0.1,0,0.1v1.3h-0.4v-3.1h0.4V179.5z"/>
		<path class="st4" d="M352.4,179.2v2.4c0,0.2,0,0.3-0.1,0.5c-0.1,0.1-0.3,0.2-0.5,0.2c-0.1,0-0.2,0-0.3,0v-0.4c0.1,0,0.1,0,0.2,0
			c0.2,0,0.2-0.1,0.2-0.3v-2.3L352.4,179.2z M352.4,178.9h-0.4v-0.5h0.4V178.9z"/>
		<path class="st4" d="M354.6,181.5v-0.3c-0.2,0.2-0.4,0.3-0.7,0.3c-0.2,0-0.5-0.1-0.6-0.2c-0.1-0.2-0.2-0.4-0.1-0.6v-1.5h0.4v1.5
			c0,0.3,0.1,0.5,0.4,0.5c0.3,0,0.6-0.2,0.6-0.5c0,0,0-0.1,0-0.1v-1.4h0.4v2.3L354.6,181.5z"/>
		<path class="st4" d="M357.1,180c0-0.2-0.2-0.4-0.5-0.4c0,0,0,0,0,0c-0.2,0-0.4,0.1-0.4,0.3s0.1,0.2,0.3,0.2l0.5,0.1
			c0.5,0.1,0.7,0.3,0.7,0.7s-0.4,0.7-1,0.7s-1-0.3-1-0.8h0.4c0,0.3,0.2,0.5,0.6,0.5s0.5-0.1,0.5-0.4s-0.1-0.2-0.4-0.3l-0.5-0.1
			c-0.2,0-0.3-0.1-0.5-0.2c-0.1-0.1-0.2-0.2-0.2-0.4c0-0.4,0.4-0.7,0.9-0.7c0.3,0,0.6,0.1,0.8,0.3c0.1,0.1,0.2,0.3,0.2,0.5H357.1z"
			/>
		<path class="st4" d="M359.1,179.6h-0.4v1.4c0,0.1,0.1,0.2,0.2,0.2c0.1,0,0.2,0,0.2-0.1v0.4c-0.1,0-0.2,0-0.4,0.1
			c-0.3,0-0.5-0.2-0.5-0.6v-1.4H358v-0.4h0.3v-0.7h0.4v0.7h0.4L359.1,179.6z"/>
		<path class="st4" d="M361.1,180c0-0.2,0.1-0.4,0.2-0.6c0.2-0.2,0.5-0.3,0.7-0.3c0.6,0,0.9,0.3,0.9,0.7v1.1c0,0.2,0,0.2,0.1,0.2
			h0.1v0.3h-0.3c-0.2,0-0.3-0.1-0.3-0.3c0,0,0,0,0,0c-0.2,0.2-0.5,0.3-0.8,0.3c-0.4,0-0.7-0.2-0.7-0.6c0,0,0,0,0-0.1
			c0-0.4,0.2-0.6,0.7-0.7l0.5-0.1c0.3,0,0.3-0.1,0.3-0.2s-0.2-0.4-0.5-0.4c-0.2,0-0.4,0-0.5,0.2c0,0.1-0.1,0.2,0,0.3L361.1,180z
			 M362.5,180.4l-0.3,0.1l-0.5,0.1c-0.3,0.1-0.4,0.2-0.4,0.4s0.2,0.4,0.4,0.4c0.3,0,0.6-0.3,0.7-0.6V180.4z"/>
		<path class="st4" d="M366.1,179.6h-0.4v1.9h-0.4v-1.9H365v-0.4h0.3v-0.4c0-0.4,0.2-0.6,0.6-0.6c0.1,0,0.2,0,0.2,0v0.4H366
			c-0.2,0-0.2,0.1-0.2,0.3v0.2h0.4L366.1,179.6z"/>
		<path class="st4" d="M366.9,180.5c0,0.5,0.3,0.7,0.7,0.7c0.3,0,0.5-0.2,0.5-0.4h0.4c-0.1,0.5-0.5,0.8-1,0.8
			c-0.7-0.1-1.1-0.7-1-1.4c0.1-0.5,0.5-1,1-1c0.4,0,0.8,0.3,0.9,0.7c0.1,0.2,0.1,0.4,0.1,0.6H366.9z M368.1,180.2
			c0-0.4-0.2-0.6-0.6-0.6c-0.3,0-0.6,0.3-0.6,0.6H368.1z"/>
		<path class="st4" d="M369.6,181.5l-0.7-2.3h0.5l0.3,1.2l0.1,0.4c0,0.1,0,0.1,0,0.3l0.1-0.3c0-0.1,0-0.1,0-0.2v-0.2l0.3-1.2h0.4
			l0.3,1.2c0,0.2,0.1,0.4,0.1,0.6c0.1-0.3,0.1-0.5,0.1-0.6l0.3-1.2h0.5l-0.7,2.3h-0.4l-0.3-1.1c-0.1-0.3-0.1-0.4-0.1-0.6l-0.1,0.6
			l-0.3,1.1L369.6,181.5z"/>
		<path class="st4" d="M375.6,180c0-0.3-0.3-0.5-0.6-0.5c-0.4,0-0.7,0.3-0.7,0.8s0.3,0.9,0.7,0.9c0.3,0,0.6-0.2,0.6-0.5c0,0,0,0,0,0
			h0.4c0,0.5-0.4,0.9-1,0.9c0,0,0,0,0,0c-0.7,0-1.2-0.5-1.2-1.2c0-0.7,0.5-1.2,1.2-1.2c0.5-0.1,0.9,0.3,1,0.8c0,0,0,0,0,0L375.6,180
			z"/>
		<path class="st4" d="M377.1,181.5h-0.4v-3.1h0.4V181.5z"/>
		<path class="st4" d="M378.3,178.9h-0.4v-0.5h0.4V178.9z M378.3,181.5h-0.4v-2.3h0.4V181.5z"/>
		<path class="st4" d="M380.6,180c0-0.3-0.3-0.5-0.6-0.5c-0.4,0-0.7,0.3-0.7,0.8s0.3,0.9,0.7,0.9c0.3,0,0.6-0.2,0.6-0.5c0,0,0,0,0,0
			h0.4c0,0.5-0.4,0.9-1,0.9c0,0,0,0,0,0c-0.7,0-1.2-0.5-1.2-1.2c0-0.7,0.5-1.2,1.2-1.2c0.5-0.1,0.9,0.3,1,0.8c0,0,0,0,0,0L380.6,180
			z"/>
		<path class="st4" d="M383.7,181.5h-0.5l-0.8-1.2l-0.3,0.3v0.9h-0.4v-3.1h0.4v1.7l1-0.9h0.6l-0.9,0.8L383.7,181.5z"/>
		<path class="st4" d="M385.5,180c0-0.3-0.3-0.4-0.5-0.4c0,0,0,0,0,0c-0.3,0-0.4,0.1-0.4,0.3s0.1,0.2,0.3,0.2l0.5,0.1
			c0.5,0.1,0.7,0.3,0.7,0.7s-0.4,0.7-1,0.7c-0.5,0.1-0.9-0.3-1-0.8c0,0,0,0,0,0h0.4c0,0.3,0.2,0.5,0.6,0.5s0.5-0.1,0.5-0.4
			s-0.1-0.2-0.4-0.3l-0.5-0.1c-0.2,0-0.3-0.1-0.5-0.2c-0.1-0.1-0.2-0.2-0.2-0.4c0-0.4,0.4-0.7,0.9-0.7c0.3,0,0.6,0.1,0.8,0.3
			c0.1,0.1,0.2,0.3,0.2,0.5H385.5z"/>
		<path class="st4" d="M387.1,181.5h-0.5v-0.5h0.5V181.5z"/>
		<path class="st4" d="M277.8,186.6v2.1c0,0.3-0.1,0.6-0.3,0.8c-0.6,0.4-1.3,0.4-1.9,0c-0.2-0.2-0.3-0.5-0.3-0.8v-2.1h0.5v2.1
			c0,0.4,0.3,0.7,0.8,0.7s0.8-0.3,0.8-0.7v-2.1H277.8z"/>
		<path class="st4" d="M279,187.5v0.2c0.2-0.2,0.4-0.3,0.7-0.3c0.6,0,1,0.5,1,1.2s-0.4,1.2-1,1.2c-0.3,0-0.6-0.1-0.7-0.3v1h-0.4v-3
			L279,187.5z M279,188.6c0,0.6,0.2,0.9,0.6,0.9s0.6-0.3,0.6-0.8s-0.2-0.8-0.6-0.8S279,188.1,279,188.6z"/>
		<path class="st4" d="M281.8,189.8h-0.4v-3.1h0.4V189.8z"/>
		<path class="st4" d="M284.6,188.7c0.1,0.6-0.4,1.1-1,1.2c-0.6,0.1-1.1-0.4-1.2-1c0-0.1,0-0.1,0-0.2c-0.1-0.6,0.4-1.1,1-1.2
			c0.6-0.1,1.1,0.4,1.2,1C284.6,188.5,284.6,188.6,284.6,188.7z M282.8,188.7c0,0.5,0.2,0.8,0.7,0.8s0.6-0.3,0.6-0.8
			s-0.2-0.9-0.7-0.9S282.8,188.1,282.8,188.7L282.8,188.7z"/>
		<path class="st4" d="M285.2,188.3c0-0.2,0.1-0.4,0.2-0.6c0.2-0.2,0.5-0.3,0.7-0.2c0.6,0,0.9,0.3,0.9,0.7v1.1c0,0.2,0,0.2,0.1,0.2
			c0,0,0.1,0,0.1,0v0.3c-0.1,0-0.2,0-0.3,0c-0.2,0-0.3-0.1-0.3-0.3c-0.2,0.2-0.5,0.3-0.8,0.3c-0.4,0-0.7-0.2-0.7-0.6c0,0,0,0,0-0.1
			c0-0.4,0.2-0.6,0.7-0.7l0.5-0.1c0.3,0,0.3-0.1,0.3-0.2s-0.2-0.4-0.5-0.4c-0.2,0-0.4,0.1-0.5,0.2c0,0.1-0.1,0.2,0,0.3L285.2,188.3z
			 M286.6,188.6l-0.3,0.1l-0.4,0.1c-0.3,0.1-0.4,0.2-0.4,0.4s0.2,0.4,0.4,0.4c0.3,0,0.6-0.2,0.7-0.6L286.6,188.6z"/>
		<path class="st4" d="M289.8,189.8h-0.4v-0.2c-0.2,0.2-0.5,0.3-0.7,0.3c-0.6,0-1-0.5-1-1.2s0.4-1.2,1-1.2c0.3,0,0.5,0.1,0.7,0.3
			v-1.1h0.4V189.8z M288.1,188.6c0,0.5,0.2,0.8,0.6,0.8s0.6-0.3,0.6-0.8s-0.2-0.9-0.6-0.9S288.1,188.1,288.1,188.6z"/>
		<path class="st4" d="M294,187.5l-1,2.6c-0.1,0.3-0.3,0.4-0.6,0.4c-0.1,0-0.2,0-0.4-0.1v-0.4c0.1,0,0.2,0.1,0.3,0.1
			c0.1,0,0.3-0.1,0.3-0.2l0.1-0.2l-0.9-2.2h0.5l0.5,1.3c0.1,0.2,0.1,0.2,0.2,0.5c0-0.2,0.1-0.4,0.2-0.5l0.5-1.3H294z"/>
		<path class="st4" d="M296.6,188.7c0.1,0.6-0.4,1.1-1,1.2c0,0-0.1,0-0.1,0c-0.6,0-1.1-0.5-1.1-1.1c0,0,0-0.1,0-0.1
			c-0.1-0.6,0.4-1.1,1-1.2c0.6-0.1,1.1,0.4,1.2,1C296.6,188.5,296.6,188.6,296.6,188.7L296.6,188.7z M294.8,188.7
			c0,0.5,0.2,0.8,0.7,0.8s0.7-0.3,0.7-0.8s-0.2-0.9-0.7-0.9S294.8,188.1,294.8,188.7L294.8,188.7z"/>
		<path class="st4" d="M298.7,189.8v-0.3c-0.2,0.2-0.4,0.3-0.7,0.3c-0.2,0-0.5-0.1-0.6-0.2c-0.1-0.2-0.2-0.4-0.1-0.6v-1.5h0.4v1.5
			c0,0.3,0.1,0.5,0.4,0.5c0.3,0,0.6-0.2,0.6-0.5c0,0,0-0.1,0-0.1v-1.4h0.4v2.3H298.7z"/>
		<path class="st4" d="M300.3,187.5v0.4c0.1-0.1,0.1-0.2,0.2-0.2c0.1-0.1,0.3-0.2,0.4-0.2c0.1,0,0.2,0,0.2,0.1v0.4
			c-0.1,0-0.1,0-0.2,0c-0.4,0-0.6,0.3-0.6,0.7c0,0,0,0,0,0v1.2h-0.4v-2.3L300.3,187.5z"/>
		<path class="st4" d="M303.6,187.1h-0.4v-0.5h0.4V187.1z M303.6,189.8h-0.4v-2.3h0.4V189.8z"/>
		<path class="st4" d="M304.8,187.5v0.3c0.1-0.2,0.4-0.4,0.6-0.3c0.3,0,0.5,0.1,0.6,0.4c0.1-0.3,0.4-0.4,0.7-0.4
			c0.2,0,0.4,0.1,0.6,0.2c0.1,0.2,0.2,0.4,0.1,0.6v1.5h-0.4v-1.5c0-0.3-0.1-0.4-0.4-0.4s-0.5,0.2-0.5,0.6v1.4h-0.4v-1.6
			c0-0.3-0.1-0.4-0.4-0.4c-0.3,0-0.5,0.2-0.5,0.5c0,0,0,0,0,0.1v1.4h-0.4v-2.3H304.8z"/>
		<path class="st4" d="M308.1,188.3c0-0.2,0.1-0.4,0.2-0.6c0.2-0.2,0.5-0.3,0.7-0.2c0.6,0,0.9,0.3,0.9,0.7v1.1c0,0.2,0,0.2,0.1,0.2
			c0,0,0.1,0,0.1,0v0.3c-0.1,0-0.2,0-0.3,0c-0.2,0-0.3-0.1-0.3-0.3c-0.2,0.2-0.5,0.3-0.8,0.3c-0.4,0-0.7-0.2-0.7-0.6c0,0,0,0,0-0.1
			c0-0.4,0.2-0.6,0.7-0.7l0.5-0.1c0.3,0,0.3-0.1,0.3-0.2s-0.2-0.4-0.5-0.4c-0.2,0-0.4,0-0.5,0.2c0,0.1-0.1,0.2,0,0.3L308.1,188.3z
			 M309.5,188.6l-0.3,0.1l-0.5,0.1c-0.3,0.1-0.4,0.2-0.4,0.4s0.2,0.4,0.4,0.4c0.3,0,0.6-0.2,0.7-0.6L309.5,188.6z"/>
		<path class="st4" d="M312.6,187.5v2.2c0,0.2-0.1,0.5-0.2,0.6c-0.2,0.2-0.5,0.3-0.8,0.2c-0.3,0-0.6-0.1-0.8-0.3
			c-0.1-0.1-0.2-0.3-0.2-0.4h0.4c0,0.2,0.2,0.3,0.5,0.3s0.6-0.2,0.6-0.6v-0.3c-0.2,0.2-0.4,0.3-0.7,0.3c-0.6,0-1-0.4-1-1
			c0,0,0-0.1,0-0.1c-0.1-0.5,0.3-1.1,0.8-1.1c0.1,0,0.1,0,0.2,0c0.3,0,0.5,0.1,0.7,0.3v-0.2L312.6,187.5z M311,188.6
			c0,0.5,0.2,0.8,0.6,0.8s0.6-0.3,0.6-0.7s-0.2-0.8-0.6-0.8S311,188.1,311,188.6z"/>
		<path class="st4" d="M313.7,188.8c0,0.5,0.3,0.7,0.7,0.7c0.3,0,0.5-0.1,0.5-0.4h0.4c-0.1,0.5-0.5,0.8-1,0.8
			c-0.6,0-1.1-0.5-1.1-1.1c0,0,0-0.1,0-0.1c-0.1-0.6,0.4-1.1,1-1.2c0,0,0.1,0,0.1,0c0.4,0,0.8,0.3,0.9,0.7c0.1,0.2,0.1,0.4,0.1,0.6
			L313.7,188.8z M314.9,188.4c0-0.4-0.2-0.6-0.6-0.6c-0.4,0-0.6,0.3-0.6,0.6c0,0,0,0,0,0H314.9z"/>
		<path class="st4" d="M318.4,187.9H318v1.4c0,0.1,0.1,0.2,0.2,0.2c0.1,0,0.2,0,0.2-0.1v0.4c-0.1,0-0.2,0-0.4,0.1
			c-0.3,0-0.5-0.2-0.5-0.6v-1.4h-0.3v-0.3h0.3v-0.7h0.4v0.7h0.4L318.4,187.9z"/>
		<path class="st4" d="M321,188.7c-0.1,0.6-0.6,1-1.2,1s-1-0.6-1-1.2c0.1-0.6,0.5-1,1.1-1c0.6,0,1.1,0.5,1.1,1.1
			C321,188.6,321,188.6,321,188.7z M319.2,188.7c0,0.5,0.2,0.8,0.7,0.8s0.7-0.3,0.7-0.8s-0.2-0.9-0.7-0.9S319.3,188.1,319.2,188.7
			L319.2,188.7z"/>
		<path class="st4" d="M324.5,188.2c0-0.3-0.3-0.4-0.5-0.4c0,0,0,0,0,0c-0.3,0-0.4,0.1-0.4,0.3s0.1,0.2,0.3,0.2l0.5,0.1
			c0.5,0.1,0.7,0.3,0.7,0.7s-0.4,0.7-0.9,0.7c-0.5,0-1-0.3-1-0.8c0,0,0,0,0,0h0.4c0,0.3,0.2,0.5,0.6,0.5s0.5-0.1,0.5-0.4
			s-0.1-0.2-0.4-0.3l-0.5-0.1c-0.2,0-0.3-0.1-0.5-0.2c-0.1-0.1-0.2-0.2-0.2-0.4c0-0.4,0.4-0.7,0.9-0.7c0.3,0,0.6,0.1,0.8,0.3
			c0.1,0.1,0.2,0.3,0.2,0.4H324.5z"/>
		<path class="st4" d="M326.5,187.9h-0.4v1.4c0,0.1,0.1,0.2,0.2,0.2c0.1,0,0.2,0,0.2-0.1v0.4c-0.1,0-0.2,0-0.4,0.1
			c-0.3,0-0.5-0.2-0.5-0.6v-1.4h-0.3v-0.3h0.3v-0.7h0.4v0.7h0.4V187.9z"/>
		<path class="st4" d="M327,188.3c0-0.2,0.1-0.4,0.2-0.6c0.2-0.2,0.5-0.3,0.7-0.2c0.6,0,0.9,0.3,0.9,0.7v1.1c0,0.2,0,0.2,0.1,0.2
			c0,0,0.1,0,0.1,0v0.3c-0.1,0-0.2,0-0.3,0c-0.2,0-0.3-0.1-0.3-0.3c-0.2,0.2-0.5,0.3-0.8,0.3c-0.4,0-0.7-0.2-0.7-0.6c0,0,0,0,0-0.1
			c0-0.4,0.2-0.6,0.7-0.7l0.5-0.1c0.3,0,0.3-0.1,0.3-0.2s-0.2-0.4-0.5-0.4c-0.2,0-0.4,0-0.5,0.2c0,0.1-0.1,0.2,0,0.3L327,188.3z
			 M328.4,188.6l-0.3,0.1l-0.4,0.1c-0.3,0.1-0.4,0.2-0.4,0.4s0.2,0.4,0.4,0.4c0.3,0,0.6-0.2,0.7-0.6L328.4,188.6z"/>
		<path class="st4" d="M330,187.5v0.4c0.1-0.1,0.1-0.2,0.2-0.2c0.1-0.1,0.3-0.2,0.4-0.2c0.1,0,0.2,0,0.2,0.1v0.4c-0.1,0-0.1,0-0.2,0
			c-0.4,0-0.6,0.3-0.6,0.7c0,0,0,0,0,0v1.2h-0.4v-2.3L330,187.5z"/>
		<path class="st4" d="M332.2,187.9h-0.4v1.4c0,0.1,0.1,0.2,0.2,0.2c0.1,0,0.2,0,0.2-0.1v0.4c-0.1,0-0.2,0-0.4,0.1
			c-0.3,0-0.5-0.2-0.5-0.6v-1.4h-0.3v-0.3h0.3v-0.7h0.4v0.7h0.4V187.9z"/>
		<path class="st4" d="M333.2,189.8h-0.5v-0.5h0.5V189.8z M332.9,189l-0.1-1.1v-1.3h0.5v1.3l-0.1,1.1H332.9z"/>
		<path class="st5" d="M278.7,149.4h-3v-13.1h3V149.4z"/>
		<path class="st5" d="M283.9,139.9v0.9c0.6-0.8,1.6-1.2,2.6-1.2c2.1,0,3.3,1.4,3.3,3.6v6.1H287v-5.2c0.1-0.6,0-1.2-0.3-1.7
			c-0.3-0.4-0.7-0.6-1.1-0.6c-0.5,0-0.9,0.2-1.2,0.5c-0.3,0.4-0.5,1-0.4,1.6v5.3h-2.8v-9.5L283.9,139.9z"/>
		<path class="st5" d="M297.3,142.7c-0.1-0.7-0.7-1.1-1.6-1.1s-1.3,0.3-1.3,0.8s0.3,0.5,1.2,0.7l1.8,0.4c0.8,0.1,1.6,0.4,2.2,0.9
			c0.5,0.5,0.7,1.2,0.7,1.9c0,2-1.6,3.3-4.3,3.3s-4.3-1.2-4.4-3.3h2.6c0.1,0.9,0.7,1.3,1.9,1.3c0.9,0,1.5-0.4,1.5-0.9
			s-0.3-0.7-1.1-0.9l-1.7-0.4c-2.1-0.4-2.9-1.2-2.9-2.7c0-1.9,1.5-3.1,4-3.1s3.9,1.1,4.2,3.1H297.3z"/>
		<path class="st5" d="M306.8,142h-1.7v3.7c0,1.5,0.1,1.6,0.7,1.6h1v2.1h-1.7c-1.2,0-1.8-0.2-2.2-0.6s-0.5-1-0.5-2.4V142h-1.3v-2
			h1.3v-3h2.8v3h1.7L306.8,142z"/>
		<path class="st5" d="M308.3,142.9c0.2-2.2,1.5-3.2,4.2-3.2c1.2-0.1,2.3,0.3,3.3,1c0.7,0.7,1.1,1.8,0.9,2.8v4.4c0,1,0,1.2,0.4,1.6
			h-2.9c-0.1-0.3-0.1-0.4-0.2-0.7c-0.7,0.7-1.7,1-2.7,1c-2.1,0-3.5-1.2-3.5-3s1.1-2.7,3.8-3.1l1.5-0.3c0.6-0.1,0.8-0.2,0.8-0.6
			s-0.5-0.9-1.5-0.9s-1.6,0.4-1.7,1.1L308.3,142.9z M314,144.9c-0.3,0.1-0.7,0.2-1,0.3l-1,0.2c-1,0.2-1.4,0.6-1.4,1.1s0.5,1,1.4,1
			c0.8,0,1.6-0.4,2-1.2L314,144.9z"/>
		<path class="st5" d="M321.8,139.9v0.9c0.6-0.8,1.6-1.2,2.6-1.2c2.1,0,3.3,1.4,3.3,3.6v6.1H325v-5.2c0.1-0.6,0-1.2-0.3-1.7
			c-0.3-0.4-0.7-0.6-1.1-0.6c-0.5,0-0.9,0.2-1.2,0.5c-0.3,0.4-0.5,1-0.4,1.6v5.3h-2.8v-9.5L321.8,139.9z"/>
		<path class="st5" d="M334.9,142h-1.7v3.7c0,1.5,0.1,1.6,0.7,1.6h1v2.1h-1.7c-1.2,0-1.8-0.2-2.2-0.6s-0.5-1-0.5-2.4V142h-1.3v-2
			h1.3v-3h2.8v3h1.7L334.9,142z"/>
		<path class="st5" d="M339.2,149.4h-2.8v-13.1h2.8V149.4z"/>
		<path class="st5" d="M350,139.9l-3.3,9.6c-0.5,1.6-0.8,2.1-1.3,2.5c-0.6,0.4-1.4,0.5-2.1,0.5h-1.6v-2.1h0.8c1,0,1.4-0.4,1.4-1.2
			c0-0.3,0-0.4-0.4-1.2l-3.1-8h3l1.4,4.3c0.3,0.9,0.3,0.9,0.5,1.7l0.1,0.4c0.1-0.6,0.3-1.3,0.5-2.1l1.2-4.3L350,139.9z"/>
		<path class="st5" d="M360,149.4h-2.9v-13.1h5.7c1.2-0.1,2.4,0.2,3.4,0.8c0.8,0.7,1.3,1.7,1.2,2.8c0.1,1.4-0.8,2.8-2.2,3.2
			c1.3,0.4,1.8,1.1,1.9,2.8l0.1,1.9c0,0.6,0.2,1.2,0.5,1.7H365c-0.4-0.3-0.5-0.5-0.5-1.1l-0.1-1.8c-0.1-1.6-0.8-2.3-2.3-2.3h-2
			L360,149.4z M362.9,141.8c1.1,0,1.7-0.6,1.7-1.5s-0.6-1.5-1.7-1.5H360v3L362.9,141.8z"/>
		<path class="st5" d="M372,145.4c0,1.1,1,2,2.1,2c0,0,0,0,0,0c0.7,0,1.3-0.3,1.6-0.9h2.8c-0.7,1.9-2.5,3.2-4.6,3c-2.8,0-5-2.2-5-5
			s2.2-5,5-5c1.9-0.1,3.6,1,4.2,2.8c0.4,1,0.5,2,0.5,3L372,145.4z M375.9,143.4c0-1-0.8-1.7-1.7-1.7c0,0-0.1,0-0.1,0
			c-1,0-1.9,0.7-2,1.7H375.9z"/>
		<path class="st5" d="M383.4,139.9v1.1c0.6-0.9,1.6-1.4,2.6-1.4c1.1-0.1,2.1,0.5,2.6,1.5c0.7-1,1.8-1.6,3-1.5
			c0.9,0,1.7,0.3,2.4,0.9c0.6,0.7,0.8,1.6,0.7,2.6v6.3h-2.8v-5.2c0-1.5-0.4-2.1-1.4-2.1s-1.4,0.6-1.4,2.1v5.2h-2.8v-5.2
			c0-1.5-0.4-2.1-1.4-2.1s-1.4,0.6-1.4,2.1v5.2h-2.8v-9.5L383.4,139.9z"/>
		<path class="st5" d="M406.7,144.7c0,2.8-2.3,5-5.1,4.9c-2.8,0-5-2.3-4.9-5.1c0-2.7,2.2-4.9,4.9-4.9c2.7-0.1,4.9,1.9,5.1,4.6
			C406.7,144.4,406.7,144.5,406.7,144.7z M399.4,144.6c0,1.8,0.8,2.8,2.2,2.8s2.2-1,2.2-2.7s-0.8-2.8-2.2-2.8
			S399.4,142.9,399.4,144.6z"/>
		<path class="st5" d="M410.8,149.4l-3.4-9.5h2.9l1.1,3.6c0.2,0.7,0.4,1.6,0.7,2.7c0.2-1.1,0.5-2.2,0.6-2.7l1-3.6h3l-3.2,9.5H410.8z
			"/>
		<path class="st5" d="M420.2,145.4c0,1.1,1,2,2.1,2c0,0,0,0,0,0c0.7,0.1,1.3-0.3,1.6-0.9h2.8c-0.7,1.9-2.5,3.2-4.6,3
			c-2.8,0-5-2.2-5-5s2.2-5,5-5c1.9-0.1,3.6,1,4.2,2.8c0.4,1,0.5,2,0.5,3L420.2,145.4z M424.1,143.4c0-0.9-0.8-1.7-1.7-1.7
			c0,0-0.1,0-0.1,0c-1,0-1.9,0.7-2,1.7H424.1z"/>
		<path class="st5" d="M437.8,149.4h-3v-13.1h3V149.4z"/>
		<path class="st5" d="M443,139.9v1.1c0.5-0.9,1.5-1.4,2.6-1.4c1.1-0.1,2.1,0.5,2.6,1.5c0.7-1,1.8-1.6,3-1.5c0.9,0,1.7,0.3,2.4,0.9
			c0.6,0.7,0.8,1.6,0.8,2.6v6.3h-2.8v-5.2c0-1.5-0.4-2.1-1.4-2.1s-1.4,0.6-1.4,2.1v5.2h-2.8v-5.2c0-1.5-0.4-2.1-1.4-2.1
			s-1.4,0.6-1.4,2.1v5.2h-2.8v-9.5L443,139.9z"/>
		<path class="st5" d="M456.7,142.9c0.2-2.2,1.5-3.2,4.2-3.2c1.2-0.1,2.3,0.3,3.3,1c0.7,0.7,1.1,1.8,0.9,2.8v4.4c0,1,0,1.2,0.4,1.6
			h-2.9c-0.1-0.3-0.1-0.4-0.2-0.7c-0.7,0.7-1.7,1-2.7,1c-2.1,0-3.5-1.2-3.5-3s1.1-2.7,3.8-3.1l1.5-0.3c0.6-0.1,0.8-0.2,0.8-0.6
			s-0.5-0.9-1.5-0.9s-1.6,0.4-1.7,1.1L456.7,142.9z M462.4,144.9c-0.3,0.1-0.7,0.2-1,0.3l-1,0.2c-1,0.2-1.4,0.6-1.4,1.1s0.5,1,1.4,1
			c0.8,0,1.6-0.4,2-1.2L462.4,144.9z"/>
		<path class="st5" d="M476.6,139.9v8.5c0,1.6-0.2,2.2-0.9,2.9c-1.1,0.9-2.4,1.4-3.8,1.3c-2.6,0-4.2-1.1-4.4-3h2.9
			c0.2,0.6,0.8,0.9,1.7,0.9c0.5,0,0.9-0.1,1.3-0.4c0.4-0.3,0.5-0.7,0.5-1.6v-0.6c-0.7,0.7-1.6,1.1-2.6,1c-2.4,0-4.3-1.9-4.3-4.2
			c0-0.1,0-0.2,0-0.3c-0.2-2.4,1.6-4.5,4-4.7c0.1,0,0.1,0,0.2,0c1.1-0.1,2.2,0.5,2.8,1.5l-0.1-1.2H476.6z M469.7,144.2
			c-0.1,1.2,0.7,2.2,1.9,2.3c0.1,0,0.1,0,0.2,0c1.3,0,2.1-0.9,2.1-2.4c0.1-1.2-0.7-2.2-1.9-2.3c-0.1,0-0.2,0-0.2,0
			c-1.2,0-2.1,1-2.1,2.1C469.6,144.1,469.7,144.2,469.7,144.2z"/>
		<path class="st5" d="M481.3,145.4c0,1.1,0.9,2,2,2c0,0,0.1,0,0.1,0c0.7,0.1,1.3-0.3,1.6-0.9h2.8c-0.7,1.9-2.5,3.2-4.6,3
			c-2.8,0-5-2.2-5-5s2.2-5,5-5c1.9-0.1,3.6,1,4.2,2.8c0.4,1,0.5,2,0.5,3L481.3,145.4z M485.1,143.4c0-1-0.8-1.7-1.7-1.7
			c0,0-0.1,0-0.1,0c-1-0.1-1.9,0.7-2,1.7H485.1z"/>
		<path class="st5" d="M275.7,156.3h5.3c1.2-0.1,2.4,0.1,3.4,0.7c0.9,0.6,1.5,1.6,1.5,2.7c0,1.2-0.7,2.3-1.9,2.8
			c1.3,0.5,2.2,1.8,2.2,3.2c0,1.1-0.5,2.2-1.4,2.9c-0.9,0.6-1.8,0.9-3.6,0.9h-5.6L275.7,156.3z M281.4,161.4c1.1,0,1.6-0.4,1.6-1.3
			s-0.5-1.3-1.6-1.3h-2.8v2.6H281.4z M281.4,166.9c1.2,0,1.9-0.6,1.9-1.6s-0.7-1.6-1.9-1.6h-2.8v3.2H281.4z"/>
		<path class="st5" d="M288.3,162.9c0.2-2.2,1.5-3.2,4.2-3.2c1.2-0.1,2.4,0.3,3.3,1c0.7,0.7,1.1,1.8,0.9,2.8v4.4c0,1,0,1.2,0.4,1.6
			h-2.9c-0.1-0.3-0.1-0.4-0.2-0.8c-0.7,0.7-1.7,1.1-2.7,1c-2.1,0-3.5-1.2-3.5-3s1.1-2.7,3.8-3.1l1.5-0.2c0.6-0.1,0.9-0.3,0.9-0.6
			s-0.5-0.9-1.5-0.9s-1.6,0.4-1.7,1.1L288.3,162.9z M294,164.9c-0.3,0.1-0.7,0.2-1,0.3l-1,0.2c-1,0.2-1.4,0.6-1.4,1.1s0.5,1,1.4,1
			c0.9,0,1.7-0.4,2-1.2L294,164.9z"/>
		<path class="st5" d="M305.1,163.3c-0.1-0.9-0.9-1.5-1.7-1.4c-1.3,0-2,1-2,2.7s0.7,2.8,2,2.8c1,0,1.5-0.5,1.8-1.6l2.7,0.1
			c-0.2,2.3-2.3,3.9-4.6,3.8c-2.9,0-4.7-1.9-4.7-5s1.8-5,4.8-5c2.5,0,4.2,1.4,4.3,3.7L305.1,163.3z"/>
		<path class="st5" d="M319,169.4h-3.4l-2.4-4l-0.9,0.9v3.2h-2.8v-13.2h2.8v6.9l2.9-3.3h3.5l-3.6,3.6L319,169.4z"/>
		<path class="st5" d="M329.2,160v8.5c0,1.6-0.2,2.2-0.9,2.9c-1,0.9-2.4,1.4-3.8,1.3c-2.7,0-4.2-1.1-4.5-3h2.9
			c0.2,0.6,0.8,0.9,1.7,0.9c0.5,0,0.9-0.1,1.3-0.4c0.4-0.3,0.5-0.7,0.5-1.6v-0.6c-0.7,0.7-1.6,1.1-2.5,1c-2.4,0-4.3-1.9-4.3-4.3
			c0-0.1,0-0.2,0-0.3c-0.2-2.4,1.6-4.5,4-4.7c0.1,0,0.1,0,0.2,0c1.1-0.1,2.2,0.5,2.8,1.5l-0.1-1.2L329.2,160z M322.3,164.3
			c-0.1,1.2,0.7,2.2,1.9,2.3c0.1,0,0.1,0,0.2,0c1.3,0,2.1-0.9,2.1-2.4c0.1-1.1-0.7-2.2-1.8-2.3c-0.1,0-0.2,0-0.3,0
			c-1.2,0-2.1,0.9-2.1,2.1C322.3,164.1,322.3,164.2,322.3,164.3L322.3,164.3z"/>
		<path class="st5" d="M334.3,159.9l-0.1,1.7c0.5-1.5,1.3-2,3.3-2v2.6c-0.2,0-0.5,0-0.7,0c-0.9-0.1-1.7,0.4-2.1,1.1
			c-0.3,1.1-0.5,2.2-0.4,3.3v2.7h-2.8v-9.5L334.3,159.9z"/>
		<path class="st5" d="M348.5,164.7c0,2.8-2.3,5-5.1,4.9c-2.8,0-5-2.3-4.9-5.1c0-2.7,2.2-4.9,4.9-4.9c2.7-0.1,4.9,1.9,5.1,4.6
			C348.6,164.4,348.6,164.6,348.5,164.7z M341.3,164.7c0,1.8,0.8,2.8,2.2,2.8s2.2-1,2.2-2.7s-0.8-2.8-2.2-2.8
			S341.3,162.9,341.3,164.7z"/>
		<path class="st5" d="M359,169.4h-2.6v-1c-0.5,0.9-1.5,1.4-2.5,1.3c-0.9,0-1.8-0.3-2.5-1c-0.7-0.8-1-1.8-0.9-2.8v-5.9h2.8v5.3
			c0,0.9,0,1.2,0.3,1.5c0.3,0.4,0.7,0.6,1.2,0.6c0.5,0,0.9-0.2,1.2-0.6c0.2-0.3,0.3-0.6,0.3-1.5v-5.3h2.8V169.4z"/>
		<path class="st5" d="M364.1,159.9v0.9c0.6-0.8,1.6-1.2,2.6-1.2c2.1,0,3.3,1.4,3.3,3.6v6.1h-2.8v-5.2c0.1-0.6,0-1.2-0.3-1.7
			c-0.3-0.4-0.7-0.6-1.1-0.6c-0.5,0-0.9,0.2-1.2,0.5c-0.3,0.4-0.5,1-0.4,1.6v5.3h-2.8v-9.5L364.1,159.9z"/>
		<path class="st5" d="M381.4,169.4h-2.7v-1c-0.6,0.8-1.6,1.3-2.6,1.3c-2.5,0-4.2-2-4.2-5s1.7-5,4.2-5c0.9,0,1.8,0.3,2.4,1v-4.3h2.8
			L381.4,169.4z M374.7,164.7c0,1.7,0.8,2.8,2,2.8s2-1.1,2-2.7s-0.8-2.8-2-2.8S374.7,163,374.7,164.7L374.7,164.7z"/>
		<path class="st5" d="M388.9,162.8c-0.1-0.7-0.7-1.1-1.6-1.1s-1.3,0.3-1.3,0.8s0.3,0.5,1.2,0.7l1.8,0.4c0.8,0.1,1.6,0.4,2.2,0.9
			c0.5,0.5,0.7,1.2,0.7,1.9c0,2-1.6,3.3-4.3,3.3s-4.3-1.2-4.4-3.3h2.6c0.2,0.9,0.8,1.3,1.9,1.3c0.9,0,1.5-0.4,1.5-0.9
			s-0.3-0.7-1.1-0.9l-1.7-0.4c-2.1-0.4-2.9-1.2-2.9-2.7c0-1.9,1.5-3.1,4-3.1s3.9,1.1,4.2,3.1H388.9z"/>
		<path class="st5" d="M411.9,163c0,4-2.7,6.7-6.5,6.7s-6.5-2.8-6.5-6.9c-0.1-1.9,0.6-3.8,2-5.2c1.2-1.1,2.8-1.7,4.5-1.7
			C409.4,156,411.9,158.8,411.9,163z M402,162.9c0,2.7,1.3,4.4,3.4,4.4s3.4-1.6,3.4-4.3s-1.3-4.4-3.4-4.4S402,160.1,402,162.9
			L402,162.9z"/>
		<path class="st5" d="M416.6,159.9v0.9c0.6-0.8,1.6-1.2,2.6-1.2c2.1,0,3.3,1.4,3.3,3.6v6.1h-2.8v-5.2c0.1-0.6,0-1.2-0.3-1.7
			c-0.3-0.4-0.7-0.6-1.1-0.6c-0.5,0-0.9,0.2-1.2,0.5c-0.3,0.4-0.5,1-0.4,1.6v5.3h-2.8v-9.5L416.6,159.9z"/>
		<path class="st5" d="M427.7,169.4h-2.8v-13.1h2.8V169.4z"/>
		<path class="st5" d="M432.8,158.6H430v-2.3h2.8L432.8,158.6z M432.8,169.4H430v-9.5h2.8L432.8,169.4z"/>
		<path class="st5" d="M437.9,159.9v0.9c0.6-0.8,1.6-1.2,2.6-1.2c2.1,0,3.3,1.4,3.3,3.6v6.1H441v-5.2c0.1-0.6,0-1.2-0.3-1.7
			c-0.3-0.4-0.7-0.6-1.1-0.6c-0.5,0-0.9,0.2-1.2,0.5c-0.3,0.4-0.5,1-0.4,1.6v5.3h-2.8v-9.5L437.9,159.9z"/>
		<path class="st5" d="M448.5,165.5c0,1.1,0.9,2,2,2c0,0,0.1,0,0.1,0c0.7,0.1,1.3-0.3,1.6-0.8h2.8c-0.7,1.9-2.5,3.2-4.6,3
			c-2.8,0-5-2.2-5-5s2.2-5,5-5c1.9-0.1,3.6,1,4.2,2.8c0.4,1,0.5,2,0.5,3L448.5,165.5z M452.4,163.5c0-1-0.8-1.7-1.7-1.7
			c0,0-0.1,0-0.1,0c-1-0.1-1.9,0.7-2,1.7H452.4z"/>
		<path class="st6" d="M277.5,124.4c-0.1-0.3-0.4-0.5-0.7-0.5c-0.6,0-0.9,0.4-0.9,1.1s0.3,1.1,0.9,1.1c0.4,0,0.7-0.2,0.7-0.6h0.8
			c-0.1,0.8-0.8,1.3-1.5,1.2c-1-0.1-1.7-1-1.6-2c0.1-0.8,0.8-1.5,1.6-1.6c0.7-0.1,1.4,0.4,1.5,1.2H277.5z"/>
		<path class="st6" d="M280.8,126.1h1.7v0.7h-2.4v-3.4h0.8V126.1z"/>
		<path class="st6" d="M285,126.7h-0.8v-3.4h0.8V126.7z"/>
		<path class="st6" d="M287.7,126.7H287v-3.4h1.3c0.3,0,0.7,0.1,0.9,0.3c0.2,0.2,0.4,0.6,0.4,0.9c0,0.3-0.1,0.6-0.3,0.8
			c-0.2,0.2-0.5,0.3-0.9,0.3h-0.7L287.7,126.7z M288.3,124.9c0.2,0,0.5-0.2,0.5-0.4c0,0,0,0,0-0.1c0-0.2-0.1-0.4-0.4-0.5
			c0,0-0.1,0-0.1,0h-0.6v0.9H288.3z"/>
		<path class="st6" d="M292.1,126.7h-0.8v-3.4h1.3c0.3,0,0.7,0.1,0.9,0.3c0.2,0.2,0.4,0.6,0.4,0.9c0,0.3-0.1,0.6-0.3,0.8
			c-0.2,0.2-0.5,0.3-0.9,0.3h-0.7V126.7z M292.7,124.9c0.2,0,0.5-0.2,0.5-0.4c0,0,0,0,0-0.1c0-0.2-0.2-0.5-0.4-0.5c0,0-0.1,0-0.1,0
			h-0.6v0.9H292.7z"/>
		<path class="st6" d="M296.5,126.7h-0.8v-3.4h0.8V126.7z"/>
		<path class="st6" d="M300.5,126.7l-1-1.7l-0.4-0.7c0,0.2,0,0.3,0,0.4s0,0.4,0,0.6v1.4h-0.7v-3.4h0.8l0.9,1.7
			c0.1,0.3,0.2,0.4,0.3,0.7c0-0.1,0-0.2,0-0.3v-2.1h0.7v3.4H300.5z"/>
		<path class="st6" d="M306.3,124.8v1.9h-0.5l-0.1-0.4c-0.2,0.4-0.6,0.6-1,0.5c-0.9,0-1.6-0.7-1.6-1.5c0-0.1,0-0.2,0-0.2
			c-0.1-0.9,0.6-1.7,1.5-1.8c0.1,0,0.1,0,0.2,0c0.7,0,1.3,0.4,1.5,1.1h-0.8c-0.1-0.3-0.4-0.5-0.7-0.5c-0.5,0-0.9,0.4-0.9,1.1
			s0.3,1.2,0.9,1.2c0.4,0,0.8-0.3,0.8-0.7h-0.8v-0.6L306.3,124.8z"/>
		<path class="st7" d="M312.8,126.7l-0.8-2c-0.1-0.3-0.2-0.5-0.2-0.7c0,0.3,0,0.5,0,0.8v2h-0.5v-3.4h0.6l0.8,2.2
			c0.1,0.2,0.2,0.4,0.2,0.6c0.1-0.3,0.1-0.4,0.2-0.6l0.9-2.2h0.6v3.4h-0.5v-2c0-0.2,0-0.5,0-0.8c-0.1,0.3-0.2,0.5-0.2,0.8l-0.8,2
			L312.8,126.7z"/>
		<path class="st7" d="M317.5,125.7l-0.3,1h-0.5l1.2-3.4h0.5l1.3,3.4h-0.5l-0.4-1H317.5z M318.1,123.8l-0.5,1.4h1L318.1,123.8z"/>
		<path class="st7" d="M324.5,124.9v1.8h-0.4v-0.6c-0.1,0.2-0.2,0.3-0.3,0.4c-0.2,0.2-0.5,0.3-0.8,0.2c-1-0.1-1.7-1-1.6-2
			c0.1-0.8,0.8-1.5,1.6-1.6c0.7,0,1.3,0.4,1.4,1.1H324c-0.1-0.4-0.5-0.7-0.9-0.7c-0.7,0-1.1,0.5-1.1,1.3s0.4,1.4,1.1,1.4
			c0.3,0,0.7-0.2,0.8-0.5c0.1-0.2,0.1-0.4,0.1-0.6h-1v-0.4L324.5,124.9z"/>
		<path class="st7" d="M327.3,126.7h-0.5v-3.4h0.5V126.7z"/>
		<path class="st7" d="M332,124.4c-0.1-0.4-0.5-0.7-0.9-0.7c-0.6,0-1.1,0.5-1.1,1.3s0.4,1.4,1.1,1.4c0.6,0,1-0.4,1-1h0.5
			c0,0.3-0.1,0.6-0.3,0.8c-0.3,0.4-0.7,0.6-1.2,0.6c-0.5,0-0.9-0.2-1.2-0.6c-0.3-0.4-0.4-0.8-0.4-1.2c-0.1-0.9,0.6-1.7,1.5-1.8
			c0,0,0.1,0,0.1,0c0.7,0,1.3,0.4,1.4,1.1L332,124.4z"/>
		<rect x="276.6" y="199.2" class="st8" width="107.3" height="49.6"/>
		<path class="st3" d="M459.9,249.7h-70.1v-50.9h70.1c0.4,0,0.8,0.3,0.8,0.8V249C460.6,249.4,460.3,249.7,459.9,249.7z"/>
		<path class="st9" d="M405.2,223.6v1.7c0,0.3-0.1,0.5-0.3,0.7c-0.5,0.3-1,0.3-1.5,0c-0.2-0.2-0.3-0.4-0.3-0.7v-1.7h0.6v1.7
			c0,0.1,0,0.2,0.1,0.3c0.1,0.1,0.2,0.1,0.4,0.1c0.1,0,0.2,0,0.3-0.1c0.1-0.1,0.1-0.2,0.1-0.3v-1.7H405.2z"/>
		<path class="st9" d="M407.1,226.1h-0.6v-2.6h1c0.3,0,0.5,0,0.7,0.2c0.2,0.2,0.3,0.4,0.3,0.7c0,0.2-0.1,0.4-0.2,0.6
			c-0.2,0.2-0.4,0.3-0.6,0.2h-0.5L407.1,226.1z M407.5,224.8c0.2,0,0.4-0.1,0.4-0.3c0-0.2-0.1-0.4-0.3-0.4c0,0-0.1,0-0.1,0h-0.5v0.7
			H407.5z"/>
		<path class="st9" d="M410.2,225.6h1.2v0.5h-1.8v-2.6h0.6V225.6z"/>
		<path class="st9" d="M415,224.9c0,0.7-0.6,1.3-1.3,1.3c-0.7,0-1.3-0.6-1.3-1.3c0-0.4,0.1-0.7,0.4-1c0.2-0.2,0.6-0.3,0.9-0.3
			c0.7,0,1.3,0.5,1.3,1.2C415,224.8,415,224.8,415,224.9z M413.1,224.9c0,0.5,0.2,0.9,0.7,0.9s0.7-0.3,0.7-0.8s-0.2-0.9-0.7-0.9
			S413,224.3,413.1,224.9L413.1,224.9z"/>
		<path class="st9" d="M416.7,225.6l-0.2,0.5h-0.6l0.9-2.6h0.7l0.8,2.6h-0.6l-0.1-0.5H416.7z M417.2,224.2l-0.3,1h0.6L417.2,224.2z"
			/>
		<path class="st9" d="M419.4,223.6h0.9c0.4,0,0.7,0.1,1,0.4c0.2,0.3,0.3,0.6,0.3,0.9c0,0.4-0.1,0.7-0.3,1c-0.3,0.3-0.6,0.4-1,0.3
			h-0.9L419.4,223.6z M420.4,225.7c0.2,0,0.4-0.1,0.5-0.2c0.1-0.2,0.1-0.4,0.1-0.5c0-0.2,0-0.4-0.1-0.5c-0.1-0.2-0.3-0.3-0.5-0.3
			H420v1.6L420.4,225.7z"/>
		<path class="st9" d="M425.3,226.1h-0.6v-2.6h0.6V226.1z"/>
		<path class="st9" d="M427.6,226.1l-0.4-1.4c0-0.1,0-0.2-0.1-0.2c0-0.1,0-0.1,0-0.2c0,0.1,0,0.1,0,0.2v1.6h-0.5v-2.6h0.8l0.3,1.3
			c0,0.2,0.1,0.4,0.1,0.6c0-0.1,0-0.1,0-0.1v-0.2c0,0,0-0.1,0-0.2v-0.2l0.3-1.3h0.8v2.6h-0.5v-1.6c0-0.1,0-0.1,0-0.2
			c0,0.2-0.1,0.3-0.1,0.3c0,0,0,0.1,0,0.1l-0.4,1.4H427.6z"/>
		<path class="st9" d="M431,225.6l-0.2,0.5h-0.6l0.9-2.6h0.7l0.8,2.6H432l-0.1-0.5H431z M431.5,224.2l-0.3,1h0.6L431.5,224.2z"/>
		<path class="st9" d="M435.9,224.7v1.4h-0.4l-0.1-0.3c-0.2,0.3-0.5,0.4-0.8,0.4c-0.7,0-1.2-0.5-1.2-1.3c-0.1-0.7,0.4-1.3,1.1-1.4
			c0,0,0.1,0,0.1,0c0.5,0,1,0.3,1.1,0.8h-0.6c-0.1-0.2-0.3-0.4-0.5-0.4c-0.4,0-0.7,0.3-0.7,0.8s0.2,0.9,0.7,0.9
			c0.3,0,0.6-0.2,0.6-0.5h-0.6v-0.5L435.9,224.7z"/>
		<path class="st9" d="M439.1,224.1h-1.3v0.5h1.2v0.4h-1.2v0.6h1.4v0.5h-1.9v-2.6h1.9L439.1,224.1z"/>
		<path class="st9" d="M441.7,224.4L441.7,224.4c0-0.2-0.2-0.3-0.5-0.3s-0.4,0.1-0.4,0.3s0.1,0.2,0.2,0.2l0.5,0.1
			c0.2,0,0.4,0.1,0.6,0.3c0.1,0.1,0.2,0.3,0.2,0.5c0,0.5-0.4,0.9-1.1,0.9s-1.1-0.3-1.1-0.9h0.6c0,0.3,0.2,0.4,0.5,0.4
			s0.5-0.1,0.5-0.3s-0.1-0.2-0.3-0.3l-0.5-0.1c-0.2,0-0.4-0.1-0.6-0.2c-0.1-0.1-0.2-0.3-0.2-0.5c0-0.5,0.4-0.8,1-0.8
			c0.3,0,0.7,0.1,0.9,0.4c0.1,0.1,0.1,0.3,0.1,0.5L441.7,224.4z"/>
		<polyline class="st10" points="450.4,223.8 448.2,226 446.1,223.8 		"/>
		<path class="st9" d="M306.2,223.2h0.9c0.4-0.1,0.8,0.1,1,0.4c0.2,0.3,0.3,0.6,0.3,0.9c0,0.4-0.1,0.7-0.3,1c-0.3,0.3-0.6,0.4-1,0.3
			h-0.9L306.2,223.2z M307.2,225.3c0.2,0,0.4-0.1,0.5-0.3c0.1-0.2,0.1-0.4,0.1-0.6c0-0.2,0-0.4-0.1-0.6c-0.1-0.2-0.3-0.3-0.5-0.3
			h-0.4v1.6H307.2z"/>
		<path class="st9" d="M310.3,225.8h-0.6v-2.6h1.1c0.2,0,0.5,0,0.7,0.1c0.2,0.1,0.3,0.3,0.2,0.6c0,0.3-0.2,0.5-0.4,0.6
			c0.3,0.1,0.4,0.2,0.4,0.6v0.4c0,0.1,0,0.2,0.1,0.3h-0.6c-0.1-0.1-0.1-0.1-0.1-0.2v-0.4c0-0.3-0.2-0.5-0.5-0.5h-0.4L310.3,225.8z
			 M310.9,224.3c0.2,0,0.3-0.1,0.3-0.3s-0.1-0.3-0.3-0.3h-0.6v0.6H310.9z"/>
		<path class="st9" d="M313.6,225.3l-0.2,0.5h-0.6l0.9-2.6h0.7l0.8,2.6h-0.7l-0.1-0.5H313.6z M314.1,223.8l-0.3,1h0.6L314.1,223.8z"
			/>
		<path class="st9" d="M318.7,224.4v1.4h-0.4l-0.1-0.3c-0.2,0.3-0.5,0.4-0.8,0.4c-0.8,0-1.2-0.5-1.2-1.4c-0.1-0.7,0.4-1.3,1.1-1.4
			c0.1,0,0.1,0,0.2,0c0.5,0,1,0.3,1.1,0.9h-0.6c-0.1-0.2-0.3-0.4-0.5-0.4c-0.4,0-0.7,0.3-0.7,0.9s0.2,0.9,0.7,0.9
			c0.3,0,0.6-0.2,0.6-0.5h-0.6v-0.5L318.7,224.4z"/>
		<path class="st9" d="M322.5,225.8h-0.6v-2.6h0.6V225.8z"/>
		<path class="st9" d="M324.8,225.8l-0.4-1.4c0-0.1,0-0.2-0.1-0.2s0-0.1,0-0.2c0,0.1,0,0.1,0,0.2v1.6h-0.5v-2.6h0.8l0.3,1.4
			c0,0.2,0.1,0.4,0.1,0.6c0-0.1,0-0.1,0-0.1v-0.2c0,0,0-0.1,0-0.2v-0.2l0.3-1.4h0.8v2.6h-0.5v-1.6c0-0.1,0-0.1,0-0.2
			c0,0.1-0.1,0.3-0.1,0.3c0,0,0,0.1,0,0.1l-0.4,1.4L324.8,225.8z"/>
		<path class="st9" d="M328.3,225.3l-0.2,0.5h-0.6l0.9-2.6h0.7l0.8,2.6h-0.7l-0.1-0.5H328.3z M328.8,223.8l-0.3,1h0.6L328.8,223.8z"
			/>
		<path class="st9" d="M333.4,224.4v1.4H333l-0.1-0.3c-0.2,0.3-0.5,0.4-0.8,0.4c-0.8,0-1.2-0.5-1.2-1.4c-0.1-0.7,0.4-1.3,1.1-1.4
			c0.1,0,0.1,0,0.2,0c0.5,0,1,0.3,1.1,0.9h-0.6c-0.1-0.3-0.3-0.4-0.6-0.4c-0.4,0-0.7,0.3-0.7,0.9s0.2,0.9,0.7,0.9
			c0.3,0,0.6-0.2,0.6-0.5h-0.6v-0.5L333.4,224.4z"/>
		<path class="st9" d="M336.6,223.7h-1.4v0.5h1.2v0.5h-1.2v0.6h1.4v0.5h-2v-2.6h2L336.6,223.7z"/>
		<path class="st9" d="M339.3,224L339.3,224c0-0.2-0.2-0.4-0.5-0.4s-0.5,0.1-0.5,0.3s0.1,0.2,0.2,0.2l0.5,0.1c0.2,0,0.4,0.1,0.6,0.3
			c0.1,0.1,0.2,0.3,0.2,0.5c0,0.6-0.4,0.9-1.1,0.9s-1.1-0.3-1.1-0.9h0.6c0,0.3,0.2,0.4,0.5,0.4s0.5-0.1,0.5-0.3s-0.1-0.2-0.3-0.3
			l-0.5-0.1c-0.2,0-0.4-0.1-0.6-0.2c-0.1-0.1-0.2-0.3-0.2-0.5c0-0.5,0.4-0.8,1.1-0.8c0.3,0,0.7,0.1,0.9,0.4c0.1,0.2,0.1,0.3,0.1,0.5
			L339.3,224z"/>
		<path class="st9" d="M343.7,224.7v1.1h-0.6v-2.6h0.6v1h1v-1h0.6v2.6h-0.6v-1.1H343.7z"/>
		<path class="st9" d="M348.5,223.7h-1.4v0.5h1.2v0.5h-1.2v0.6h1.4v0.5h-2v-2.6h2L348.5,223.7z"/>
		<path class="st9" d="M350.3,225.8h-0.6v-2.6h1.1c0.2,0,0.5,0,0.7,0.1c0.2,0.1,0.3,0.3,0.2,0.6c0,0.3-0.2,0.6-0.4,0.6
			c0.3,0.1,0.4,0.2,0.4,0.6v0.4c0,0.1,0,0.2,0.1,0.3h-0.6c-0.1-0.1-0.1-0.1-0.1-0.2v-0.4c0-0.3-0.2-0.5-0.5-0.5h-0.4V225.8z
			 M350.9,224.3c0.2,0,0.3-0.1,0.3-0.3s-0.1-0.3-0.3-0.3h-0.6v0.6H350.9z"/>
		<path class="st9" d="M355.1,223.7h-1.4v0.5h1.2v0.5h-1.2v0.6h1.4v0.5h-2v-2.6h2L355.1,223.7z"/>
		<rect x="79.5" y="108" class="st11" width="161.6" height="151.4"/>
		<pattern  id="SVGID_1_" xlink:href="#New_Pattern_4" patternTransform="matrix(0.65 0 0 -0.65 -2764.9353 -13098.6807)">
		</pattern>
		<polygon class="st12" points="140.2,108.2 240.9,108.2 240.9,259.5 172.6,259.5 		"/>
		<path class="st13" d="M98.4,220.3c5.3,6,8.8,13.4,10.2,21.3c0.4,2.5,4.2,1.4,3.8-1c-1.5-8.6-5.4-16.5-11.2-23
			C99.5,215.7,96.8,218.4,98.4,220.3L98.4,220.3z"/>
		<polygon class="st14" points="144.1,148.5 118.2,193.4 170,193.4 		"/>
		<circle class="st14" cx="172.7" cy="193.3" r="21.3"/>
		<path class="st15" d="M152.5,177.9c4.6,6.5,9.6,12.8,14.9,18.8c1.4,1.6,3.6-0.7,2.3-2.3c-5.1-5.8-10-11.9-14.4-18.2
			C154.1,174.6,151.3,176.2,152.5,177.9z"/>
		<path class="st9" d="M201.2,55.6h-0.5v-3.4h1.2c0.3,0,0.7,0,0.9,0.2c0.2,0.2,0.3,0.5,0.3,0.8c0,0.3-0.1,0.6-0.3,0.7
			c-0.3,0.2-0.6,0.3-0.9,0.3h-0.7V55.6z M202,53.8c0.2,0,0.4,0,0.5-0.2c0.1-0.1,0.2-0.3,0.2-0.4c0-0.2-0.1-0.3-0.2-0.4
			c-0.2-0.1-0.3-0.2-0.5-0.2h-0.8v1.2L202,53.8z"/>
		<path class="st9" d="M204.3,53.1v0.4c0.1-0.1,0.1-0.2,0.2-0.3c0.1-0.1,0.3-0.2,0.4-0.2c0.1,0,0.2,0,0.3,0.1v0.4
			c-0.1,0-0.1,0-0.2,0c-0.4,0-0.7,0.4-0.7,0.8c0,0,0,0,0,0v1.3h-0.5v-2.5H204.3z"/>
		<path class="st9" d="M206.2,52.7h-0.5v-0.5h0.5V52.7z M206.2,55.6h-0.5v-2.5h0.5V55.6z"/>
		<path class="st9" d="M208.7,53.9c0-0.3-0.3-0.5-0.6-0.5c-0.4,0-0.8,0.4-0.8,0.9s0.3,0.9,0.8,0.9c0.3,0,0.6-0.3,0.7-0.6
			c0,0,0,0,0,0h0.4c0,0.6-0.4,1-1,1c0,0-0.1,0-0.1,0c-0.7,0-1.3-0.6-1.3-1.3c0-0.7,0.6-1.3,1.3-1.3c0.5,0,1,0.4,1.1,0.9L208.7,53.9z
			"/>
		<path class="st9" d="M210.2,52.7h-0.5v-0.5h0.5V52.7z M210.2,55.6h-0.5v-2.5h0.5V55.6z"/>
		<path class="st9" d="M211.5,53.1v0.3c0.2-0.2,0.5-0.4,0.8-0.3c0.3,0,0.5,0.1,0.7,0.3c0.1,0.2,0.2,0.4,0.2,0.6v1.7h-0.5V54
			c0-0.3-0.2-0.5-0.5-0.5c-0.3,0-0.6,0.2-0.6,0.5c0,0,0,0.1,0,0.1v1.5H211v-2.5H211.5z"/>
		<path class="st9" d="M216,53.1v2.4c0,0.3-0.1,0.5-0.2,0.7c-0.2,0.2-0.6,0.3-0.9,0.3c-0.3,0-0.6-0.1-0.8-0.3
			c-0.1-0.1-0.2-0.3-0.2-0.5h0.4c0,0.2,0.2,0.4,0.6,0.4s0.6-0.2,0.6-0.6v-0.3c-0.2,0.2-0.5,0.3-0.7,0.3c-0.6,0-1.1-0.5-1.1-1.1
			c0,0,0-0.1,0-0.1c-0.1-0.6,0.3-1.2,0.9-1.3c0,0,0.1,0,0.1,0c0.3,0,0.6,0.1,0.7,0.3v-0.3L216,53.1z M214.2,54.3
			c0,0.5,0.2,0.8,0.7,0.8s0.7-0.3,0.7-0.8s-0.2-0.8-0.7-0.8S214.2,53.8,214.2,54.3L214.2,54.3z"/>
		<path class="st9" d="M148.3,52.2h1.3c0.3,0,0.6,0,0.9,0.2c0.2,0.2,0.4,0.4,0.4,0.7c0,0.3-0.2,0.6-0.5,0.8c0.4,0.1,0.6,0.4,0.6,0.8
			c0,0.3-0.1,0.6-0.4,0.8c-0.3,0.2-0.7,0.2-1,0.2h-1.2V52.2z M149.7,53.6c0.2,0,0.4,0,0.5-0.1c0.1-0.1,0.2-0.2,0.2-0.4
			c0-0.1-0.1-0.3-0.2-0.4c-0.1-0.1-0.3-0.1-0.5-0.1h-0.9v1L149.7,53.6z M149.8,55.1c0.4,0,0.7-0.2,0.7-0.6s-0.2-0.5-0.6-0.5h-1v1.1
			H149.8z"/>
		<path class="st9" d="M153.3,55.6v-0.3c-0.2,0.2-0.5,0.4-0.8,0.3c-0.3,0-0.5-0.1-0.7-0.3c-0.1-0.2-0.2-0.4-0.2-0.6v-1.6h0.5v1.6
			c0,0.3,0.1,0.5,0.5,0.5c0.3,0,0.6-0.2,0.6-0.5c0,0,0-0.1,0-0.1v-1.5h0.5v2.5H153.3z"/>
		<path class="st9" d="M155,55.6h-0.5v-3.4h0.5V55.6z"/>
		<path class="st9" d="M158,55.6h-0.6l-0.9-1.3l-0.4,0.3v1h-0.5v-3.4h0.5V54l1.1-0.9h0.6l-1,0.9L158,55.6z"/>
		<path class="st9" d="M162.5,53.2c-0.1-0.4-0.5-0.7-0.9-0.7c-0.6,0-1.1,0.5-1.1,1.3s0.4,1.4,1.1,1.4c0.5,0,1-0.4,1-1h0.5
			c0,0.3-0.1,0.6-0.3,0.8c-0.3,0.4-0.7,0.6-1.2,0.6c-0.5,0-0.9-0.2-1.2-0.6c-0.3-0.4-0.4-0.8-0.4-1.2c-0.1-0.9,0.6-1.7,1.4-1.8
			c0,0,0.1,0,0.1,0c0.7,0,1.3,0.4,1.4,1.1L162.5,53.2z"/>
		<path class="st9" d="M164.2,55.6h-0.5v-3.4h0.5V55.6z"/>
		<path class="st9" d="M165.4,52.7H165v-0.5h0.5L165.4,52.7z M165.4,55.6H165v-2.5h0.5L165.4,55.6z"/>
		<path class="st9" d="M166.7,53.1v0.3c0.2-0.2,0.5-0.3,0.8-0.3c0.7,0,1.1,0.5,1.1,1.3s-0.4,1.3-1.1,1.3c-0.3,0-0.6-0.1-0.8-0.3v1.1
			h-0.5v-3.3H166.7z M166.7,54.3c0,0.6,0.2,0.9,0.7,0.9s0.7-0.3,0.7-0.9s-0.2-0.9-0.7-0.9S166.6,53.8,166.7,54.3L166.7,54.3z"/>
		<path class="st9" d="M169.6,53.1v0.3c0.2-0.2,0.5-0.3,0.8-0.3c0.7,0,1.1,0.5,1.1,1.3s-0.4,1.3-1.1,1.3c-0.3,0-0.6-0.1-0.8-0.3v1.1
			h-0.5v-3.3H169.6z M169.6,54.3c0,0.6,0.2,0.9,0.7,0.9s0.7-0.3,0.7-0.9s-0.2-0.9-0.7-0.9S169.6,53.8,169.6,54.3L169.6,54.3z"/>
		<path class="st9" d="M172.6,52.7h-0.5v-0.5h0.5V52.7z M172.6,55.6h-0.5v-2.5h0.5V55.6z"/>
		<path class="st9" d="M173.9,53.1v0.3c0.2-0.2,0.5-0.4,0.8-0.3c0.3,0,0.5,0.1,0.7,0.3c0.1,0.2,0.2,0.4,0.2,0.6v1.7H175V54
			c0-0.3-0.1-0.5-0.5-0.5c-0.3,0-0.6,0.2-0.6,0.5c0,0,0,0.1,0,0.1v1.5h-0.5v-2.5H173.9z"/>
		<path class="st9" d="M178.4,53.1v2.4c0,0.3-0.1,0.5-0.2,0.7c-0.3,0.2-0.6,0.3-0.9,0.3c-0.3,0-0.6-0.1-0.8-0.3
			c-0.1-0.1-0.2-0.3-0.2-0.5h0.4c0,0.2,0.2,0.4,0.6,0.4c0.4,0,0.6-0.2,0.6-0.6v-0.3c-0.2,0.2-0.5,0.3-0.7,0.3
			c-0.6,0-1.1-0.5-1.1-1.1c0,0,0-0.1,0-0.1c-0.1-0.6,0.3-1.2,0.9-1.3c0,0,0.1,0,0.1,0c0.3,0,0.6,0.1,0.7,0.3v-0.3L178.4,53.1z
			 M176.6,54.3c0,0.5,0.2,0.8,0.7,0.8s0.7-0.3,0.7-0.8s-0.2-0.8-0.7-0.8S176.6,53.8,176.6,54.3L176.6,54.3z"/>
		<path class="st9" d="M63.4,52.6h-1.9v1h1.7V54h-1.7v1.1h2v0.4H61v-3.4h2.4L63.4,52.6z"/>
		<path class="st9" d="M66.2,55.6h-0.6L65.2,55c-0.1-0.2-0.2-0.3-0.2-0.4c-0.1,0.1-0.2,0.3-0.2,0.4l-0.4,0.6h-0.5l1-1.3l-0.9-1.2
			h0.6l0.3,0.4l0.1,0.2l0.1,0.1l0.1,0.1v0.1v-0.1l0.1-0.1l0.1-0.2l0.3-0.4H66l-0.8,1.2L66.2,55.6z"/>
		<path class="st9" d="M66.6,53.9c0-0.2,0.1-0.4,0.2-0.6c0.2-0.2,0.5-0.3,0.8-0.3c0.6,0,1,0.3,1,0.8V55c0,0.2,0,0.2,0.1,0.2
			c0,0,0.1,0,0.1,0v0.4h-0.3c-0.2,0-0.4-0.1-0.4-0.3c0,0,0,0,0,0c-0.2,0.2-0.5,0.4-0.8,0.4c-0.4,0-0.8-0.3-0.8-0.7c0,0,0,0,0-0.1
			c0-0.4,0.2-0.6,0.8-0.8l0.5-0.1c0.3-0.1,0.4-0.1,0.4-0.3s-0.2-0.4-0.5-0.4c-0.2,0-0.4,0.1-0.5,0.2c0,0.1,0,0.2,0,0.3L66.6,53.9z
			 M68.2,54.3l-0.3,0.1l-0.5,0.1c-0.3,0.1-0.4,0.2-0.4,0.4s0.2,0.4,0.5,0.4c0.4,0,0.7-0.3,0.7-0.7L68.2,54.3z"/>
		<path class="st9" d="M69.8,53.1v0.3c0.1-0.2,0.4-0.4,0.7-0.4c0.3,0,0.5,0.1,0.6,0.4c0.1-0.3,0.4-0.5,0.8-0.5
			c0.2,0,0.5,0.1,0.6,0.2c0.1,0.2,0.2,0.4,0.2,0.6v1.7h-0.5v-1.6c0-0.3-0.1-0.5-0.4-0.5s-0.5,0.2-0.5,0.6v1.5h-0.5v-1.7
			c0-0.2-0.1-0.4-0.3-0.4c0,0-0.1,0-0.1,0c-0.3,0-0.5,0.2-0.5,0.5c0,0,0,0,0,0.1v1.5h-0.5v-2.5H69.8z"/>
		<path class="st9" d="M73.9,53.1v0.3c0.2-0.2,0.5-0.3,0.8-0.3c0.7,0,1.1,0.5,1.1,1.3s-0.4,1.3-1,1.3c-0.3,0-0.6-0.1-0.8-0.3v1.1
			h-0.5v-3.3H73.9z M73.9,54.3c0,0.6,0.2,0.9,0.7,0.9s0.7-0.3,0.7-0.9s-0.2-0.9-0.7-0.9S73.9,53.8,73.9,54.3L73.9,54.3z"/>
		<path class="st9" d="M76.9,55.6h-0.5v-3.4h0.5V55.6z"/>
		<path class="st9" d="M78,54.5c0,0.5,0.3,0.8,0.7,0.8c0.3,0,0.5-0.2,0.6-0.4h0.4c-0.1,0.5-0.5,0.9-1.1,0.8
			c-0.7-0.1-1.2-0.7-1.1-1.5c0.1-0.6,0.5-1.1,1.1-1.1c0.5,0,0.9,0.3,1,0.7c0.1,0.2,0.1,0.4,0.1,0.7L78,54.5z M79.3,54.1
			c0-0.5-0.2-0.7-0.6-0.7c-0.4,0-0.7,0.3-0.7,0.7c0,0,0,0,0,0H79.3z"/>
		<path class="st9" d="M81.9,53.9c0-0.3-0.3-0.5-0.5-0.4c0,0,0,0,0,0c-0.3,0-0.5,0.1-0.5,0.3s0.1,0.2,0.3,0.3l0.6,0.1
			c0.5,0.1,0.7,0.3,0.7,0.7s-0.4,0.8-1,0.8c-0.5,0.1-1-0.3-1.1-0.9c0,0,0,0,0,0h0.5c0,0.3,0.3,0.5,0.7,0.5s0.6-0.2,0.6-0.4
			s-0.1-0.2-0.4-0.3l-0.5-0.1c-0.2,0-0.4-0.1-0.5-0.2c-0.1-0.1-0.2-0.3-0.2-0.4c0-0.4,0.4-0.7,1-0.7c0.3,0,0.6,0.1,0.8,0.3
			c0.1,0.1,0.2,0.3,0.2,0.5L81.9,53.9z"/>
		<path class="st9" d="M103.9,55.6h-0.5v-3h-1.1v-0.4h2.6v0.4h-1.1L103.9,55.6z"/>
		<path class="st9" d="M107.1,55.6v-0.3c-0.2,0.2-0.5,0.4-0.8,0.3c-0.3,0-0.5-0.1-0.7-0.3c-0.1-0.2-0.2-0.4-0.2-0.6v-1.6h0.5v1.6
			c0,0.3,0.2,0.5,0.5,0.5c0.3,0,0.6-0.2,0.6-0.5c0,0,0-0.1,0-0.1v-1.5h0.5v2.5H107.1z"/>
		<path class="st9" d="M109.3,53.5h-0.4V55c0,0.1,0.1,0.2,0.2,0.2c0.1,0,0.2,0,0.3-0.1v0.4c-0.1,0-0.3,0.1-0.4,0.1
			c-0.3,0-0.5-0.2-0.5-0.6v-1.5h-0.3v-0.4h0.3v-0.8h0.5v0.8h0.4V53.5z"/>
		<path class="st9" d="M112.1,54.4c-0.1,0.7-0.7,1.1-1.3,1c-0.7-0.1-1.1-0.7-1-1.3c0.1-0.6,0.6-1,1.2-1c0.7,0,1.2,0.5,1.2,1.2
			C112.1,54.2,112.1,54.3,112.1,54.4z M110.2,54.4c0,0.6,0.3,0.9,0.7,0.9s0.7-0.3,0.7-0.9s-0.3-0.9-0.7-0.9S110.2,53.8,110.2,54.4
			L110.2,54.4z"/>
		<path class="st9" d="M113.2,53.1v0.4c0.1-0.1,0.1-0.2,0.2-0.3c0.1-0.1,0.3-0.2,0.4-0.2c0.1,0,0.2,0,0.3,0.1v0.4
			c-0.1,0-0.1,0-0.2,0c-0.4,0-0.7,0.4-0.7,0.8c0,0,0,0,0,0v1.3h-0.5v-2.5H113.2z"/>
		<path class="st9" d="M115.1,52.7h-0.5v-0.5h0.5V52.7z M115.1,55.6h-0.5v-2.5h0.5V55.6z"/>
		<path class="st9" d="M115.9,53.9c0-0.2,0.1-0.4,0.2-0.6c0.2-0.2,0.5-0.3,0.8-0.3c0.6,0,1,0.3,1,0.8V55c0,0.2,0,0.2,0.1,0.2h0.1
			v0.4h-0.3c-0.2,0-0.3-0.1-0.4-0.3c-0.2,0.2-0.5,0.4-0.8,0.4c-0.4,0-0.8-0.3-0.8-0.7c0,0,0,0,0-0.1c0-0.4,0.2-0.6,0.8-0.8l0.6-0.1
			c0.3-0.1,0.3-0.1,0.3-0.3s-0.2-0.4-0.5-0.4c-0.2,0-0.4,0.1-0.5,0.2c0,0.1-0.1,0.2-0.1,0.3L115.9,53.9z M117.4,54.3
			c-0.1,0-0.2,0.1-0.3,0.1l-0.5,0.1c-0.3,0.1-0.4,0.2-0.4,0.4s0.2,0.4,0.5,0.4c0.4,0,0.7-0.3,0.7-0.7L117.4,54.3z"/>
		<path class="st9" d="M119.1,55.6h-0.5v-3.4h0.5V55.6z"/>
		<path class="st9" d="M121.3,53.9c0-0.3-0.3-0.5-0.5-0.4c0,0,0,0,0,0c-0.3,0-0.5,0.1-0.5,0.3s0.1,0.2,0.3,0.3l0.6,0.1
			c0.5,0.1,0.7,0.3,0.7,0.7s-0.4,0.8-1,0.8c-0.5,0.1-1-0.3-1.1-0.9c0,0,0,0,0,0h0.5c0,0.3,0.3,0.5,0.7,0.5s0.6-0.2,0.6-0.4
			s-0.1-0.2-0.4-0.3l-0.5-0.1c-0.2,0-0.4-0.1-0.5-0.2c-0.1-0.1-0.2-0.3-0.2-0.4c0-0.4,0.4-0.7,1-0.7c0.3,0,0.6,0.1,0.8,0.3
			c0.1,0.1,0.2,0.3,0.2,0.5L121.3,53.9z"/>
		<polyline class="st10" points="127.4,53.5 125.9,55 124.4,53.5 		"/>
		<path d="M61.2,17.6h10.2c0.3,0,0.6,0.3,0.6,0.6v10.2c0,0.3-0.3,0.6-0.6,0.6H61.2c-0.3,0-0.6-0.3-0.6-0.6V18.2
			C60.6,17.9,60.9,17.6,61.2,17.6z"/>
		<rect x="66.3" y="18.5" class="st2" width="4.8" height="4.8"/>
		<rect x="61.5" y="23.4" class="st2" width="4.8" height="4.8"/>
		<path class="st9" d="M81.5,23.1c-0.1-0.3-0.4-0.6-0.7-0.6c-0.6,0-1,0.5-1,1.2s0.4,1.2,1,1.2c0.4,0,0.7-0.3,0.8-0.6c0,0,0,0,0,0
			h0.9c-0.1,0.8-0.8,1.4-1.6,1.4c-1,0-1.8-0.7-1.8-1.7c0-0.1,0-0.2,0-0.3c-0.1-0.9,0.6-1.8,1.5-1.9c0.1,0,0.2,0,0.3,0
			c0.8-0.1,1.5,0.5,1.6,1.3L81.5,23.1z"/>
		<path class="st9" d="M85.1,25h1.8v0.7h-2.6V22h0.8L85.1,25z"/>
		<path class="st9" d="M89.5,25.6h-0.8V22h0.8V25.6z"/>
		<path class="st9" d="M92.5,25.6h-0.8V22h1.4c0.4,0,0.7,0.1,1,0.3c0.3,0.3,0.4,0.6,0.4,1c0,0.3-0.1,0.6-0.3,0.8
			c-0.2,0.2-0.6,0.4-0.9,0.3h-0.8L92.5,25.6z M93.2,23.7c0.3,0.1,0.5-0.1,0.6-0.4s-0.1-0.5-0.4-0.6c-0.1,0-0.1,0-0.2,0h-0.7v1H93.2z
			"/>
		<path class="st9" d="M97.2,25.6h-0.8V22h1.4c0.4,0,0.7,0.1,1,0.3c0.3,0.3,0.4,0.6,0.4,1c0,0.3-0.1,0.6-0.3,0.8
			c-0.2,0.2-0.6,0.4-0.9,0.3h-0.8L97.2,25.6z M97.9,23.7c0.3,0,0.5-0.2,0.5-0.4c0,0,0-0.1,0-0.1c0-0.3-0.2-0.5-0.4-0.5
			c0,0-0.1,0-0.1,0h-0.7v1L97.9,23.7z"/>
		<path class="st9" d="M102,25.6h-0.8V22h0.8V25.6z"/>
		<path class="st9" d="M106.3,25.6l-1-1.9l-0.4-0.7c0,0.1,0,0.3,0,0.4v2.1h-0.8V22h0.8l1,1.8c0.1,0.3,0.2,0.5,0.4,0.7
			c0-0.1,0-0.2,0-0.4V22h0.8v3.7L106.3,25.6z"/>
		<path class="st9" d="M112.5,23.6v2H112l-0.1-0.5c-0.2,0.4-0.7,0.6-1.1,0.5c-1,0-1.7-0.7-1.7-1.9c-0.1-1,0.6-1.8,1.6-1.9
			c0.1,0,0.1,0,0.2,0c0.7,0,1.4,0.5,1.6,1.2l-0.8,0c-0.1-0.3-0.4-0.6-0.8-0.5c-0.6,0-1,0.5-1,1.2s0.4,1.3,1,1.3
			c0.4,0,0.8-0.3,0.9-0.8h-0.9v-0.7L112.5,23.6z"/>
		<path class="st9" d="M119.5,25.6l-0.8-2.2c-0.1-0.3-0.2-0.5-0.2-0.8c0,0.3,0,0.6,0,0.8v2.2h-0.5V22h0.7l0.9,2.4
			c0.1,0.3,0.1,0.4,0.2,0.6c0.1-0.3,0.2-0.5,0.2-0.6l0.9-2.4h0.6v3.7H121v-2.2c0-0.2,0-0.5,0-0.8c-0.1,0.3-0.2,0.5-0.3,0.8l-0.8,2.2
			H119.5z"/>
		<path class="st9" d="M124.6,24.5l-0.4,1.1h-0.6L125,22h0.6l1.4,3.7h-0.6l-0.4-1.1L124.6,24.5z M125.2,22.5l-0.5,1.6h1.1
			L125.2,22.5z"/>
		<path class="st9" d="M132.2,23.7v2h-0.4v-0.6c-0.1,0.2-0.2,0.3-0.4,0.4c-0.2,0.2-0.5,0.3-0.9,0.3c-0.9,0-1.7-0.8-1.7-1.8
			c0-0.1,0-0.1,0-0.2c-0.1-1,0.6-1.8,1.6-1.9c0.1,0,0.1,0,0.2,0c0.7-0.1,1.4,0.5,1.5,1.2h-0.5c-0.1-0.5-0.5-0.8-1-0.8
			c-0.7,0-1.2,0.5-1.2,1.4s0.5,1.5,1.2,1.5c0.4,0,0.7-0.2,0.9-0.5c0.1-0.2,0.2-0.4,0.1-0.6h-1.1v-0.4L132.2,23.7z"/>
		<path class="st9" d="M135.1,25.6h-0.5V22h0.5V25.6z"/>
		<path class="st9" d="M140.2,23.1c-0.1-0.5-0.5-0.8-1-0.8c-0.7,0-1.2,0.6-1.2,1.4s0.5,1.5,1.1,1.5c0.6,0,1-0.4,1-0.9c0,0,0,0,0-0.1
			h0.5c0,0.3-0.1,0.6-0.3,0.9c-0.3,0.4-0.8,0.6-1.3,0.6c-0.5,0-1-0.2-1.3-0.6c-0.3-0.4-0.4-0.8-0.4-1.3c-0.1-1,0.6-1.8,1.6-1.9
			c0,0,0.1,0,0.1,0c0.7,0,1.4,0.5,1.5,1.2L140.2,23.1z"/>
		<path class="st9" d="M356.9,24.5h1.8V25h-2.3v-3.4h0.5L356.9,24.5z"/>
		<path class="st9" d="M361.5,23.8c0.1,0.7-0.4,1.2-1.1,1.3c-0.7,0.1-1.2-0.4-1.3-1.1c0-0.1,0-0.1,0-0.2c-0.1-0.7,0.4-1.2,1.1-1.3
			c0.7-0.1,1.2,0.4,1.3,1.1C361.5,23.6,361.5,23.7,361.5,23.8z M359.6,23.8c0,0.6,0.3,0.9,0.7,0.9s0.7-0.3,0.7-0.9s-0.3-0.9-0.7-0.9
			S359.6,23.2,359.6,23.8L359.6,23.8z"/>
		<path class="st9" d="M364.2,22.5v2.4c0,0.3-0.1,0.5-0.2,0.7c-0.3,0.2-0.6,0.3-0.9,0.3c-0.3,0-0.6-0.1-0.8-0.3
			c-0.1-0.1-0.2-0.3-0.2-0.5h0.5c0,0.2,0.2,0.4,0.6,0.4s0.6-0.2,0.6-0.6v-0.3c-0.2,0.2-0.5,0.3-0.7,0.3c-0.6,0-1.1-0.5-1.1-1.1
			c0,0,0-0.1,0-0.1c-0.1-0.6,0.4-1.2,1-1.2c0,0,0.1,0,0.1,0c0.3,0,0.6,0.1,0.7,0.3v-0.3H364.2z M362.5,23.7c0,0.5,0.2,0.8,0.7,0.8
			s0.7-0.3,0.7-0.8s-0.2-0.8-0.7-0.8S362.5,23.2,362.5,23.7z"/>
		<path class="st9" d="M367.2,25h-0.5v-3.4h0.5V25z"/>
		<path class="st9" d="M368.5,22.5v0.3c0.2-0.2,0.5-0.4,0.8-0.3c0.3,0,0.5,0.1,0.7,0.3c0.1,0.2,0.2,0.4,0.2,0.6V25h-0.5v-1.6
			c0-0.3-0.1-0.5-0.5-0.5c-0.3,0-0.6,0.2-0.6,0.5c0,0,0,0.1,0,0.1V25h-0.5v-2.5H368.5z"/>
		<path class="st9" d="M456.1,21.4h-1.9v1h1.7v0.4h-1.7V24h2v0.4h-2.5V21h2.4L456.1,21.4z"/>
		<path class="st9" d="M457.3,21.9v0.3c0.2-0.2,0.5-0.4,0.8-0.4c0.3,0,0.5,0.1,0.7,0.3c0.1,0.2,0.2,0.4,0.2,0.6v1.6h-0.5v-1.6
			c0-0.3-0.2-0.5-0.5-0.5c-0.3,0-0.6,0.2-0.6,0.5c0,0,0,0.1,0,0.1v1.5h-0.5v-2.5H457.3z"/>
		<path class="st9" d="M461.8,21.9v2.4c0,0.3-0.1,0.5-0.2,0.7c-0.2,0.2-0.6,0.3-0.9,0.3c-0.3,0-0.6-0.1-0.8-0.3
			c-0.1-0.1-0.2-0.3-0.2-0.5h0.5c0,0.2,0.2,0.4,0.6,0.4s0.6-0.2,0.6-0.6V24c-0.2,0.2-0.5,0.3-0.7,0.3c-0.6,0-1.1-0.5-1.1-1.1
			c0,0,0-0.1,0-0.1c-0.1-0.6,0.4-1.2,1-1.2c0,0,0.1,0,0.1,0c0.3,0,0.6,0.1,0.7,0.3v-0.3L461.8,21.9z M460,23.1
			c0,0.5,0.2,0.8,0.7,0.8s0.7-0.3,0.7-0.8s-0.2-0.8-0.7-0.8S460,22.6,460,23.1z"/>
		<path class="st9" d="M463,24.4h-0.5V21h0.5V24.4z"/>
		<path class="st9" d="M464.3,21.5h-0.5V21h0.5V21.5z M464.3,24.4h-0.5v-2.5h0.5V24.4z"/>
		<path class="st9" d="M466.5,22.7c0-0.3-0.3-0.5-0.5-0.4c0,0,0,0,0,0c-0.3,0-0.5,0.1-0.5,0.3s0.1,0.2,0.3,0.3l0.6,0.1
			c0.5,0.1,0.7,0.4,0.7,0.7s-0.4,0.8-1,0.8c-0.5,0.1-1-0.3-1.1-0.9c0,0,0,0,0,0h0.5c0,0.3,0.3,0.5,0.7,0.5s0.6-0.1,0.6-0.4
			s-0.1-0.2-0.4-0.3l-0.5-0.1c-0.2,0-0.4-0.1-0.5-0.2c-0.1-0.1-0.2-0.3-0.2-0.4c0-0.4,0.4-0.7,1-0.7c0.3,0,0.6,0.1,0.8,0.3
			c0.1,0.1,0.2,0.3,0.2,0.5L466.5,22.7z"/>
		<path class="st9" d="M468.1,22.1c0.2-0.2,0.5-0.3,0.7-0.3c0.4,0,0.8,0.3,0.9,0.7c0,0.1,0,0.1,0,0.2v1.6h-0.5v-1.6
			c0-0.1,0-0.3-0.1-0.4c-0.1-0.1-0.2-0.2-0.4-0.1c-0.3,0-0.6,0.2-0.6,0.5c0,0,0,0.1,0,0.1v1.5h-0.5V21h0.5L468.1,22.1z"/>
		<line class="st3" x1="432.6" y1="15.9" x2="432.6" y2="30.5"/>
		<rect x="378" y="18.3" class="st3" width="47.6" height="9.5"/>
		<path class="st9" d="M385.6,22.8c0-0.2-0.2-0.3-0.4-0.3c-0.4,0-0.5,0.2-0.5,0.7s0.2,0.7,0.5,0.7c0.2,0,0.4-0.1,0.4-0.4h0.5
			c0,0.5-0.5,0.8-0.9,0.8c-0.6,0-1-0.4-1-1c0,0,0-0.1,0-0.1c0-0.6,0.4-1,0.9-1.1c0,0,0.1,0,0.1,0c0.4,0,0.9,0.3,0.9,0.7H385.6z"/>
		<path class="st9" d="M387.5,24.2H387v-2.1h0.9c0.2,0,0.4,0,0.5,0.1c0.1,0.1,0.2,0.3,0.2,0.4c0,0.2-0.1,0.4-0.4,0.5
			c0.2,0.1,0.3,0.2,0.3,0.5V24c0,0.1,0,0.2,0.1,0.3h-0.5c-0.1,0-0.1-0.1-0.1-0.2v-0.3c0-0.3-0.1-0.4-0.4-0.4h-0.3L387.5,24.2z
			 M387.9,23c0.2,0,0.3-0.1,0.3-0.2c0-0.1-0.1-0.2-0.3-0.2h-0.5V23L387.9,23z"/>
		<path class="st9" d="M391.3,22.5h-1.1V23h1v0.4h-1v0.5h1.1v0.4h-1.6v-2.1h1.6V22.5z"/>
		<path class="st9" d="M392.7,23.8l-0.1,0.4H392l0.7-2.1h0.6l0.7,2.1h-0.5l-0.1-0.4H392.7z M393,22.6l-0.2,0.8h0.5L393,22.6z"/>
		<path class="st9" d="M395.8,24.2h-0.5v-1.7h-0.6v-0.4h1.7v0.4h-0.6L395.8,24.2z"/>
		<path class="st9" d="M398.8,22.5h-1.1V23h1v0.4h-1v0.5h1.1v0.4h-1.6v-2.1h1.6V22.5z"/>
		<path class="st9" d="M401.8,23.8l-0.1,0.4h-0.5l0.7-2.1h0.6l0.7,2.1h-0.5l-0.1-0.4H401.8z M402.2,22.6l-0.3,0.8h0.5L402.2,22.6z"
			/>
		<path class="st9" d="M405.4,22.8c0-0.2-0.2-0.3-0.4-0.3c-0.4,0-0.5,0.2-0.5,0.7s0.2,0.7,0.5,0.7c0.2,0,0.4-0.1,0.4-0.4h0.5
			c0,0.5-0.5,0.8-0.9,0.8c-0.6,0-1-0.4-1-1c0,0,0-0.1,0-0.1c0-0.6,0.4-1,0.9-1.1c0,0,0.1,0,0.1,0c0.4,0,0.9,0.3,0.9,0.7H405.4z"/>
		<path class="st9" d="M408.2,22.8c0-0.2-0.2-0.3-0.4-0.3c-0.4,0-0.5,0.2-0.5,0.7s0.2,0.7,0.5,0.7c0.2,0,0.4-0.1,0.5-0.4h0.5
			c0,0.5-0.5,0.8-0.9,0.8c-0.6,0-1-0.4-1-1c0,0,0-0.1,0-0.1c0-0.6,0.4-1,0.9-1.1c0,0,0.1,0,0.1,0c0.4,0,0.9,0.3,0.9,0.7H408.2z"/>
		<path class="st9" d="M411.6,23.2c0,0.6-0.4,1-0.9,1.1c0,0-0.1,0-0.1,0c-0.6,0-1-0.4-1.1-0.9c0-0.1,0-0.1,0-0.2
			c0-0.3,0.1-0.6,0.3-0.8c0.4-0.4,1-0.5,1.4-0.1C411.6,22.5,411.7,22.8,411.6,23.2L411.6,23.2z M410,23.2c0,0.4,0.2,0.7,0.5,0.7
			s0.5-0.3,0.5-0.7s-0.2-0.7-0.5-0.7S410,22.8,410,23.2L410,23.2z"/>
		<path class="st9" d="M414.3,22.1v1.4c0,0.2-0.1,0.4-0.2,0.5c-0.2,0.1-0.4,0.2-0.6,0.2c-0.2,0-0.4-0.1-0.6-0.2
			c-0.2-0.1-0.3-0.3-0.2-0.5v-1.4h0.5v1.4c0,0.1,0,0.2,0.1,0.3c0.1,0.1,0.2,0.1,0.3,0.1c0.1,0,0.2,0,0.3-0.1
			c0.1-0.1,0.1-0.2,0.1-0.3v-1.4H414.3z"/>
		<path class="st9" d="M416.6,24.2l-0.6-1.1l-0.2-0.4c0,0.1,0,0.2,0,0.2v1.2h-0.4v-2.1h0.5l0.6,1c0.1,0.2,0.1,0.3,0.2,0.4v-1.4h0.4
			v2.1H416.6z"/>
		<path class="st9" d="M419,24.2h-0.5v-1.7h-0.6v-0.4h1.7v0.4H419V24.2z"/>
		<polyline class="st16" points="476.4,22.5 474.9,24 473.4,22.5 		"/>
	</g>
</g>
</svg>
