<svg xmlns="http://www.w3.org/2000/svg" viewBox="0 0 80.19 75.03"><defs><style>.cls-1{fill:#05f;}</style></defs><title>kathy</title><g id="Layer_2" data-name="Layer 2"><g id="Layer_1-2" data-name="Layer 1"><circle class="cls-1" cx="31.92" cy="36.63" r="1.7"/><circle class="cls-1" cx="52.02" cy="36.63" r="1.7"/><path class="cls-1" d="M6.32,35.13c-.3-2.4-.3-4.4,1.1-5.8A17.38,17.38,0,0,1,8.92,28a8.88,8.88,0,0,0,3.3-3.8,12.78,12.78,0,0,0,.6-4.3c0-1.7,0-3.2.9-4.6,1.2-1.9,3.2-3.1,5.2-4.4A34.57,34.57,0,0,0,22,8.73c4.9-4,9-7,14.4-6.7,4.4.2,7.3,1.4,9.5,3.8a1.07,1.07,0,0,0,1.4.1,1.07,1.07,0,0,0,.1-1.4c-2.5-2.8-6-4.2-10.8-4.5-6.6-.4-11.7,3.8-15.8,7.1-.9.7-1.9,1.4-2.9,2.1-2.1,1.4-4.3,2.8-5.8,5a9.53,9.53,0,0,0-1.2,5.6,11.38,11.38,0,0,1-.4,3.7,7.93,7.93,0,0,1-2.6,2.9,12.17,12.17,0,0,0-1.7,1.5c-2.3,2.3-2,5.3-1.7,7.5.4,3.6-.2,6-1.8,8a12.56,12.56,0,0,0-1.8,12.5,1,1,0,0,0,.9.6.6.6,0,0,0,.4-.1,1,1,0,0,0,.5-1.3,10.24,10.24,0,0,1,1.5-10.5C6.72,41.53,6.62,37.93,6.32,35.13Z"/><path class="cls-1" d="M79.62,50.63c-2.6-1.2-3.1-4-2.8-6.2.8-5.4-.8-8.1-3.6-10.4-2.1-1.8-2.2-4.7-2.4-7.8-.2-3.5-.3-7.2-3.7-9.3-.9-.6-1.8-1-2.7-1.5a19.65,19.65,0,0,1-2.5-1.3c-.9-.5-1.3-1.6-1.8-2.7-.2-.5-.5-1.1-.7-1.6a9,9,0,0,0-9-4.5,1.17,1.17,0,0,0-.9,1.1,1.17,1.17,0,0,0,1.1.9,6.79,6.79,0,0,1,7,3.5c.2.4.4.9.6,1.4a6.69,6.69,0,0,0,2.6,3.7c.9.5,1.8,1,2.6,1.4s1.8.9,2.6,1.4c2.4,1.5,2.6,4.4,2.7,7.7s.3,6.8,3.1,9.2c2.3,2,3.5,4.1,2.9,8.6-.5,3.7,1,6.9,3.9,8.3h.6a1,1,0,0,0,.9-.6A1,1,0,0,0,79.62,50.63Z"/><path class="cls-1" d="M11.92,39.23c-.1-.4-.1-.8-.2-1.3a9.36,9.36,0,0,1,.1-5c.3-.9,1.3-1.6,2.4-2.4a7.71,7.71,0,0,0,2.1-1.9,9.82,9.82,0,0,0,2.2-4.3,7,7,0,0,0,0-2.5c0-.5-.1-.9-.1-1.3a5.72,5.72,0,0,1,2.8-5.1,18.74,18.74,0,0,0,6-5.5c2.1-3.1,6.2-3.2,6.2-3.2a1,1,0,0,0,1-1,1.08,1.08,0,0,0-1-1h0c-.2,0-5.2.1-7.9,4.1a16.7,16.7,0,0,1-5.3,4.9,7.41,7.41,0,0,0-3.8,6.7,7.57,7.57,0,0,0,.1,1.5,6.7,6.7,0,0,1,0,2,7.54,7.54,0,0,1-1.8,3.4,9.51,9.51,0,0,1-1.8,1.5c-1.2.9-2.5,1.8-3,3.3a11.16,11.16,0,0,0-.2,6c.1.4.1.8.2,1.2a10.23,10.23,0,0,1-.8,4.9,5.85,5.85,0,0,1-1.5,2.1c-.3.4-.6.7-.9,1.1-1.9,2.5-1.3,5.7-.8,8.4a24,24,0,0,1,.4,2.4,1.06,1.06,0,0,0,1,.9h.1a1,1,0,0,0,.9-1.1c-.1-.8-.2-1.7-.4-2.6-.5-2.5-.9-5,.4-6.9.3-.4.6-.7.8-1a8.51,8.51,0,0,0,1.8-2.7A10.47,10.47,0,0,0,11.92,39.23Z"/><path class="cls-1" d="M74.52,55.53a9.4,9.4,0,0,0-2.4-5,14.63,14.63,0,0,1-.9-1.3c-.8-1.2-.6-2.4-.3-3.8a9.44,9.44,0,0,0,.2-3.8,4.8,4.8,0,0,0-2.5-2.9,7.47,7.47,0,0,1-1.3-1.1c-1.2-1.6-1-3.3-.8-5.3a13,13,0,0,0,0-4.4,9.43,9.43,0,0,0-3.9-5.3c-.9-.7-5.5-4.2-5.9-4.5-.1-.1-.2-.3-.4-.4-4.8-4.4-7.4-7.3-7.9-8.1a1,1,0,0,0-.8-.5,1,1,0,0,0-.8.4c-.2.3-5.4,7.5-19.2,6.8a.35.35,0,0,1,.1-.2c1.1-2.1,2.2-3.1,3.7-3.2a13.33,13.33,0,0,1,2,0,11.82,11.82,0,0,0,3.7-.3,13.39,13.39,0,0,0,5.4-4.2l.4-.5a1,1,0,1,0-1.5-1.3l-.4.5c-1.4,1.5-2.8,3.1-4.6,3.7a7.37,7.37,0,0,1-3,.2,17.63,17.63,0,0,0-2.3,0c-2.8.3-4.3,2.4-5.2,4.3a10.53,10.53,0,0,0-.9,3.8c-.2,1.4-.3,2.8-1.1,3.7a10.63,10.63,0,0,1-1.1.9,5.34,5.34,0,0,0-1.5,1.5,13.38,13.38,0,0,0-2.5,5.9,15.06,15.06,0,0,0-.1,3,11.75,11.75,0,0,1-.1,2.7,6.7,6.7,0,0,1-2.2,3.4,14,14,0,0,0-2.1,2.6,14.42,14.42,0,0,0-1.6,8.2,23.25,23.25,0,0,0,.5,2.8c.4,1.7.8,3.2,0,4.9a15.3,15.3,0,0,0-1.5,4.4,1,1,0,0,0,.9,1.1h.1a1.06,1.06,0,0,0,1-.9,19.74,19.74,0,0,1,1.3-3.9c1-2.2.5-4.2,0-6.1-.2-.9-.4-1.7-.5-2.5a13.14,13.14,0,0,1,1.3-7,9.16,9.16,0,0,1,1.8-2.2,8.5,8.5,0,0,0,2.7-4.4,11.56,11.56,0,0,0,.1-3.2,11.11,11.11,0,0,1,.1-2.6,11.66,11.66,0,0,1,2.2-5,6.53,6.53,0,0,1,1.2-1.1,14.93,14.93,0,0,0,1.4-1.2,8.62,8.62,0,0,0,1.6-4.8c0-.3.1-.7.1-1,.1,0,.2.1.3.1a20.44,20.44,0,0,0,3.5,0c-1.5,1.5-3.3,3.8-3.4,5.9a11.24,11.24,0,0,0,.4,3.2,2,2,0,0,1,.1.7,10.36,10.36,0,0,0-3.6,2,1,1,0,1,0,1.3,1.5,9.48,9.48,0,0,1,2.5-1.4,6.35,6.35,0,0,1-.9,2.1,9.76,9.76,0,0,0-1.1,2.9c-.3,1.9.6,3.3,1.3,4.6.2.4.5.7.7,1.1.6,1.2.3,2-.4,3.4a8,8,0,0,0-.3,8,1,1,0,0,0,.9.6.6.6,0,0,0,.4-.1,1,1,0,0,0,.5-1.3c-1.4-3-.6-4.6.2-6.3.7-1.4,1.5-3.1.4-5.2-.2-.4-.5-.8-.7-1.3a5,5,0,0,1-1.1-3.2,6,6,0,0,1,.9-2.2,7.61,7.61,0,0,0,1.1-3.5c4.5.1,9.1,2.2,9.6,7a112.83,112.83,0,0,1,.1,11.5,1.14,1.14,0,0,0,.3.8.84.84,0,0,0,.7.2h.2l5.9-1.1a1,1,0,0,0-.4-2l-4.7.8a93.44,93.44,0,0,0-.1-10.5c-.6-6-6.4-8.7-11.8-8.8-.1-.3-.1-.6-.2-.9a8,8,0,0,1-.3-2.6c.1-2.1,3.4-5.2,4.6-6.3v-.1c7.6-1.1,11.8-4.6,13.4-6.4a72.68,72.68,0,0,0,7.5,7.5c1.9,1.8,3.2,6,4,10.2a10.87,10.87,0,0,0-4.9-1.5,20.29,20.29,0,0,0-7.1,1.6,1,1,0,1,0,.8,1.8,20.31,20.31,0,0,1,6.3-1.4H54c2.1,0,4.5,1.6,5.2,2.1.3,2.4.5,4.5.6,5.9a4.87,4.87,0,0,1,.1,1.2c.6,7.4-.4,13.2-2.9,17.8a24.76,24.76,0,0,1-7.3,8.1,15.27,15.27,0,0,1-11,2.2c-5.1-.8-10.6-5.1-13.1-10.4a24.14,24.14,0,0,1-1.5-8c0-.6-.1-1.2-.1-1.8a36.42,36.42,0,0,1-.2-6.6,1.09,1.09,0,0,0-.9-1.1,1.17,1.17,0,0,0-1.1.9,52.33,52.33,0,0,0,.1,5.6,14,14,0,0,0-2.9,6,4.72,4.72,0,0,0,.3,2.7c.1.2.1.4.2.6a6.6,6.6,0,0,1-.3,4.9,5.5,5.5,0,0,1-.7.9,7.12,7.12,0,0,0-1.1,1.7,10.35,10.35,0,0,0-.3,5.2,1.06,1.06,0,0,0,1,.9h.1a1.17,1.17,0,0,0,.9-1.1,8.61,8.61,0,0,1,.2-4.2,8.34,8.34,0,0,1,.8-1.2l.9-1.2c1.2-2.2.8-4.6.5-6.2-.1-.2-.1-.5-.2-.7a4.13,4.13,0,0,1-.2-1.9,9.93,9.93,0,0,1,1.2-3.1c.2,2.7.4,5.8,1.7,8.6a19.1,19.1,0,0,0,1.6,2.7c-1.8,2-1.6,4.2-1.4,6s.3,3.4-1.3,5a1,1,0,0,0,0,1.4,1,1,0,0,0,1.4,0c2.3-2.2,2.1-4.5,1.9-6.6-.1-1.6-.3-2.9.7-4.2a23.21,23.21,0,0,0,4.3,4c-.7,1.6-2.2,5.8-1.4,8.5a1,1,0,0,0,1,.7h.3a1,1,0,0,0,.7-1.2c-.5-1.8.5-5.1,1.2-6.9a16.51,16.51,0,0,0,5.7,2.1c1,.1,2,.2,3,.2a16,16,0,0,0,9.4-2.8A13.3,13.3,0,0,0,53,65c.7,1,.6,2.3.5,3.7-.1,1.9-.2,4,1.6,5.6a.84.84,0,0,0,.7.2,1.14,1.14,0,0,0,.8-.3,1,1,0,0,0-.1-1.4c-1-.9-1-2.1-.9-3.9s.2-3.6-1-5.2a23.83,23.83,0,0,0,4.3-5.6,9.93,9.93,0,0,1,.3,5.6c-1.4,5.5,2.2,7.3,2.4,7.4a.6.6,0,0,0,.4.1,1.05,1.05,0,0,0,.9-.5,1,1,0,0,0-.4-1.3c-.1,0-2.3-1.3-1.3-5.1a11.78,11.78,0,0,0-1-8.4,29,29,0,0,0,2.3-10.6c1.2,1.4,2.5,3.3,2.4,5a10.93,10.93,0,0,1-.4,2.4,10.55,10.55,0,0,0-.4,3.1,8,8,0,0,0,1.9,4.7c.3.4.6.9.9,1.3a4.72,4.72,0,0,1-.1,4.6,1.08,1.08,0,0,0,.3,1.4.9.9,0,0,0,.5.1,1.19,1.19,0,0,0,.9-.5,6.51,6.51,0,0,0,.2-6.6c-.3-.5-.7-1-1-1.5a7.31,7.31,0,0,1-1.6-3.6,12.66,12.66,0,0,1,.4-2.6,12.59,12.59,0,0,0,.4-2.7c.1-3.5-3.3-6.9-4.4-7.8,0-1.2-.1-2.4-.2-3.7,0-.4-.1-.9-.1-1.2,0-.5-.5-9.1-2.8-15.2,1,.7,1.8,1.4,2.2,1.7,1.2.9,2.8,2.4,3.2,4.1a11.48,11.48,0,0,1,0,3.7c-.3,2.1-.5,4.5,1.2,6.7a12.17,12.17,0,0,0,1.7,1.5c.8.6,1.6,1.1,1.7,1.7a7.25,7.25,0,0,1-.2,2.9c-.3,1.6-.7,3.5.6,5.4a14.7,14.7,0,0,0,1,1.3,7.61,7.61,0,0,1,2,4,10.57,10.57,0,0,1-.2,2.4c-.2,1.5-.5,3.2.3,4.8a1.05,1.05,0,0,0,.9.5.9.9,0,0,0,.5-.1,1,1,0,0,0,.4-1.4c-.5-.9-.3-2.2-.1-3.5C74.52,57.43,74.62,56.53,74.52,55.53Z"/><path class="cls-1" d="M35,53.83a1,1,0,1,0-.9,1.7,19.9,19.9,0,0,0,8.4,1.8,21.87,21.87,0,0,0,8.8-1.9,1,1,0,0,0-.8-1.8A19.24,19.24,0,0,1,35,53.83Z"/></g></g></svg>