<?xml version="1.0" encoding="utf-8"?>
<!-- Generator: Adobe Illustrator 23.0.3, SVG Export Plug-In . SVG Version: 6.00 Build 0)  -->
<svg version="1.1" id="Layer_1" xmlns="http://www.w3.org/2000/svg" xmlns:xlink="http://www.w3.org/1999/xlink" x="0px" y="0px"
	 viewBox="0 0 179.1 94.8" style="enable-background:new 0 0 179.1 94.8;" xml:space="preserve">
<style type="text/css">
	.st0{fill:#DEDEDE;}
	.st1{fill:#000307;}
	.st2{fill:#F0F0F0;}
	.st3{fill:#9C2626;}
	.st4{fill:#E60032;}
	.st5{fill:#FFFFFF;}
	.st6{fill:#289C57;}
	.st7{fill:#27AE60;}
</style>
<title>iconography-samples</title>
<g>
	<path d="M155.1,33.4h-1.8c-0.2,0-0.4-0.1-0.5-0.4l-0.5-1.9l-0.2-0.1c-0.4-0.1-0.7-0.3-1.1-0.5l-0.2-0.1l-1.7,0.9
		c-0.2,0.1-0.4,0.1-0.6-0.1l-1.3-1.3c-0.2-0.2-0.2-0.4-0.1-0.6l0.9-1.7l-0.1-0.2c-0.2-0.3-0.3-0.7-0.5-1.1l-0.1-0.2l-1.8-0.5
		c-0.2-0.1-0.4-0.3-0.4-0.5v-1.8c0-0.2,0.1-0.4,0.4-0.5l1.9-0.5l0.1-0.2c0.1-0.4,0.3-0.7,0.4-1.1l0.1-0.2l-0.9-1.7
		c-0.1-0.2-0.1-0.4,0.1-0.6l1.3-1.3c0.2-0.2,0.4-0.2,0.6-0.1l1.7,0.9l0.2-0.1c0.3-0.2,0.7-0.3,1.1-0.5l0.2-0.1l0.5-1.8
		c0.1-0.2,0.3-0.4,0.5-0.4h1.8c0.2,0,0.4,0.1,0.5,0.4l0.5,1.8l0.2,0.1c0.4,0.1,0.7,0.3,1.1,0.5l0.2,0.1l1.7-0.9
		c0.2-0.1,0.4-0.1,0.6,0.1l1.3,1.3c0.2,0.2,0.2,0.4,0.1,0.6l-0.9,1.7l0.1,0.2c0.2,0.3,0.3,0.7,0.4,1.1l0.1,0.2l1.9,0.5
		c0.2,0.1,0.4,0.3,0.4,0.5v1.8c0,0.2-0.2,0.4-0.4,0.5l-1.8,0.5l-0.1,0.2c-0.1,0.4-0.3,0.7-0.4,1.1l-0.1,0.2l0.9,1.7
		c0.1,0.2,0.1,0.4-0.1,0.6l-1.3,1.3c-0.2,0.2-0.4,0.2-0.6,0.1l-1.7-0.9l-0.2,0.1c-0.3,0.2-0.7,0.3-1.1,0.5l-0.2,0.1l-0.5,1.9
		C155.5,33.3,155.3,33.4,155.1,33.4z"/>
	<path class="st0" d="M153.7,32.4h1.1l0.5-1.7c0-0.2,0.2-0.3,0.3-0.3l0.5-0.1c0.3-0.1,0.6-0.2,0.9-0.4l0.5-0.2
		c0.1-0.1,0.3-0.1,0.5,0l1.6,0.9l0.8-0.7l-0.9-1.6c-0.1-0.2-0.1-0.3,0-0.5l0.2-0.4c0.2-0.3,0.3-0.6,0.4-0.9l0.1-0.5
		c0.1-0.2,0.2-0.3,0.3-0.3l1.7-0.5v-1.1l-1.8-0.5c-0.2,0-0.3-0.2-0.3-0.3l-0.2-0.5c-0.1-0.3-0.2-0.6-0.4-0.9l-0.2-0.5
		c-0.1-0.1-0.1-0.3,0-0.5l0.9-1.6l-0.8-0.8l-1.6,0.9c-0.1,0.1-0.3,0.1-0.5,0L157,19c-0.3-0.2-0.6-0.3-0.9-0.4l-0.5-0.1
		c-0.2-0.1-0.3-0.2-0.3-0.3l-0.5-1.7h-1.1l-0.5,1.7c0,0.2-0.2,0.3-0.3,0.3l-0.5,0.1c-0.3,0.1-0.6,0.2-0.9,0.4l-0.4,0.2
		c-0.1,0.1-0.3,0.1-0.5,0l-1.6-0.9l-0.8,0.8l0.9,1.6c0.1,0.1,0.1,0.3,0,0.5l-0.2,0.5c-0.1,0.3-0.3,0.6-0.4,0.9l-0.2,0.5
		c0,0.2-0.2,0.3-0.3,0.3l-1.8,0.5V25l1.7,0.5c0.2,0,0.3,0.2,0.3,0.3l0.2,0.5c0.1,0.3,0.2,0.6,0.4,0.9l0.2,0.5c0.1,0.2,0.1,0.3,0,0.5
		l-0.9,1.6l0.8,0.7l1.6-0.9c0.1-0.1,0.3-0.1,0.5,0l0.4,0.2c0.3,0.2,0.6,0.3,0.9,0.4l0.5,0.1c0.2,0.1,0.3,0.2,0.3,0.3L153.7,32.4z"/>
	<path class="st1" d="M100.6,54l-4.2-4.2c2.7-3.2,2.4-7.9-0.8-10.7c-3.2-2.7-7.9-2.4-10.7,0.8c-2.7,3.2-2.4,7.9,0.8,10.7
		c2.9,2.5,7.1,2.4,10-0.1l4.2,4.2L100.6,54z"/>
	<path class="st0" d="M90.7,38.4c3.6,0,6.5,2.9,6.5,6.5s-2.9,6.5-6.5,6.5s-6.5-2.9-6.5-6.5l0,0C84.2,41.4,87.1,38.4,90.7,38.4"/>
	<path d="M131.7,55.4h-20c-0.8,0-1.5-0.7-1.5-1.5v-15c0-0.8,0.7-1.5,1.5-1.5h20c0.8,0,1.5,0.7,1.5,1.5v15
		C133.2,54.8,132.5,55.4,131.7,55.4z"/>
	<path class="st0" d="M111.7,38.4h20c0.3,0,0.5,0.2,0.5,0.5v15c0,0.3-0.2,0.5-0.5,0.5h-20c-0.3,0-0.5-0.2-0.5-0.5v-15
		C111.2,38.7,111.4,38.4,111.7,38.4z"/>
	<path d="M160.7,37.4h-20c-0.8,0-1.5,0.7-1.5,1.5v15c0,0.8,0.7,1.5,1.5,1.5h20c0.8,0,1.5-0.7,1.5-1.5v-15
		C162.2,38.1,161.5,37.4,160.7,37.4z"/>
	<path class="st0" d="M140.7,54.4c-0.3,0-0.5-0.2-0.5-0.5v-15c0-0.3,0.2-0.5,0.5-0.5h9.5v16H140.7z"/>
	<path class="st0" d="M161.2,53.9c0,0.3-0.2,0.5-0.5,0.5h-9.5v-16h9.5c0.3,0,0.5,0.2,0.5,0.5V53.9z"/>
	<path d="M109.8,31.6h-1.2h-0.8c-0.3,0-0.5-0.2-0.5-0.5c0,0,0-0.1,0-0.1c0.1-0.3,0.1-0.6-0.1-0.9c-0.2-0.1-0.4-0.4-0.7-0.6L106,29
		l-0.9-1c-0.2-0.3-0.4-0.6-0.5-0.9c-0.2-0.4-0.5-0.8-0.8-1.3c-0.2-0.2-0.4-0.5-0.6-0.7c-0.3-0.3-0.6-0.6-0.8-1
		c-0.3-0.5-0.4-1.2-0.2-1.8c0.3-0.8,1.1-1.3,1.9-1.2c0.6,0,1.1,0.3,1.6,0.7c0,0,0.1,0,0.1,0.1c-0.1-0.2-0.1-0.3-0.2-0.5
		c-0.1-0.2-0.1-0.3-0.2-0.5s-0.2-0.5-0.3-0.7l-0.2-0.5c-0.2-0.5-0.4-1-0.5-1.6c-0.1-0.6,0-1.2,0.3-1.7c0.5-0.5,1.3-0.7,2-0.5
		c0.5,0.2,0.9,0.5,1.2,1c0.2,0.3,0.3,0.6,0.5,0.9c0-0.1,0-0.3,0-0.5s0.1-0.7,0.1-0.8c0.1-0.6,0.4-1.1,1-1.4c0.6-0.3,1.3-0.3,1.9,0
		c0.6,0.2,0.9,0.8,1,1.4c0.2-0.2,0.4-0.3,0.6-0.4c0.7-0.3,1.5-0.1,2,0.4c0.4,0.4,0.6,0.9,0.6,1.5c0,0.3,0,0.6,0,0.9
		c0,0.1,0,0.3,0,0.4v0l0.1-0.2c0.2-0.3,0.5-0.6,0.9-0.8c0.4-0.2,0.8-0.2,1.1,0c0.4,0.2,0.7,0.5,0.9,0.9c0.1,0.4,0.1,0.8,0,1.2v0.2
		c-0.1,0.6-0.2,1.2-0.4,1.8c-0.1,0.4-0.2,0.9-0.3,1.6l-0.1,0.3c-0.1,0.5-0.2,1.2-0.3,1.6c-0.2,0.6-0.4,1.1-0.8,1.6
		c-0.5,0.5-0.9,1.1-1.2,1.7c-0.1,0.2-0.1,0.4-0.1,0.6c0,0.1,0,0.2,0,0.3c0,0.3,0,0.5,0.1,0.8c0,0.1,0,0.3-0.1,0.4
		c-0.1,0.1-0.2,0.2-0.3,0.2c-0.5,0.1-1,0.1-1.4,0c-0.6-0.1-1.2-0.9-1.3-1.3c-0.2,0.5-0.8,1.2-1.4,1.3
		C110.7,31.7,110.2,31.7,109.8,31.6z M108.3,30.6h0.3c0.8,0,1.6,0,2.4,0c0.3-0.3,0.5-0.6,0.7-0.9c0.2-0.4,0.8-0.6,1.2-0.4
		c0.2,0.1,0.3,0.2,0.4,0.4c0.2,0.3,0.4,0.6,0.7,0.9c0.2,0,0.4,0,0.6,0c0-0.2,0-0.4,0-0.5v-0.2c0-0.3,0-0.6,0.1-0.8
		c0.3-0.8,0.8-1.5,1.3-2.1c0.2-0.4,0.4-0.8,0.6-1.2c0.1-0.3,0.2-1.1,0.3-1.5l0.1-0.3c0.1-0.8,0.3-1.4,0.4-1.7
		c0.2-0.5,0.3-1.1,0.3-1.6v-0.2c0-0.2,0-0.5,0-0.7c-0.1-0.1-0.2-0.3-0.3-0.3c-0.1-0.1-0.2-0.1-0.3,0c-0.2,0.1-0.4,0.2-0.5,0.4
		l-0.1,0.2c-0.1,0.2-0.2,0.3-0.3,0.5c-0.1,0.2-0.3,0.7-0.4,0.9s-0.2,0.5-0.3,0.8c-0.1,0.2-0.3,0.4-0.6,0.4c-0.4-0.1-0.4-0.5-0.4-0.7
		v-0.7c0-0.5,0-0.9,0-1.5c0-0.1,0-0.3,0-0.5c0-0.3,0-0.5,0-0.8c0-0.3-0.1-0.7-0.4-0.9c-0.3-0.2-0.6-0.2-0.9-0.1
		c-0.3,0.1-0.5,0.4-0.6,0.7c-0.2,1-0.3,2-0.3,3c0,0.4,0,0.8,0,1s-0.3,0.5-0.5,0.5s-0.4-0.1-0.5-0.5l0,0l0,0c0-0.2,0-0.5,0-1v-0.8
		c0-0.5,0-1.1,0-2c0-0.1-0.1-1-0.1-1.1c-0.1-0.5-0.3-0.6-0.4-0.7c-0.3-0.1-0.7-0.1-1,0c-0.3,0.1-0.4,0.4-0.4,0.6
		c0,0.1-0.1,0.5-0.1,0.7c0,1.2,0,2,0,3v1.2c0,0.3-0.2,0.5-0.4,0.5c-0.3,0-0.5-0.2-0.6-0.4l-0.1-0.5c-0.1-0.8-0.3-1.5-0.6-2.2
		c-0.2-0.5-0.4-1-0.7-1.5c-0.2-0.3-0.4-0.5-0.7-0.6c-0.3-0.1-0.6,0-0.8,0.2c-0.2,0.2-0.2,0.6-0.2,0.8c0.1,0.5,0.3,1,0.4,1.4l0.2,0.4
		c0.1,0.3,0.2,0.5,0.3,0.8c0,0.1,0.1,0.3,0.2,0.4c0.1,0.3,0.2,0.6,0.3,0.9c0.2,0.5,0.3,0.9,0.3,1.3l0.1,0.4l0,0
		c0,0.2,0.2,0.6-0.2,0.8s-0.6-0.1-0.8-0.3l-0.3-0.4c-0.1-0.1-0.1-0.2-0.2-0.3c-0.2-0.3-0.5-0.5-0.7-0.7c-0.3-0.3-0.6-0.4-1-0.4
		c-0.4-0.1-0.8,0.1-0.9,0.5c-0.1,0.3,0,0.7,0.2,1c0.2,0.3,0.4,0.6,0.7,0.8c0.2,0.2,0.4,0.5,0.7,0.8c0.3,0.5,0.6,1,0.8,1.3
		s0.3,0.5,0.4,0.7l0.8,0.9c0.1,0.1,0.3,0.3,0.5,0.5l0.6,0.6C108.2,29.6,108.3,30.1,108.3,30.6L108.3,30.6z"/>
	<path class="st2" d="M108.3,30.6h0.3c0.8,0,1.6,0,2.4,0c0.3-0.3,0.5-0.6,0.7-0.9c0.2-0.4,0.8-0.6,1.2-0.4c0.2,0.1,0.3,0.2,0.4,0.4
		c0.2,0.3,0.4,0.6,0.7,0.9c0.2,0,0.4,0,0.6,0c0-0.2,0-0.4,0-0.5v-0.2c0-0.3,0-0.6,0.1-0.8c0.3-0.8,0.8-1.5,1.3-2.1
		c0.2-0.4,0.4-0.8,0.6-1.2c0.1-0.3,0.2-1.1,0.3-1.5l0.1-0.3c0.1-0.8,0.3-1.4,0.4-1.7c0.2-0.5,0.3-1.1,0.3-1.6v-0.2
		c0-0.2,0-0.5,0-0.7c-0.1-0.1-0.2-0.3-0.3-0.3c-0.1-0.1-0.2-0.1-0.3,0c-0.2,0.1-0.4,0.2-0.5,0.4l-0.1,0.2c-0.1,0.2-0.2,0.3-0.3,0.5
		c-0.1,0.2-0.3,0.7-0.4,0.9s-0.2,0.5-0.3,0.8c-0.1,0.2-0.3,0.4-0.6,0.4c-0.4-0.1-0.4-0.5-0.4-0.7v-0.7c0-0.5,0-0.9,0-1.5
		c0-0.1,0-0.3,0-0.5c0-0.3,0-0.5,0-0.8c0-0.3-0.1-0.7-0.4-0.9c-0.3-0.2-0.6-0.2-0.9-0.1c-0.3,0.1-0.5,0.4-0.6,0.7
		c-0.2,1-0.3,2-0.3,3c0,0.4,0,0.8,0,1s-0.3,0.5-0.5,0.5s-0.4-0.1-0.5-0.5l0,0l0,0c0-0.2,0-0.5,0-1v-0.8c0-0.5,0-1.1,0-2
		c0-0.1-0.1-1-0.1-1.1c-0.1-0.5-0.3-0.6-0.4-0.7c-0.3-0.1-0.7-0.1-1,0c-0.3,0.1-0.4,0.4-0.4,0.6c0,0.1-0.1,0.5-0.1,0.7
		c0,1.2,0,2,0,3v1.2c0,0.3-0.2,0.5-0.4,0.5c-0.3,0-0.5-0.2-0.6-0.4l-0.1-0.5c-0.1-0.8-0.3-1.5-0.6-2.2c-0.2-0.5-0.4-1-0.7-1.5
		c-0.2-0.3-0.4-0.5-0.7-0.6c-0.3-0.1-0.6,0-0.8,0.2c-0.2,0.2-0.2,0.6-0.2,0.8c0.1,0.5,0.3,1,0.4,1.4l0.2,0.4
		c0.1,0.3,0.2,0.5,0.3,0.8c0,0.1,0.1,0.3,0.2,0.4c0.1,0.3,0.2,0.6,0.3,0.9c0.2,0.5,0.3,0.9,0.3,1.3l0.1,0.4l0,0
		c0,0.2,0.2,0.6-0.2,0.8s-0.6-0.1-0.8-0.3l-0.3-0.4c-0.1-0.1-0.1-0.2-0.2-0.3c-0.2-0.3-0.5-0.5-0.7-0.7c-0.3-0.3-0.6-0.4-1-0.4
		c-0.4-0.1-0.8,0.1-0.9,0.5c-0.1,0.3,0,0.7,0.2,1c0.2,0.3,0.4,0.6,0.7,0.8c0.2,0.2,0.4,0.5,0.7,0.8c0.3,0.5,0.6,1,0.8,1.3
		s0.3,0.5,0.4,0.7l0.8,0.9c0.1,0.1,0.3,0.3,0.5,0.5l0.6,0.6C108.2,29.6,108.3,30.1,108.3,30.6z"/>
	<path d="M78.3,20.8l-6.4-6.4c-0.2-0.2-0.5-0.2-0.7,0l-8.9,8.9c-0.2,0.2-0.2,0.5,0,0.7l0.3,0.3l-2.2,2.3c-0.2,0.2-0.2,0.5,0,0.7
		c0,0,0,0,0,0l5,5c0.2,0.2,0.5,0.2,0.7,0c0,0,0,0,0,0l2.3-2.2l0.3,0.3c0.1,0.1,0.2,0.1,0.4,0.1c0.1,0,0.3,0,0.3-0.1l8.9-8.9
		C78.4,21.3,78.4,21,78.3,20.8z M69,29.3l-5.7-5.7l8.2-8.2l5.7,5.7L69,29.3z"/>
	<rect x="64.5" y="18.4" transform="matrix(0.7071 -0.7071 0.7071 0.7071 4.7499 56.2348)" class="st0" width="11.6" height="8"/>
	<path d="M98.1,29.6l-8-8l0,0l-7-7c-0.2-0.1-0.4-0.2-0.6-0.1c-0.2,0.1-0.3,0.3-0.3,0.5l1,12c0,0.2,0.1,0.3,0.2,0.4
		c0.1,0.1,0.2,0.1,0.3,0.1c0.1,0,0.1,0,0.2,0l4.7-1.9l6.8,6.8c0.1,0.1,0.2,0.1,0.3,0.2c0.1,0,0.3-0.1,0.4-0.2l2-2
		c0.1-0.1,0.2-0.2,0.2-0.4C98.2,29.9,98.2,29.7,98.1,29.6z"/>
	<path d="M140.2,61.8c0-0.2,0.2-0.4,0.5-0.4h6.5v-1h-6.5c-0.8,0-1.5,0.6-1.5,1.4c0,0,0,0,0,0v5.6h1L140.2,61.8z"/>
	<path d="M160.7,60.4h-6.5v1h6.5c0.2,0,0.4,0.1,0.5,0.4v5.6h1v-5.6C162.2,61,161.5,60.4,160.7,60.4
		C160.7,60.4,160.7,60.4,160.7,60.4z"/>
	<path d="M161.2,77.1c0,0.2-0.2,0.4-0.5,0.4h-6.5v1h6.5c0.8,0,1.5-0.6,1.5-1.4c0,0,0,0,0,0v-5.6h-1V77.1z"/>
	<path d="M150.1,69.4h-9.8c-0.6,0-1.1,0.4-1.1,1v7c0,0.6,0.5,1,1.1,1h9.8c0.6,0,1.1-0.4,1.1-1c0,0,0,0,0,0v-7
		C151.2,69.9,150.7,69.4,150.1,69.4C150.1,69.4,150.1,69.4,150.1,69.4z M150.1,77.4h-9.8c-0.1,0-0.1,0-0.1,0v-7c0,0,0.1,0,0.1,0h9.8
		c0.1,0,0.1,0,0.1,0v7C150.2,77.5,150.1,77.5,150.1,77.4z"/>
	<path d="M152.4,66.3l0.7-0.7l-2-2c-0.2-0.2-0.5-0.2-0.7,0l-2,2l0.7,0.7l1.1-1.2v3.3h1v-3.3L152.4,66.3z"/>
	<path d="M154.4,71.6l0.7,0.7l2-2c0.2-0.2,0.2-0.5,0-0.7l-2-2l-0.7,0.7l1.1,1.2h-3.3v1h3.3L154.4,71.6z"/>
	<path class="st3" d="M46.2,13.4c-5.5,0-10,4.5-10,10s4.5,10,10,10s10-4.5,10-10l0,0C56.2,17.9,51.7,13.4,46.2,13.4z"/>
	<circle class="st4" cx="46.2" cy="23.4" r="9"/>
	<rect x="41.2" y="22.4" class="st5" width="10" height="2"/>
	<circle class="st6" cx="23.2" cy="23.4" r="10"/>
	<path class="st7" d="M23.2,14.4c-5,0-9,4-9,9s4,9,9,9s9-4,9-9c0,0,0,0,0,0C32.2,18.5,28.2,14.4,23.2,14.4z"/>
	<path d="M24.5,41.4h-6.5l2.1-2.2l-0.7-0.7l-3,3c-0.2,0.2-0.2,0.5,0,0.7l3,3l0.7-0.7l-2.1-2.1h6.5c2.7,0,4.8,2.2,4.8,4.8v0.3
		c0,2.7-2.2,4.8-4.8,4.8h-7.2v1h7.2c3.2,0,5.8-2.6,5.8-5.8v-0.3C30.3,44,27.7,41.4,24.5,41.4z"/>
	<path d="M50.2,45.3l3-3c0.2-0.2,0.2-0.5,0-0.7c0,0,0,0,0,0l-3-3l-0.7,0.7l2.1,2.2H45c-3.2,0-5.8,2.6-5.8,5.8v0.3
		c0,3.2,2.6,5.8,5.8,5.8h7.2v-1H45c-2.7,0-4.8-2.2-4.8-4.8v-0.3c0-2.7,2.2-4.8,4.8-4.8h6.5l-2.1,2.1L50.2,45.3z"/>
	<polygon class="st5" points="28.2,22.4 24.2,22.4 24.2,18.4 22.2,18.4 22.2,22.4 18.2,22.4 18.2,24.4 22.2,24.4 22.2,28.4 
		24.2,28.4 24.2,24.4 28.2,24.4 	"/>
	<rect x="113.2" y="24.4" width="1" height="4"/>
	<rect x="111.2" y="24.4" transform="matrix(1 -4.188778e-03 4.188778e-03 1 -0.1097 0.4682)" width="1" height="4"/>
	<rect x="109.2" y="24.4" transform="matrix(1 -5.410494e-03 5.410494e-03 1 -0.1415 0.5941)" width="1" height="4"/>
	<path d="M125.3,49.4h-6c-0.3,0-0.5-0.2-0.5-0.5c0-0.1,0-0.2,0.1-0.2l3-5.2c0.2-0.2,0.5-0.3,0.7-0.2c0.1,0,0.1,0.1,0.2,0.2l3,5.2
		c0.1,0.2,0.1,0.3,0,0.5C125.7,49.3,125.5,49.4,125.3,49.4z"/>
	<rect x="87.7" y="44.4" width="6" height="1"/>
	<path class="st1" d="M78.1,54l-4.2-4.2c2.7-3.2,2.4-7.9-0.8-10.7c-3.2-2.7-7.9-2.4-10.7,0.8c-2.7,3.2-2.4,7.9,0.8,10.7
		c2.9,2.5,7.1,2.4,10-0.1l4.2,4.2L78.1,54z"/>
	<path class="st0" d="M68.2,38.4c3.6,0,6.5,2.9,6.5,6.5s-2.9,6.5-6.5,6.5s-6.5-2.9-6.5-6.5l0,0C61.7,41.4,64.6,38.4,68.2,38.4"/>
	<path d="M148.3,49.4h-6.1c-0.3,0-0.5-0.2-0.5-0.5c0-0.1,0-0.2,0.1-0.2l3-5.2c0.2-0.2,0.5-0.3,0.7-0.2c0.1,0,0.1,0.1,0.2,0.2l3,5.2
		c0.1,0.2,0.1,0.3,0,0.5C148.6,49.3,148.5,49.4,148.3,49.4z"/>
	<path d="M159.3,49.4h-6.1c-0.3,0-0.5-0.2-0.5-0.5c0-0.1,0-0.2,0.1-0.2l3-5.2c0.2-0.2,0.5-0.3,0.7-0.2c0.1,0,0.1,0.1,0.2,0.2l3,5.2
		c0.1,0.2,0.1,0.3,0,0.5C159.6,49.3,159.5,49.4,159.3,49.4z"/>
	<path d="M93.2,79.4c-5.5,0-10-4.5-10-10s4.5-10,10-10s10,4.5,10,10S98.7,79.4,93.2,79.4z"/>
	<path d="M54.2,72.4h-4v-7h-7v-4h-3v4h-3v3h10v10h3v-3h4V72.4z"/>
	<polygon points="42.2,72.4 42.2,73.4 43.2,73.4 46.2,73.4 46.2,72.4 43.2,72.4 43.2,69.4 42.2,69.4 	"/>
	<polygon points="41.2,74.4 41.2,69.4 40.2,69.4 40.2,75.4 46.2,75.4 46.2,74.4 	"/>
	<path d="M52.8,61.4h-4.9l1.2-1.2l-0.7-0.7l-2,2c-0.2,0.2-0.2,0.5,0,0.7l2,2l0.7-0.7l-1.2-1.1h4.9c0.2,0,0.4,0.2,0.4,0.4
		c0,0,0,0,0,0v7.1h1v-7.1C54.2,62.1,53.6,61.4,52.8,61.4z"/>
	<path d="M126.4,65.9l1.2-1.2c0.5-0.5,0.8-1.2,0.8-1.8c0-1.5-1.2-2.6-2.6-2.6c-0.7,0-1.4,0.3-1.8,0.8l-1.2,1.2l-0.1-0.1
		c-0.8-0.7-1.9-0.7-2.7,0l-2.3,2.3l1.8,1.8l-8.2,8.2c-0.6,0.5-0.9,1.2-1,2v2h2c0.8-0.1,1.5-0.4,2-1l8.2-8.2l1.9,1.9l2.3-2.4
		c0.7-0.7,0.8-1.9,0-2.7c0,0,0,0,0,0L126.4,65.9z"/>
	<path class="st5" d="M83.3,16.3l5.3,5.3c0,0.1,0,0.1-0.1,0.2c-0.5,0.9-0.7,2-0.6,3l-3.8,1.5L83.3,16.3z"/>
	<path class="st0" d="M95.7,31.2l-6.7-6.6c-0.4-0.4,0-1.5,0.3-2.3L97,30L95.7,31.2z"/>
	<path d="M139.9,23.1l-1.6-0.5l-0.1-0.2c-0.1-0.3-0.2-0.7-0.4-1l-0.1-0.2l0.8-1.5c0.1-0.2,0.1-0.4-0.1-0.6l-1.1-1.1
		c-0.2-0.2-0.4-0.2-0.6-0.1l-1.4,0.8l-0.2-0.1c-0.3-0.2-0.7-0.3-1-0.4l-0.2-0.1l-0.5-1.6c-0.1-0.2-0.3-0.4-0.5-0.4h-1.6
		c-0.2,0-0.4,0.1-0.5,0.4l-0.5,1.6l-0.2,0.1h-0.1c0.3,0.1,0.6,0.4,0.9,0.6c0,0,0,0.1,0.1,0.1c0.1-0.1,0.2-0.2,0.3-0.3l0.4-1.5h0.9
		l0.4,1.5c0,0.2,0.2,0.3,0.3,0.3l0.4,0.1c0.3,0.1,0.6,0.2,0.8,0.4l0.4,0.2c0.1,0.1,0.3,0.1,0.5,0l1.4-0.8l0.6,0.6l-0.8,1.4
		c-0.1,0.1-0.1,0.3,0,0.5l0.2,0.4c0.1,0.3,0.2,0.5,0.3,0.8l0.1,0.4c0.1,0.2,0.2,0.3,0.3,0.3l1.5,0.4v0.9l-1.5,0.4
		c-0.2,0-0.3,0.2-0.3,0.3l-0.1,0.4c-0.1,0.3-0.2,0.6-0.3,0.8l-0.2,0.4c-0.1,0.1-0.1,0.3,0,0.5l0.8,1.4l-0.6,0.6l-1.4-0.8
		c-0.1-0.1-0.3-0.1-0.5,0l-0.4,0.2c-0.3,0.1-0.5,0.3-0.8,0.4l-0.4,0.1c-0.2,0.1-0.3,0.2-0.3,0.3l-0.4,1.5h-0.9l-0.4-1.5
		c-0.1-0.2-0.2-0.3-0.3-0.3l-0.4-0.1c-0.3-0.1-0.6-0.2-0.8-0.4l-0.4-0.2c-0.1-0.1-0.3-0.1-0.5,0l-1.4,0.8l-0.6-0.6l0.8-1.4
		c0-0.1,0-0.2,0-0.3h-1l0,0l-0.8,1.5c-0.1,0.2-0.1,0.4,0.1,0.6l1.1,1.1c0.2,0.2,0.4,0.2,0.6,0.1l1.5-0.8l0.2,0.1
		c0.3,0.2,0.7,0.3,1,0.4l0.2,0L131,32c0.1,0.2,0.3,0.4,0.5,0.4h1.6c0.2,0,0.4-0.1,0.5-0.4l0.5-1.6l0.2-0.1c0.3-0.1,0.7-0.2,1-0.4
		l0.2-0.1l1.4,0.8c0.2,0.1,0.4,0.1,0.6-0.1l1.1-1.1c0.2-0.2,0.2-0.4,0.1-0.6l-0.8-1.5l0.1-0.2c0.2-0.3,0.3-0.7,0.4-1l0.1-0.2
		l1.6-0.5c0.2-0.1,0.4-0.3,0.4-0.5v-1.5C140.2,23.4,140.1,23.2,139.9,23.1z"/>
	<path class="st0" d="M130.7,21.5l-1,0.9h0.7c0.1,0,0.2,0,0.3,0c0.4-0.3,1-0.5,1.5-0.5c1.4,0,2.5,1.1,2.5,2.5s-1.1,2.5-2.5,2.5
		c-0.2,0-0.4,0-0.6-0.1c-0.3,0.4-0.7,0.6-1.2,0.6h-2.6c0,0.1,0,0.2,0,0.3l-0.8,1.4l0.6,0.6l1.4-0.8c0.1-0.1,0.3-0.1,0.5,0l0.4,0.2
		c0.3,0.1,0.5,0.3,0.8,0.4l0.4,0.1c0.2,0.1,0.3,0.2,0.3,0.3l0.4,1.5h0.9l0.4-1.5c0.1-0.2,0.2-0.3,0.3-0.3l0.4-0.1
		c0.3-0.1,0.6-0.2,0.8-0.4l0.4-0.2c0.1-0.1,0.3-0.1,0.5,0l1.4,0.8l0.6-0.6l-0.8-1.4c-0.1-0.1-0.1-0.3,0-0.5l0.2-0.4
		c0.1-0.3,0.2-0.5,0.3-0.8l0.1-0.4c0-0.2,0.2-0.3,0.3-0.3l1.5-0.4V24l-1.5-0.4c-0.2-0.1-0.3-0.2-0.3-0.3l-0.1-0.4
		c-0.1-0.3-0.2-0.6-0.3-0.8l-0.2-0.4c-0.1-0.1-0.1-0.3,0-0.5l0.8-1.4l-0.6-0.6l-1.4,0.8c-0.1,0.1-0.3,0.1-0.5,0l-0.4-0.2
		c-0.3-0.1-0.5-0.3-0.8-0.4l-0.4-0.1c-0.2,0-0.3-0.2-0.3-0.3l-0.4-1.5h-0.9l-0.4,1.5c0,0.1-0.2,0.3-0.3,0.3
		C131.6,20,131.4,21,130.7,21.5z"/>
	<path d="M131.6,23.1c0.2-0.1,0.4-0.1,0.6-0.1c0.8,0,1.5,0.7,1.5,1.5s-0.7,1.5-1.5,1.5h-0.1c-0.1,0.3-0.3,0.7-0.5,0.9
		c0.2,0.1,0.4,0.1,0.6,0.1c1.4,0,2.5-1.1,2.5-2.5s-1.1-2.5-2.5-2.5c-0.6,0-1.1,0.2-1.5,0.5C131,22.6,131.4,22.8,131.6,23.1z"/>
	<path d="M125.8,22.8l0.5,0.5c0,0,0.1,0.1,0.2,0.1c0.1,0,0.1,0,0.2,0c0.1,0,0.1,0,0.2,0c0,0,0,0,0.1-0.1l0.1,0l3-3
		c0.2-0.2,0.2-0.5,0-0.7l0,0c-0.2-0.2-0.5-0.2-0.7,0L129,20l-1.2,1.2l-0.5,0.5v-5.8c0-0.3-0.2-0.5-0.5-0.5s-0.5,0.2-0.5,0.5v5.8
		l-2.1-2.1c-0.2-0.2-0.5-0.2-0.7,0s-0.2,0.5,0,0.7L125.8,22.8z"/>
	<path d="M129.7,24.4h-6c-0.3,0-0.5,0.2-0.5,0.5c0,0.3,0.2,0.5,0.5,0.5h6c0.1,0,0.1,0,0.2,0c0.3-0.1,0.5-0.3,0.4-0.6
		C130.3,24.6,130,24.4,129.7,24.4z"/>
	<path class="st5" d="M133.7,24.4c0-0.8-0.7-1.5-1.5-1.5c-0.2,0-0.4,0-0.6,0.1c0.4,0.5,0.6,1.2,0.6,1.9c0,0.3,0,0.7-0.1,1h0.1
		C133,25.9,133.7,25.3,133.7,24.4z"/>
	<path class="st0" d="M140.3,70.4c0,0-0.1,0-0.1,0v7c0,0,0.1,0,0.1,0h9.8c0,0,0.1,0,0.1,0v-7c0,0-0.1,0-0.1,0H140.3z"/>
	<polygon class="st5" points="143.1,48.4 147.4,48.4 145.3,44.7 	"/>
	<polygon class="st5" points="154.1,48.4 158.4,48.4 156.3,44.7 	"/>
	<polygon class="st5" points="120.1,48.4 124.4,48.4 122.3,44.7 	"/>
	<polygon points="71.2,44.4 68.7,44.4 68.7,41.9 67.7,41.9 67.7,44.4 65.2,44.4 65.2,45.4 67.7,45.4 67.7,47.9 68.7,47.9 68.7,45.4 
		71.2,45.4 	"/>
	<rect x="63.2" y="25.1" transform="matrix(0.7071 -0.7071 0.7071 0.7071 -1.0051 53.8644)" class="st5" width="2.7" height="6.1"/>
	<path class="st0" d="M119,64.5l5.2,5.3l1.7-1.7c0.4-0.4,0.4-0.9,0-1.3l-0.9-0.9l1.8-1.9c0.3-0.3,0.5-0.7,0.5-1.1
		c0-0.4-0.2-0.8-0.5-1.2c-0.6-0.6-1.7-0.6-2.3,0l-1.9,1.8l-0.8-0.8c-0.4-0.4-0.9-0.4-1.3,0L119,64.5z"/>
	<path class="st5" d="M113.5,76.7c-0.3,0.4-0.8,0.6-1.3,0.7h-1v-1c0.1-0.5,0.3-1,0.7-1.3l8.2-8.1l1.6,1.6L113.5,76.7z"/>
	<path d="M77.2,65.4h-3v-4c0-0.6-0.4-1-1-1h-12c-0.6,0-1,0.4-1,1v12c0,0.6,0.4,1,1,1h3v3c0,0.6,0.4,1,1,1h12c0.6,0,1-0.4,1-1v-11
		C78.2,65.9,77.8,65.4,77.2,65.4z"/>
	<polygon class="st5" points="61.2,73.4 61.2,61.4 73.2,61.4 73.2,65.4 73.2,66.4 73.2,73.4 	"/>
	<path class="st0" d="M65.2,77.4v-3h8c0.6,0,1-0.4,1-1v-7h3v11H65.2z"/>
	<circle class="st0" cx="93.2" cy="69.4" r="9"/>
	<polyline class="st0" points="49.2,66.4 49.2,77.4 48.2,77.4 48.2,68.4 48.2,67.4 47.2,67.4 38.2,67.4 38.2,66.4 49.2,66.4 	"/>
	<rect x="41.2" y="62.4" class="st5" width="1" height="3"/>
	<rect x="50.2" y="73.4" class="st5" width="3" height="1"/>
	<path d="M154.3,27.3c-1.5,0-2.7-1.2-2.7-2.7c0-1.5,1.2-2.7,2.7-2.7c1.5,0,2.7,1.2,2.7,2.7c0,0,0,0,0,0
		C157,26,155.8,27.3,154.3,27.3z"/>
	<path class="st5" d="M154.3,22.8c-1,0-1.7,0.8-1.7,1.7c0,1,0.8,1.7,1.7,1.7c1,0,1.7-0.8,1.7-1.7c0,0,0,0,0,0
		C156,23.6,155.2,22.8,154.3,22.8z"/>
	<circle cx="23.2" cy="69.4" r="9"/>
	<path class="st0" d="M22.7,77.4v-16c-4.1,0-7.5,3.6-7.5,8S18.6,77.4,22.7,77.4z"/>
	<path class="st5" d="M23.7,61.4v16c4.1,0,7.5-3.6,7.5-8S27.8,61.4,23.7,61.4z"/>
</g>
</svg>
